<svg width="1778" height="302" xmlns="http://www.w3.org/2000/svg" xmlns:xlink="http://www.w3.org/1999/xlink" overflow="hidden"><defs><clipPath id="clip0"><rect x="-385" y="417" width="1778" height="302"/></clipPath></defs><g clip-path="url(#clip0)" transform="translate(385 -417)"><path d="M1390.43 634.5-376.5 634.5" stroke="#000000" stroke-width="9.16667" stroke-linecap="butt" stroke-linejoin="miter" stroke-miterlimit="8" stroke-opacity="1" fill="none" fill-rule="evenodd"/><path d="M1390.43 487.5-376.5 487.5" stroke="#000000" stroke-width="9.16667" stroke-linecap="butt" stroke-linejoin="miter" stroke-miterlimit="8" stroke-opacity="1" fill="none" fill-rule="evenodd"/><path d="M537.5 443.5C537.5 431.902 546.902 422.5 558.5 422.5L888.5 422.5C900.098 422.5 909.5 431.902 909.5 443.5L909.5 527.499C909.5 539.098 900.098 548.5 888.5 548.5L558.5 548.5C546.902 548.5 537.5 539.098 537.5 527.499Z" stroke="#000000" stroke-width="6.875" stroke-linecap="butt" stroke-linejoin="miter" stroke-miterlimit="8" stroke-opacity="1" fill="#0432FF" fill-rule="evenodd" fill-opacity="1"/><text fill="#FFFFFF" fill-opacity="1" font-family="Calibri,Calibri_MSFontService,sans-serif" font-style="normal" font-variant="normal" font-weight="700" font-stretch="normal" font-size="73" text-anchor="start" direction="ltr" writing-mode="lr-tb" unicode-bidi="normal" text-decoration="none" transform="matrix(1 0 0 1 630.769 510)">SMN1</text><path d="M108.5 443.5C108.5 431.902 117.902 422.5 129.5 422.5L459.5 422.5C471.098 422.5 480.5 431.902 480.5 443.5L480.5 527.499C480.5 539.098 471.098 548.5 459.5 548.5L129.5 548.5C117.902 548.5 108.5 539.098 108.5 527.499Z" stroke="#000000" stroke-width="6.875" stroke-linecap="butt" stroke-linejoin="miter" stroke-miterlimit="8" stroke-opacity="1" fill="#0432FF" fill-rule="evenodd" fill-opacity="1"/><text fill="#FFFFFF" fill-opacity="1" font-family="Calibri,Calibri_MSFontService,sans-serif" font-style="normal" font-variant="normal" font-weight="700" font-stretch="normal" font-size="73" text-anchor="start" direction="ltr" writing-mode="lr-tb" unicode-bidi="normal" text-decoration="none" transform="matrix(1 0 0 1 201.561 510)">SMN1</text><path d="M537.5 588.5C537.5 576.902 546.902 567.5 558.5 567.5L888.5 567.5C900.098 567.5 909.5 576.902 909.5 588.5L909.5 672.5C909.5 684.098 900.098 693.5 888.5 693.5L558.5 693.5C546.902 693.5 537.5 684.098 537.5 672.5Z" stroke="#000000" stroke-width="6.875" stroke-linecap="butt" stroke-linejoin="miter" stroke-miterlimit="8" stroke-dasharray="20.625 6.875" stroke-opacity="1" fill="#FFFFFF" fill-rule="evenodd" fill-opacity="1"/><text fill="#BFBFBF" fill-opacity="1" font-family="Calibri,Calibri_MSFontService,sans-serif" font-style="normal" font-variant="normal" font-weight="700" font-stretch="normal" font-size="73" text-anchor="start" direction="ltr" writing-mode="lr-tb" unicode-bidi="normal" text-decoration="none" transform="matrix(1 0 0 1 630.769 655)">SMN1</text><path d="M966.5 443.5C966.5 431.902 975.902 422.5 987.5 422.5L1317.5 422.5C1329.1 422.5 1338.5 431.902 1338.5 443.5L1338.5 527.499C1338.5 539.098 1329.1 548.5 1317.5 548.5L987.5 548.5C975.902 548.5 966.5 539.098 966.5 527.499Z" stroke="#000000" stroke-width="6.875" stroke-linecap="butt" stroke-linejoin="miter" stroke-miterlimit="8" stroke-dasharray="20.625 6.875" stroke-opacity="1" fill="#FFFFFF" fill-rule="evenodd" fill-opacity="1"/><text fill="#BFBFBF" fill-opacity="1" font-family="Calibri,Calibri_MSFontService,sans-serif" font-style="normal" font-variant="normal" font-weight="700" font-stretch="normal" font-size="73" text-anchor="start" direction="ltr" writing-mode="lr-tb" unicode-bidi="normal" text-decoration="none" transform="matrix(1 0 0 1 1059.51 510)">SMN2</text><path d="M966.5 588.5C966.5 576.902 975.902 567.5 987.5 567.5L1317.5 567.5C1329.1 567.5 1338.5 576.902 1338.5 588.5L1338.5 672.5C1338.5 684.098 1329.1 693.5 1317.5 693.5L987.5 693.5C975.902 693.5 966.5 684.098 966.5 672.5Z" stroke="#000000" stroke-width="6.875" stroke-linecap="butt" stroke-linejoin="miter" stroke-miterlimit="8" stroke-dasharray="20.625 6.875" stroke-opacity="1" fill="#FFFFFF" fill-rule="evenodd" fill-opacity="1"/><text fill="#BFBFBF" fill-opacity="1" font-family="Calibri,Calibri_MSFontService,sans-serif" font-style="normal" font-variant="normal" font-weight="700" font-stretch="normal" font-size="73" text-anchor="start" direction="ltr" writing-mode="lr-tb" unicode-bidi="normal" text-decoration="none" transform="matrix(1 0 0 1 1059.51 655)">SMN2</text><path d="M-320.5 443.5C-320.5 431.902-311.098 422.5-299.5 422.5L30.4998 422.5C42.0979 422.5 51.5 431.902 51.5 443.5L51.5 527.499C51.5 539.098 42.0979 548.5 30.4998 548.5L-299.5 548.5C-311.098 548.5-320.5 539.098-320.5 527.499Z" stroke="#000000" stroke-width="6.875" stroke-linecap="butt" stroke-linejoin="miter" stroke-miterlimit="8" stroke-opacity="1" fill="#0432FF" fill-rule="evenodd" fill-opacity="1"/><text fill="#FFFFFF" fill-opacity="1" font-family="Calibri,Calibri_MSFontService,sans-serif" font-style="normal" font-variant="normal" font-weight="700" font-stretch="normal" font-size="73" text-anchor="start" direction="ltr" writing-mode="lr-tb" unicode-bidi="normal" text-decoration="none" transform="matrix(1 0 0 1 -227.646 510)">SMN1</text></g></svg>