<svg width="1778" height="307" xmlns="http://www.w3.org/2000/svg" xmlns:xlink="http://www.w3.org/1999/xlink" overflow="hidden"><defs><clipPath id="clip0"><rect x="-385" y="1425" width="1778" height="307"/></clipPath></defs><g clip-path="url(#clip0)" transform="translate(385 -1425)"><path d="M1390.43 1644.5-376.5 1644.5" stroke="#000000" stroke-width="9.16667" stroke-linecap="butt" stroke-linejoin="miter" stroke-miterlimit="8" stroke-opacity="1" fill="none" fill-rule="evenodd"/><path d="M1390.43 1497.5-376.5 1497.5" stroke="#000000" stroke-width="9.16667" stroke-linecap="butt" stroke-linejoin="miter" stroke-miterlimit="8" stroke-opacity="1" fill="none" fill-rule="evenodd"/><path d="M537.5 1453.5C537.5 1441.9 546.902 1432.5 558.5 1432.5L888.5 1432.5C900.098 1432.5 909.5 1441.9 909.5 1453.5L909.5 1537.5C909.5 1549.1 900.098 1558.5 888.5 1558.5L558.5 1558.5C546.902 1558.5 537.5 1549.1 537.5 1537.5Z" stroke="#000000" stroke-width="6.875" stroke-linecap="butt" stroke-linejoin="miter" stroke-miterlimit="8" stroke-opacity="1" fill="#0432FF" fill-rule="evenodd" fill-opacity="1"/><text fill="#FFFFFF" fill-opacity="1" font-family="Calibri,Calibri_MSFontService,sans-serif" font-style="normal" font-variant="normal" font-weight="700" font-stretch="normal" font-size="73" text-anchor="start" direction="ltr" writing-mode="lr-tb" unicode-bidi="normal" text-decoration="none" transform="matrix(1 0 0 1 630.769 1520)">SMN1</text><path d="M108.5 1453.5C108.5 1441.9 117.902 1432.5 129.5 1432.5L459.5 1432.5C471.098 1432.5 480.5 1441.9 480.5 1453.5L480.5 1537.5C480.5 1549.1 471.098 1558.5 459.5 1558.5L129.5 1558.5C117.902 1558.5 108.5 1549.1 108.5 1537.5Z" stroke="#000000" stroke-width="6.875" stroke-linecap="butt" stroke-linejoin="miter" stroke-miterlimit="8" stroke-opacity="1" fill="#0432FF" fill-rule="evenodd" fill-opacity="1"/><text fill="#FFFFFF" fill-opacity="1" font-family="Calibri,Calibri_MSFontService,sans-serif" font-style="normal" font-variant="normal" font-weight="700" font-stretch="normal" font-size="73" text-anchor="start" direction="ltr" writing-mode="lr-tb" unicode-bidi="normal" text-decoration="none" transform="matrix(1 0 0 1 201.561 1520)">SMN1</text><path d="M537.5 1598.5C537.5 1586.9 546.902 1577.5 558.5 1577.5L888.5 1577.5C900.098 1577.5 909.5 1586.9 909.5 1598.5L909.5 1682.5C909.5 1694.1 900.098 1703.5 888.5 1703.5L558.5 1703.5C546.902 1703.5 537.5 1694.1 537.5 1682.5Z" stroke="#000000" stroke-width="6.875" stroke-linecap="butt" stroke-linejoin="miter" stroke-miterlimit="8" stroke-dasharray="20.625 6.875" stroke-opacity="1" fill="#FFFFFF" fill-rule="evenodd" fill-opacity="1"/><text fill="#BFBFBF" fill-opacity="1" font-family="Calibri,Calibri_MSFontService,sans-serif" font-style="normal" font-variant="normal" font-weight="700" font-stretch="normal" font-size="73" text-anchor="start" direction="ltr" writing-mode="lr-tb" unicode-bidi="normal" text-decoration="none" transform="matrix(1 0 0 1 630.769 1665)">SMN1</text><path d="M966.5 1453.5C966.5 1441.9 975.902 1432.5 987.5 1432.5L1317.5 1432.5C1329.1 1432.5 1338.5 1441.9 1338.5 1453.5L1338.5 1537.5C1338.5 1549.1 1329.1 1558.5 1317.5 1558.5L987.5 1558.5C975.902 1558.5 966.5 1549.1 966.5 1537.5Z" stroke="#000000" stroke-width="6.875" stroke-linecap="butt" stroke-linejoin="miter" stroke-miterlimit="8" stroke-opacity="1" fill="#76D6FF" fill-rule="evenodd" fill-opacity="1"/><text fill="#000000" fill-opacity="1" font-family="Calibri,Calibri_MSFontService,sans-serif" font-style="normal" font-variant="normal" font-weight="700" font-stretch="normal" font-size="73" text-anchor="start" direction="ltr" writing-mode="lr-tb" unicode-bidi="normal" text-decoration="none" transform="matrix(1 0 0 1 1059.51 1520)">SMN2</text><path d="M966.5 1598.5C966.5 1586.9 975.902 1577.5 987.5 1577.5L1317.5 1577.5C1329.1 1577.5 1338.5 1586.9 1338.5 1598.5L1338.5 1682.5C1338.5 1694.1 1329.1 1703.5 1317.5 1703.5L987.5 1703.5C975.902 1703.5 966.5 1694.1 966.5 1682.5Z" stroke="#000000" stroke-width="6.875" stroke-linecap="butt" stroke-linejoin="miter" stroke-miterlimit="8" stroke-dasharray="20.625 6.875" stroke-opacity="1" fill="#FFFFFF" fill-rule="evenodd" fill-opacity="1"/><text fill="#BFBFBF" fill-opacity="1" font-family="Calibri,Calibri_MSFontService,sans-serif" font-style="normal" font-variant="normal" font-weight="700" font-stretch="normal" font-size="73" text-anchor="start" direction="ltr" writing-mode="lr-tb" unicode-bidi="normal" text-decoration="none" transform="matrix(1 0 0 1 1059.51 1665)">SMN2</text><path d="M-320.5 1453.5C-320.5 1441.9-311.098 1432.5-299.5 1432.5L30.4998 1432.5C42.0979 1432.5 51.5 1441.9 51.5 1453.5L51.5 1537.5C51.5 1549.1 42.0979 1558.5 30.4998 1558.5L-299.5 1558.5C-311.098 1558.5-320.5 1549.1-320.5 1537.5Z" stroke="#000000" stroke-width="6.875" stroke-linecap="butt" stroke-linejoin="miter" stroke-miterlimit="8" stroke-opacity="1" fill="#0432FF" fill-rule="evenodd" fill-opacity="1"/><text fill="#FFFFFF" fill-opacity="1" font-family="Calibri,Calibri_MSFontService,sans-serif" font-style="normal" font-variant="normal" font-weight="700" font-stretch="normal" font-size="73" text-anchor="start" direction="ltr" writing-mode="lr-tb" unicode-bidi="normal" text-decoration="none" transform="matrix(1 0 0 1 -227.646 1520)">SMN1</text></g></svg>