<svg width="1348" height="307" xmlns="http://www.w3.org/2000/svg" xmlns:xlink="http://www.w3.org/1999/xlink" overflow="hidden"><defs><clipPath id="clip0"><rect x="45" y="1086" width="1348" height="307"/></clipPath></defs><g clip-path="url(#clip0)" transform="translate(-45 -1086)"><path d="M1391.69 1306.5 53.5002 1306.5" stroke="#000000" stroke-width="9.16667" stroke-linecap="butt" stroke-linejoin="miter" stroke-miterlimit="8" stroke-opacity="1" fill="none" fill-rule="evenodd"/><path d="M1391.69 1160.5 53.5002 1160.5" stroke="#000000" stroke-width="9.16667" stroke-linecap="butt" stroke-linejoin="miter" stroke-miterlimit="8" stroke-opacity="1" fill="none" fill-rule="evenodd"/><path d="M537.5 1113.5C537.5 1101.9 546.902 1092.5 558.5 1092.5L888.5 1092.5C900.098 1092.5 909.5 1101.9 909.5 1113.5L909.5 1197.5C909.5 1209.1 900.098 1218.5 888.5 1218.5L558.5 1218.5C546.902 1218.5 537.5 1209.1 537.5 1197.5Z" stroke="#000000" stroke-width="6.875" stroke-linecap="butt" stroke-linejoin="miter" stroke-miterlimit="8" stroke-opacity="1" fill="#0432FF" fill-rule="evenodd" fill-opacity="1"/><text fill="#FFFFFF" fill-opacity="1" font-family="Calibri,Calibri_MSFontService,sans-serif" font-style="normal" font-variant="normal" font-weight="700" font-stretch="normal" font-size="73" text-anchor="start" direction="ltr" writing-mode="lr-tb" unicode-bidi="normal" text-decoration="none" transform="matrix(1 0 0 1 630.769 1180)">SMN1</text><path d="M108.5 1113.5C108.5 1101.9 117.902 1092.5 129.5 1092.5L459.5 1092.5C471.098 1092.5 480.5 1101.9 480.5 1113.5L480.5 1197.5C480.5 1209.1 471.098 1218.5 459.5 1218.5L129.5 1218.5C117.902 1218.5 108.5 1209.1 108.5 1197.5Z" stroke="#000000" stroke-width="6.875" stroke-linecap="butt" stroke-linejoin="miter" stroke-miterlimit="8" stroke-opacity="1" fill="#0432FF" fill-rule="evenodd" fill-opacity="1"/><text fill="#FFFFFF" fill-opacity="1" font-family="Calibri,Calibri_MSFontService,sans-serif" font-style="normal" font-variant="normal" font-weight="700" font-stretch="normal" font-size="73" text-anchor="start" direction="ltr" writing-mode="lr-tb" unicode-bidi="normal" text-decoration="none" transform="matrix(1 0 0 1 201.561 1180)">SMN1</text><path d="M537.5 1259.5C537.5 1247.9 546.902 1238.5 558.5 1238.5L888.5 1238.5C900.098 1238.5 909.5 1247.9 909.5 1259.5L909.5 1343.5C909.5 1355.1 900.098 1364.5 888.5 1364.5L558.5 1364.5C546.902 1364.5 537.5 1355.1 537.5 1343.5Z" stroke="#000000" stroke-width="6.875" stroke-linecap="butt" stroke-linejoin="miter" stroke-miterlimit="8" stroke-opacity="1" fill="#0432FF" fill-rule="evenodd" fill-opacity="1"/><text fill="#FFFFFF" fill-opacity="1" font-family="Calibri,Calibri_MSFontService,sans-serif" font-style="normal" font-variant="normal" font-weight="700" font-stretch="normal" font-size="73" text-anchor="start" direction="ltr" writing-mode="lr-tb" unicode-bidi="normal" text-decoration="none" transform="matrix(1 0 0 1 630.769 1326)">SMN1</text><path d="M966.5 1113.5C966.5 1101.9 975.902 1092.5 987.5 1092.5L1317.5 1092.5C1329.1 1092.5 1338.5 1101.9 1338.5 1113.5L1338.5 1197.5C1338.5 1209.1 1329.1 1218.5 1317.5 1218.5L987.5 1218.5C975.902 1218.5 966.5 1209.1 966.5 1197.5Z" stroke="#000000" stroke-width="6.875" stroke-linecap="butt" stroke-linejoin="miter" stroke-miterlimit="8" stroke-dasharray="20.625 6.875" stroke-opacity="1" fill="#FFFFFF" fill-rule="evenodd" fill-opacity="1"/><text fill="#BFBFBF" fill-opacity="1" font-family="Calibri,Calibri_MSFontService,sans-serif" font-style="normal" font-variant="normal" font-weight="700" font-stretch="normal" font-size="73" text-anchor="start" direction="ltr" writing-mode="lr-tb" unicode-bidi="normal" text-decoration="none" transform="matrix(1 0 0 1 1059.51 1180)">SMN2</text><path d="M966.5 1259.5C966.5 1247.9 975.902 1238.5 987.5 1238.5L1317.5 1238.5C1329.1 1238.5 1338.5 1247.9 1338.5 1259.5L1338.5 1343.5C1338.5 1355.1 1329.1 1364.5 1317.5 1364.5L987.5 1364.5C975.902 1364.5 966.5 1355.1 966.5 1343.5Z" stroke="#000000" stroke-width="6.875" stroke-linecap="butt" stroke-linejoin="miter" stroke-miterlimit="8" stroke-opacity="1" fill="#76D6FF" fill-rule="evenodd" fill-opacity="1"/><text fill="#000000" fill-opacity="1" font-family="Calibri,Calibri_MSFontService,sans-serif" font-style="normal" font-variant="normal" font-weight="700" font-stretch="normal" font-size="73" text-anchor="start" direction="ltr" writing-mode="lr-tb" unicode-bidi="normal" text-decoration="none" transform="matrix(1 0 0 1 1059.51 1326)">SMN2</text></g></svg>