<svg width="1778" height="307" xmlns="http://www.w3.org/2000/svg" xmlns:xlink="http://www.w3.org/1999/xlink" overflow="hidden"><defs><clipPath id="clip0"><rect x="-385" y="1760" width="1778" height="307"/></clipPath></defs><g clip-path="url(#clip0)" transform="translate(385 -1760)"><path d="M1390.43 1979.5-376.5 1979.5" stroke="#000000" stroke-width="9.16667" stroke-linecap="butt" stroke-linejoin="miter" stroke-miterlimit="8" stroke-opacity="1" fill="none" fill-rule="evenodd"/><path d="M1390.43 1832.5-376.5 1832.5" stroke="#000000" stroke-width="9.16667" stroke-linecap="butt" stroke-linejoin="miter" stroke-miterlimit="8" stroke-opacity="1" fill="none" fill-rule="evenodd"/><path d="M537.5 1788.5C537.5 1776.9 546.902 1767.5 558.5 1767.5L888.5 1767.5C900.098 1767.5 909.5 1776.9 909.5 1788.5L909.5 1872.5C909.5 1884.1 900.098 1893.5 888.5 1893.5L558.5 1893.5C546.902 1893.5 537.5 1884.1 537.5 1872.5Z" stroke="#000000" stroke-width="6.875" stroke-linecap="butt" stroke-linejoin="miter" stroke-miterlimit="8" stroke-opacity="1" fill="#0432FF" fill-rule="evenodd" fill-opacity="1"/><text fill="#FFFFFF" fill-opacity="1" font-family="Calibri,Calibri_MSFontService,sans-serif" font-style="normal" font-variant="normal" font-weight="700" font-stretch="normal" font-size="73" text-anchor="start" direction="ltr" writing-mode="lr-tb" unicode-bidi="normal" text-decoration="none" transform="matrix(1 0 0 1 630.769 1855)">SMN1</text><path d="M108.5 1788.5C108.5 1776.9 117.902 1767.5 129.5 1767.5L459.5 1767.5C471.098 1767.5 480.5 1776.9 480.5 1788.5L480.5 1872.5C480.5 1884.1 471.098 1893.5 459.5 1893.5L129.5 1893.5C117.902 1893.5 108.5 1884.1 108.5 1872.5Z" stroke="#000000" stroke-width="6.875" stroke-linecap="butt" stroke-linejoin="miter" stroke-miterlimit="8" stroke-opacity="1" fill="#0432FF" fill-rule="evenodd" fill-opacity="1"/><text fill="#FFFFFF" fill-opacity="1" font-family="Calibri,Calibri_MSFontService,sans-serif" font-style="normal" font-variant="normal" font-weight="700" font-stretch="normal" font-size="73" text-anchor="start" direction="ltr" writing-mode="lr-tb" unicode-bidi="normal" text-decoration="none" transform="matrix(1 0 0 1 201.561 1855)">SMN1</text><path d="M537.5 1933.5C537.5 1921.9 546.902 1912.5 558.5 1912.5L888.5 1912.5C900.098 1912.5 909.5 1921.9 909.5 1933.5L909.5 2017.5C909.5 2029.1 900.098 2038.5 888.5 2038.5L558.5 2038.5C546.902 2038.5 537.5 2029.1 537.5 2017.5Z" stroke="#000000" stroke-width="6.875" stroke-linecap="butt" stroke-linejoin="miter" stroke-miterlimit="8" stroke-dasharray="20.625 6.875" stroke-opacity="1" fill="#FFFFFF" fill-rule="evenodd" fill-opacity="1"/><text fill="#BFBFBF" fill-opacity="1" font-family="Calibri,Calibri_MSFontService,sans-serif" font-style="normal" font-variant="normal" font-weight="700" font-stretch="normal" font-size="73" text-anchor="start" direction="ltr" writing-mode="lr-tb" unicode-bidi="normal" text-decoration="none" transform="matrix(1 0 0 1 630.769 2000)">SMN1</text><path d="M966.5 1788.5C966.5 1776.9 975.902 1767.5 987.5 1767.5L1317.5 1767.5C1329.1 1767.5 1338.5 1776.9 1338.5 1788.5L1338.5 1872.5C1338.5 1884.1 1329.1 1893.5 1317.5 1893.5L987.5 1893.5C975.902 1893.5 966.5 1884.1 966.5 1872.5Z" stroke="#000000" stroke-width="6.875" stroke-linecap="butt" stroke-linejoin="miter" stroke-miterlimit="8" stroke-dasharray="20.625 6.875" stroke-opacity="1" fill="#FFFFFF" fill-rule="evenodd" fill-opacity="1"/><text fill="#BFBFBF" fill-opacity="1" font-family="Calibri,Calibri_MSFontService,sans-serif" font-style="normal" font-variant="normal" font-weight="700" font-stretch="normal" font-size="73" text-anchor="start" direction="ltr" writing-mode="lr-tb" unicode-bidi="normal" text-decoration="none" transform="matrix(1 0 0 1 1059.51 1855)">SMN2</text><path d="M966.5 1933.5C966.5 1921.9 975.902 1912.5 987.5 1912.5L1317.5 1912.5C1329.1 1912.5 1338.5 1921.9 1338.5 1933.5L1338.5 2017.5C1338.5 2029.1 1329.1 2038.5 1317.5 2038.5L987.5 2038.5C975.902 2038.5 966.5 2029.1 966.5 2017.5Z" stroke="#000000" stroke-width="6.875" stroke-linecap="butt" stroke-linejoin="miter" stroke-miterlimit="8" stroke-opacity="1" fill="#76D6FF" fill-rule="evenodd" fill-opacity="1"/><text fill="#000000" fill-opacity="1" font-family="Calibri,Calibri_MSFontService,sans-serif" font-style="normal" font-variant="normal" font-weight="700" font-stretch="normal" font-size="73" text-anchor="start" direction="ltr" writing-mode="lr-tb" unicode-bidi="normal" text-decoration="none" transform="matrix(1 0 0 1 1059.51 2000)">SMN2</text><path d="M-320.5 1788.5C-320.5 1776.9-311.098 1767.5-299.5 1767.5L30.4998 1767.5C42.0979 1767.5 51.5 1776.9 51.5 1788.5L51.5 1872.5C51.5 1884.1 42.0979 1893.5 30.4998 1893.5L-299.5 1893.5C-311.098 1893.5-320.5 1884.1-320.5 1872.5Z" stroke="#000000" stroke-width="6.875" stroke-linecap="butt" stroke-linejoin="miter" stroke-miterlimit="8" stroke-opacity="1" fill="#0432FF" fill-rule="evenodd" fill-opacity="1"/><text fill="#FFFFFF" fill-opacity="1" font-family="Calibri,Calibri_MSFontService,sans-serif" font-style="normal" font-variant="normal" font-weight="700" font-stretch="normal" font-size="73" text-anchor="start" direction="ltr" writing-mode="lr-tb" unicode-bidi="normal" text-decoration="none" transform="matrix(1 0 0 1 -227.646 1855)">SMN1</text></g></svg>