<svg width="931" height="307" xmlns="http://www.w3.org/2000/svg" xmlns:xlink="http://www.w3.org/1999/xlink" overflow="hidden"><defs><clipPath id="clip0"><rect x="4" y="623" width="931" height="307"/></clipPath></defs><g clip-path="url(#clip0)" transform="translate(-4 -623)"><path d="M933.941 700.5 11.4998 700.5" stroke="#000000" stroke-width="9.16667" stroke-linecap="butt" stroke-linejoin="miter" stroke-miterlimit="8" stroke-opacity="1" fill="none" fill-rule="evenodd"/><path d="M505.5 649.5C505.5 637.902 514.902 628.5 526.5 628.5L856.5 628.5C868.098 628.5 877.5 637.902 877.5 649.5L877.5 733.499C877.5 745.097 868.098 754.5 856.5 754.5L526.5 754.5C514.902 754.5 505.5 745.097 505.5 733.499Z" stroke="#000000" stroke-width="6.875" stroke-linecap="butt" stroke-linejoin="miter" stroke-miterlimit="8" stroke-opacity="1" fill="#76D6FF" fill-rule="evenodd" fill-opacity="1"/><text fill="#000000" fill-opacity="1" font-family="Calibri,Calibri_MSFontService,sans-serif" font-style="normal" font-variant="normal" font-weight="700" font-stretch="normal" font-size="73" text-anchor="start" direction="ltr" writing-mode="lr-tb" unicode-bidi="normal" text-decoration="none" transform="matrix(1 0 0 1 598.327 716)">SMN2</text><path d="M77.4998 648.5C77.4998 636.902 86.902 627.5 98.5001 627.5L428.5 627.5C440.098 627.5 449.5 636.902 449.5 648.5L449.5 732.499C449.5 744.097 440.098 753.5 428.5 753.5L98.5001 753.5C86.902 753.5 77.4998 744.097 77.4998 732.499Z" stroke="#000000" stroke-width="6.875" stroke-linecap="butt" stroke-linejoin="miter" stroke-miterlimit="8" stroke-dasharray="20.625 6.875" stroke-opacity="1" fill="#FFFFFF" fill-rule="evenodd" fill-opacity="1"/><text fill="#BFBFBF" fill-opacity="1" font-family="Calibri,Calibri_MSFontService,sans-serif" font-style="normal" font-variant="normal" font-weight="700" font-stretch="normal" font-size="73" text-anchor="start" direction="ltr" writing-mode="lr-tb" unicode-bidi="normal" text-decoration="none" transform="matrix(1 0 0 1 170.886 715)">SMN1</text><path d="M933.941 846.5 11.4998 846.501" stroke="#000000" stroke-width="9.16667" stroke-linecap="butt" stroke-linejoin="miter" stroke-miterlimit="8" stroke-opacity="1" fill="none" fill-rule="evenodd"/><path d="M505.5 796.5C505.5 784.902 514.902 775.5 526.5 775.5L856.5 775.5C868.098 775.5 877.5 784.902 877.5 796.5L877.5 880.499C877.5 892.098 868.098 901.5 856.5 901.5L526.5 901.5C514.902 901.5 505.5 892.098 505.5 880.499Z" stroke="#000000" stroke-width="6.875" stroke-linecap="butt" stroke-linejoin="miter" stroke-miterlimit="8" stroke-opacity="1" fill="#76D6FF" fill-rule="evenodd" fill-opacity="1"/><text fill="#000000" fill-opacity="1" font-family="Calibri,Calibri_MSFontService,sans-serif" font-style="normal" font-variant="normal" font-weight="700" font-stretch="normal" font-size="73" text-anchor="start" direction="ltr" writing-mode="lr-tb" unicode-bidi="normal" text-decoration="none" transform="matrix(1 0 0 1 598.327 863)">SMN2</text><path d="M77.4998 795.5C77.4998 783.902 86.902 774.5 98.5001 774.5L428.5 774.5C440.098 774.5 449.5 783.902 449.5 795.5L449.5 879.499C449.5 891.098 440.098 900.5 428.5 900.5L98.5001 900.5C86.902 900.5 77.4998 891.098 77.4998 879.499Z" stroke="#000000" stroke-width="6.875" stroke-linecap="butt" stroke-linejoin="miter" stroke-miterlimit="8" stroke-dasharray="20.625 6.875" stroke-opacity="1" fill="#FFFFFF" fill-rule="evenodd" fill-opacity="1"/><text fill="#BFBFBF" fill-opacity="1" font-family="Calibri,Calibri_MSFontService,sans-serif" font-style="normal" font-variant="normal" font-weight="700" font-stretch="normal" font-size="73" text-anchor="start" direction="ltr" writing-mode="lr-tb" unicode-bidi="normal" text-decoration="none" transform="matrix(1 0 0 1 170.886 862)">SMN1</text></g></svg>