<svg width="1348" height="308" xmlns="http://www.w3.org/2000/svg" xmlns:xlink="http://www.w3.org/1999/xlink" overflow="hidden"><defs><clipPath id="clip0"><rect x="4" y="957" width="1348" height="308"/></clipPath></defs><g clip-path="url(#clip0)" transform="translate(-4 -957)"><path d="M1350.69 1030.5 12.4999 1030.5" stroke="#000000" stroke-width="9.16667" stroke-linecap="butt" stroke-linejoin="miter" stroke-miterlimit="8" stroke-opacity="1" fill="none" fill-rule="evenodd"/><path d="M1350.69 1167.5 12.4999 1167.5" stroke="#000000" stroke-width="9.16667" stroke-linecap="butt" stroke-linejoin="miter" stroke-miterlimit="8" stroke-opacity="1" fill="none" fill-rule="evenodd"/><path d="M505.5 983.5C505.5 971.902 514.902 962.5 526.5 962.5L856.5 962.5C868.098 962.5 877.5 971.902 877.5 983.5L877.5 1067.5C877.5 1079.1 868.098 1088.5 856.5 1088.5L526.5 1088.5C514.902 1088.5 505.5 1079.1 505.5 1067.5Z" stroke="#000000" stroke-width="6.875" stroke-linecap="butt" stroke-linejoin="miter" stroke-miterlimit="8" stroke-opacity="1" fill="#76D6FF" fill-rule="evenodd" fill-opacity="1"/><text fill="#000000" fill-opacity="1" font-family="Calibri,Calibri_MSFontService,sans-serif" font-style="normal" font-variant="normal" font-weight="700" font-stretch="normal" font-size="73" text-anchor="start" direction="ltr" writing-mode="lr-tb" unicode-bidi="normal" text-decoration="none" transform="matrix(1 0 0 1 598.327 1050)">SMN2</text><path d="M934.5 983.5C934.5 971.902 943.902 962.5 955.5 962.5L1285.5 962.5C1297.1 962.5 1306.5 971.902 1306.5 983.5L1306.5 1067.5C1306.5 1079.1 1297.1 1088.5 1285.5 1088.5L955.5 1088.5C943.902 1088.5 934.5 1079.1 934.5 1067.5Z" stroke="#000000" stroke-width="6.875" stroke-linecap="butt" stroke-linejoin="miter" stroke-miterlimit="8" stroke-opacity="1" fill="#76D6FF" fill-rule="evenodd" fill-opacity="1"/><text fill="#000000" fill-opacity="1" font-family="Calibri,Calibri_MSFontService,sans-serif" font-style="normal" font-variant="normal" font-weight="700" font-stretch="normal" font-size="73" text-anchor="start" direction="ltr" writing-mode="lr-tb" unicode-bidi="normal" text-decoration="none" transform="matrix(1 0 0 1 1027.88 1050)">SMN2</text><path d="M77.4998 984.5C77.4998 972.902 86.902 963.5 98.5001 963.5L428.5 963.5C440.098 963.5 449.5 972.902 449.5 984.5L449.5 1068.5C449.5 1080.1 440.098 1089.5 428.5 1089.5L98.5001 1089.5C86.902 1089.5 77.4998 1080.1 77.4998 1068.5Z" stroke="#000000" stroke-width="6.875" stroke-linecap="butt" stroke-linejoin="miter" stroke-miterlimit="8" stroke-dasharray="20.625 6.875" stroke-opacity="1" fill="#FFFFFF" fill-rule="evenodd" fill-opacity="1"/><text fill="#BFBFBF" fill-opacity="1" font-family="Calibri,Calibri_MSFontService,sans-serif" font-style="normal" font-variant="normal" font-weight="700" font-stretch="normal" font-size="73" text-anchor="start" direction="ltr" writing-mode="lr-tb" unicode-bidi="normal" text-decoration="none" transform="matrix(1 0 0 1 170.886 1051)">SMN1</text><path d="M77.4998 1131.5C77.4998 1119.9 86.902 1110.5 98.5001 1110.5L428.5 1110.5C440.098 1110.5 449.5 1119.9 449.5 1131.5L449.5 1215.5C449.5 1227.1 440.098 1236.5 428.5 1236.5L98.5001 1236.5C86.902 1236.5 77.4998 1227.1 77.4998 1215.5Z" stroke="#000000" stroke-width="6.875" stroke-linecap="butt" stroke-linejoin="miter" stroke-miterlimit="8" stroke-dasharray="20.625 6.875" stroke-opacity="1" fill="#FFFFFF" fill-rule="evenodd" fill-opacity="1"/><text fill="#BFBFBF" fill-opacity="1" font-family="Calibri,Calibri_MSFontService,sans-serif" font-style="normal" font-variant="normal" font-weight="700" font-stretch="normal" font-size="73" text-anchor="start" direction="ltr" writing-mode="lr-tb" unicode-bidi="normal" text-decoration="none" transform="matrix(1 0 0 1 170.886 1198)">SMN1</text><path d="M504.5 1132.5C504.5 1120.9 513.902 1111.5 525.5 1111.5L855.5 1111.5C867.098 1111.5 876.5 1120.9 876.5 1132.5L876.5 1216.5C876.5 1228.1 867.098 1237.5 855.5 1237.5L525.5 1237.5C513.902 1237.5 504.5 1228.1 504.5 1216.5Z" stroke="#000000" stroke-width="6.875" stroke-linecap="butt" stroke-linejoin="miter" stroke-miterlimit="8" stroke-dasharray="20.625 6.875" stroke-opacity="1" fill="#FFFFFF" fill-rule="evenodd" fill-opacity="1"/><text fill="#BFBFBF" fill-opacity="1" font-family="Calibri,Calibri_MSFontService,sans-serif" font-style="normal" font-variant="normal" font-weight="700" font-stretch="normal" font-size="73" text-anchor="start" direction="ltr" writing-mode="lr-tb" unicode-bidi="normal" text-decoration="none" transform="matrix(1 0 0 1 597.841 1199)">SMN2</text></g></svg>