<svg width="2217" height="302" xmlns="http://www.w3.org/2000/svg" xmlns:xlink="http://www.w3.org/1999/xlink" overflow="hidden"><defs><clipPath id="clip0"><rect x="-389" y="1375" width="2217" height="302"/></clipPath></defs><g clip-path="url(#clip0)" transform="translate(389 -1375)"><path d="M1825.16 1592.5-383.5 1592.5" stroke="#000000" stroke-width="9.16667" stroke-linecap="butt" stroke-linejoin="miter" stroke-miterlimit="8" stroke-opacity="1" fill="none" fill-rule="evenodd"/><path d="M1825.16 1445.5-383.5 1445.5" stroke="#000000" stroke-width="9.16667" stroke-linecap="butt" stroke-linejoin="miter" stroke-miterlimit="8" stroke-opacity="1" fill="none" fill-rule="evenodd"/><path d="M538.5 1401.5C538.5 1389.9 547.902 1380.5 559.5 1380.5L889.5 1380.5C901.098 1380.5 910.5 1389.9 910.5 1401.5L910.5 1485.5C910.5 1497.1 901.098 1506.5 889.5 1506.5L559.5 1506.5C547.902 1506.5 538.5 1497.1 538.5 1485.5Z" stroke="#000000" stroke-width="6.875" stroke-linecap="butt" stroke-linejoin="miter" stroke-miterlimit="8" stroke-opacity="1" fill="#0432FF" fill-rule="evenodd" fill-opacity="1"/><text fill="#FFFFFF" fill-opacity="1" font-family="Calibri,Calibri_MSFontService,sans-serif" font-style="normal" font-variant="normal" font-weight="700" font-stretch="normal" font-size="73" text-anchor="start" direction="ltr" writing-mode="lr-tb" unicode-bidi="normal" text-decoration="none" transform="matrix(1 0 0 1 631.621 1468)">SMN1</text><path d="M108.5 1401.5C108.5 1389.9 117.902 1380.5 129.5 1380.5L459.5 1380.5C471.098 1380.5 480.5 1389.9 480.5 1401.5L480.5 1485.5C480.5 1497.1 471.098 1506.5 459.5 1506.5L129.5 1506.5C117.902 1506.5 108.5 1497.1 108.5 1485.5Z" stroke="#000000" stroke-width="6.875" stroke-linecap="butt" stroke-linejoin="miter" stroke-miterlimit="8" stroke-opacity="1" fill="#0432FF" fill-rule="evenodd" fill-opacity="1"/><text fill="#FFFFFF" fill-opacity="1" font-family="Calibri,Calibri_MSFontService,sans-serif" font-style="normal" font-variant="normal" font-weight="700" font-stretch="normal" font-size="73" text-anchor="start" direction="ltr" writing-mode="lr-tb" unicode-bidi="normal" text-decoration="none" transform="matrix(1 0 0 1 201.582 1468)">SMN1</text><path d="M538.5 1546.5C538.5 1534.9 547.902 1525.5 559.5 1525.5L889.5 1525.5C901.098 1525.5 910.5 1534.9 910.5 1546.5L910.5 1630.5C910.5 1642.1 901.098 1651.5 889.5 1651.5L559.5 1651.5C547.902 1651.5 538.5 1642.1 538.5 1630.5Z" stroke="#000000" stroke-width="6.875" stroke-linecap="butt" stroke-linejoin="miter" stroke-miterlimit="8" stroke-dasharray="20.625 6.875" stroke-opacity="1" fill="#FFFFFF" fill-rule="evenodd" fill-opacity="1"/><text fill="#BFBFBF" fill-opacity="1" font-family="Calibri,Calibri_MSFontService,sans-serif" font-style="normal" font-variant="normal" font-weight="700" font-stretch="normal" font-size="73" text-anchor="start" direction="ltr" writing-mode="lr-tb" unicode-bidi="normal" text-decoration="none" transform="matrix(1 0 0 1 631.621 1613)">SMN1</text><path d="M967.5 1401.5C967.5 1389.9 976.902 1380.5 988.5 1380.5L1318.5 1380.5C1330.1 1380.5 1339.5 1389.9 1339.5 1401.5L1339.5 1485.5C1339.5 1497.1 1330.1 1506.5 1318.5 1506.5L988.5 1506.5C976.902 1506.5 967.5 1497.1 967.5 1485.5Z" stroke="#000000" stroke-width="6.875" stroke-linecap="butt" stroke-linejoin="miter" stroke-miterlimit="8" stroke-opacity="1" fill="#76D6FF" fill-rule="evenodd" fill-opacity="1"/><text fill="#000000" fill-opacity="1" font-family="Calibri,Calibri_MSFontService,sans-serif" font-style="normal" font-variant="normal" font-weight="700" font-stretch="normal" font-size="73" text-anchor="start" direction="ltr" writing-mode="lr-tb" unicode-bidi="normal" text-decoration="none" transform="matrix(1 0 0 1 1060.36 1468)">SMN2</text><path d="M967.5 1546.5C967.5 1534.9 976.902 1525.5 988.5 1525.5L1318.5 1525.5C1330.1 1525.5 1339.5 1534.9 1339.5 1546.5L1339.5 1630.5C1339.5 1642.1 1330.1 1651.5 1318.5 1651.5L988.5 1651.5C976.902 1651.5 967.5 1642.1 967.5 1630.5Z" stroke="#000000" stroke-width="6.875" stroke-linecap="butt" stroke-linejoin="miter" stroke-miterlimit="8" stroke-opacity="1" fill="#76D6FF" fill-rule="evenodd" fill-opacity="1"/><text fill="#000000" fill-opacity="1" font-family="Calibri,Calibri_MSFontService,sans-serif" font-style="normal" font-variant="normal" font-weight="700" font-stretch="normal" font-size="73" text-anchor="start" direction="ltr" writing-mode="lr-tb" unicode-bidi="normal" text-decoration="none" transform="matrix(1 0 0 1 1060.36 1613)">SMN2</text><path d="M-320.5 1401.5C-320.5 1389.9-311.098 1380.5-299.5 1380.5L30.4998 1380.5C42.0979 1380.5 51.5 1389.9 51.5 1401.5L51.5 1485.5C51.5 1497.1 42.0979 1506.5 30.4998 1506.5L-299.5 1506.5C-311.098 1506.5-320.5 1497.1-320.5 1485.5Z" stroke="#000000" stroke-width="6.875" stroke-linecap="butt" stroke-linejoin="miter" stroke-miterlimit="8" stroke-opacity="1" fill="#0432FF" fill-rule="evenodd" fill-opacity="1"/><text fill="#FFFFFF" fill-opacity="1" font-family="Calibri,Calibri_MSFontService,sans-serif" font-style="normal" font-variant="normal" font-weight="700" font-stretch="normal" font-size="73" text-anchor="start" direction="ltr" writing-mode="lr-tb" unicode-bidi="normal" text-decoration="none" transform="matrix(1 0 0 1 -227.158 1468)">SMN1</text><path d="M1393.5 1401.5C1393.5 1389.9 1402.9 1380.5 1414.5 1380.5L1744.5 1380.5C1756.1 1380.5 1765.5 1389.9 1765.5 1401.5L1765.5 1485.5C1765.5 1497.1 1756.1 1506.5 1744.5 1506.5L1414.5 1506.5C1402.9 1506.5 1393.5 1497.1 1393.5 1485.5Z" stroke="#000000" stroke-width="6.875" stroke-linecap="butt" stroke-linejoin="miter" stroke-miterlimit="8" stroke-opacity="1" fill="#76D6FF" fill-rule="evenodd" fill-opacity="1"/><text fill="#000000" fill-opacity="1" font-family="Calibri,Calibri_MSFontService,sans-serif" font-style="normal" font-variant="normal" font-weight="700" font-stretch="normal" font-size="73" text-anchor="start" direction="ltr" writing-mode="lr-tb" unicode-bidi="normal" text-decoration="none" transform="matrix(1 0 0 1 1486.5 1468)">SMN2</text></g></svg>