<svg width="2218" height="303" xmlns="http://www.w3.org/2000/svg" xmlns:xlink="http://www.w3.org/1999/xlink" overflow="hidden"><defs><clipPath id="clip0"><rect x="32" y="1035" width="2218" height="303"/></clipPath></defs><g clip-path="url(#clip0)" transform="translate(-32 -1035)"><path d="M2249.16 1252.5 40.4998 1252.5" stroke="#000000" stroke-width="9.16667" stroke-linecap="butt" stroke-linejoin="miter" stroke-miterlimit="8" stroke-opacity="1" fill="none" fill-rule="evenodd"/><path d="M2249.16 1105.5 40.4998 1105.5" stroke="#000000" stroke-width="9.16667" stroke-linecap="butt" stroke-linejoin="miter" stroke-miterlimit="8" stroke-opacity="1" fill="none" fill-rule="evenodd"/><path d="M538.5 1062.5C538.5 1050.9 547.902 1041.5 559.5 1041.5L889.5 1041.5C901.098 1041.5 910.5 1050.9 910.5 1062.5L910.5 1146.5C910.5 1158.1 901.098 1167.5 889.5 1167.5L559.5 1167.5C547.902 1167.5 538.5 1158.1 538.5 1146.5Z" stroke="#000000" stroke-width="6.875" stroke-linecap="butt" stroke-linejoin="miter" stroke-miterlimit="8" stroke-opacity="1" fill="#0432FF" fill-rule="evenodd" fill-opacity="1"/><text fill="#FFFFFF" fill-opacity="1" font-family="Calibri,Calibri_MSFontService,sans-serif" font-style="normal" font-variant="normal" font-weight="700" font-stretch="normal" font-size="73" text-anchor="start" direction="ltr" writing-mode="lr-tb" unicode-bidi="normal" text-decoration="none" transform="matrix(1 0 0 1 631.621 1129)">SMN1</text><path d="M108.5 1062.5C108.5 1050.9 117.902 1041.5 129.5 1041.5L459.5 1041.5C471.098 1041.5 480.5 1050.9 480.5 1062.5L480.5 1146.5C480.5 1158.1 471.098 1167.5 459.5 1167.5L129.5 1167.5C117.902 1167.5 108.5 1158.1 108.5 1146.5Z" stroke="#000000" stroke-width="6.875" stroke-linecap="butt" stroke-linejoin="miter" stroke-miterlimit="8" stroke-opacity="1" fill="#0432FF" fill-rule="evenodd" fill-opacity="1"/><text fill="#FFFFFF" fill-opacity="1" font-family="Calibri,Calibri_MSFontService,sans-serif" font-style="normal" font-variant="normal" font-weight="700" font-stretch="normal" font-size="73" text-anchor="start" direction="ltr" writing-mode="lr-tb" unicode-bidi="normal" text-decoration="none" transform="matrix(1 0 0 1 201.582 1129)">SMN1</text><path d="M538.5 1206.5C538.5 1194.9 547.902 1185.5 559.5 1185.5L889.5 1185.5C901.098 1185.5 910.5 1194.9 910.5 1206.5L910.5 1290.5C910.5 1302.1 901.098 1311.5 889.5 1311.5L559.5 1311.5C547.902 1311.5 538.5 1302.1 538.5 1290.5Z" stroke="#000000" stroke-width="6.875" stroke-linecap="butt" stroke-linejoin="miter" stroke-miterlimit="8" stroke-opacity="1" fill="#0432FF" fill-rule="evenodd" fill-opacity="1"/><text fill="#FFFFFF" fill-opacity="1" font-family="Calibri,Calibri_MSFontService,sans-serif" font-style="normal" font-variant="normal" font-weight="700" font-stretch="normal" font-size="73" text-anchor="start" direction="ltr" writing-mode="lr-tb" unicode-bidi="normal" text-decoration="none" transform="matrix(1 0 0 1 631.621 1273)">SMN1</text><path d="M967.5 1062.5C967.5 1050.9 976.902 1041.5 988.5 1041.5L1318.5 1041.5C1330.1 1041.5 1339.5 1050.9 1339.5 1062.5L1339.5 1146.5C1339.5 1158.1 1330.1 1167.5 1318.5 1167.5L988.5 1167.5C976.902 1167.5 967.5 1158.1 967.5 1146.5Z" stroke="#000000" stroke-width="6.875" stroke-linecap="butt" stroke-linejoin="miter" stroke-miterlimit="8" stroke-dasharray="20.625 6.875" stroke-opacity="1" fill="#FFFFFF" fill-rule="evenodd" fill-opacity="1"/><text fill="#BFBFBF" fill-opacity="1" font-family="Calibri,Calibri_MSFontService,sans-serif" font-style="normal" font-variant="normal" font-weight="700" font-stretch="normal" font-size="73" text-anchor="start" direction="ltr" writing-mode="lr-tb" unicode-bidi="normal" text-decoration="none" transform="matrix(1 0 0 1 1060.36 1129)">SMN2</text><path d="M967.5 1206.5C967.5 1194.9 976.902 1185.5 988.5 1185.5L1318.5 1185.5C1330.1 1185.5 1339.5 1194.9 1339.5 1206.5L1339.5 1290.5C1339.5 1302.1 1330.1 1311.5 1318.5 1311.5L988.5 1311.5C976.902 1311.5 967.5 1302.1 967.5 1290.5Z" stroke="#000000" stroke-width="6.875" stroke-linecap="butt" stroke-linejoin="miter" stroke-miterlimit="8" stroke-opacity="1" fill="#76D6FF" fill-rule="evenodd" fill-opacity="1"/><text fill="#000000" fill-opacity="1" font-family="Calibri,Calibri_MSFontService,sans-serif" font-style="normal" font-variant="normal" font-weight="700" font-stretch="normal" font-size="73" text-anchor="start" direction="ltr" writing-mode="lr-tb" unicode-bidi="normal" text-decoration="none" transform="matrix(1 0 0 1 1060.36 1273)">SMN2</text><path d="M1393.5 1206.5C1393.5 1194.9 1402.9 1185.5 1414.5 1185.5L1744.5 1185.5C1756.1 1185.5 1765.5 1194.9 1765.5 1206.5L1765.5 1290.5C1765.5 1302.1 1756.1 1311.5 1744.5 1311.5L1414.5 1311.5C1402.9 1311.5 1393.5 1302.1 1393.5 1290.5Z" stroke="#000000" stroke-width="6.875" stroke-linecap="butt" stroke-linejoin="miter" stroke-miterlimit="8" stroke-opacity="1" fill="#76D6FF" fill-rule="evenodd" fill-opacity="1"/><text fill="#000000" fill-opacity="1" font-family="Calibri,Calibri_MSFontService,sans-serif" font-style="normal" font-variant="normal" font-weight="700" font-stretch="normal" font-size="73" text-anchor="start" direction="ltr" writing-mode="lr-tb" unicode-bidi="normal" text-decoration="none" transform="matrix(1 0 0 1 1486.5 1273)">SMN2</text><path d="M1821.5 1206.5C1821.5 1194.9 1830.9 1185.5 1842.5 1185.5L2172.5 1185.5C2184.1 1185.5 2193.5 1194.9 2193.5 1206.5L2193.5 1290.5C2193.5 1302.1 2184.1 1311.5 2172.5 1311.5L1842.5 1311.5C1830.9 1311.5 1821.5 1302.1 1821.5 1290.5Z" stroke="#000000" stroke-width="6.875" stroke-linecap="butt" stroke-linejoin="miter" stroke-miterlimit="8" stroke-opacity="1" fill="#76D6FF" fill-rule="evenodd" fill-opacity="1"/><text fill="#000000" fill-opacity="1" font-family="Calibri,Calibri_MSFontService,sans-serif" font-style="normal" font-variant="normal" font-weight="700" font-stretch="normal" font-size="73" text-anchor="start" direction="ltr" writing-mode="lr-tb" unicode-bidi="normal" text-decoration="none" transform="matrix(1 0 0 1 1915.24 1273)">SMN2</text></g></svg>