<svg width="1779" height="302" xmlns="http://www.w3.org/2000/svg" xmlns:xlink="http://www.w3.org/1999/xlink" overflow="hidden"><defs><clipPath id="clip0"><rect x="45" y="18" width="1779" height="302"/></clipPath></defs><g clip-path="url(#clip0)" transform="translate(-45 -18)"><path d="M1819.43 235.5 52.5001 235.5" stroke="#000000" stroke-width="9.16667" stroke-linecap="butt" stroke-linejoin="miter" stroke-miterlimit="8" stroke-opacity="1" fill="none" fill-rule="evenodd"/><path d="M1819.43 88.4998 52.5001 88.5002" stroke="#000000" stroke-width="9.16667" stroke-linecap="butt" stroke-linejoin="miter" stroke-miterlimit="8" stroke-opacity="1" fill="none" fill-rule="evenodd"/><path d="M538.5 45.5002C538.5 33.9021 547.902 24.4999 559.5 24.4999L889.5 24.4999C901.098 24.4999 910.5 33.9021 910.5 45.5002L910.5 129.499C910.5 141.098 901.098 150.5 889.5 150.5L559.5 150.5C547.902 150.5 538.5 141.098 538.5 129.499Z" stroke="#000000" stroke-width="6.875" stroke-linecap="butt" stroke-linejoin="miter" stroke-miterlimit="8" stroke-opacity="1" fill="#0432FF" fill-rule="evenodd" fill-opacity="1"/><text fill="#FFFFFF" fill-opacity="1" font-family="Calibri,Calibri_MSFontService,sans-serif" font-style="normal" font-variant="normal" font-weight="700" font-stretch="normal" font-size="73" text-anchor="start" direction="ltr" writing-mode="lr-tb" unicode-bidi="normal" text-decoration="none" transform="matrix(1 0 0 1 631.621 112)">SMN1</text><path d="M108.5 45.5002C108.5 33.9021 117.902 24.4999 129.5 24.4999L459.5 24.4999C471.098 24.4999 480.5 33.9021 480.5 45.5002L480.5 129.499C480.5 141.098 471.098 150.5 459.5 150.5L129.5 150.5C117.902 150.5 108.5 141.098 108.5 129.499Z" stroke="#000000" stroke-width="6.875" stroke-linecap="butt" stroke-linejoin="miter" stroke-miterlimit="8" stroke-opacity="1" fill="#0432FF" fill-rule="evenodd" fill-opacity="1"/><text fill="#FFFFFF" fill-opacity="1" font-family="Calibri,Calibri_MSFontService,sans-serif" font-style="normal" font-variant="normal" font-weight="700" font-stretch="normal" font-size="73" text-anchor="start" direction="ltr" writing-mode="lr-tb" unicode-bidi="normal" text-decoration="none" transform="matrix(1 0 0 1 201.582 112)">SMN1</text><path d="M538.5 189.5C538.5 177.902 547.902 168.5 559.5 168.5L889.5 168.5C901.098 168.5 910.5 177.902 910.5 189.5L910.5 273.499C910.5 285.098 901.098 294.5 889.5 294.5L559.5 294.5C547.902 294.5 538.5 285.098 538.5 273.499Z" stroke="#000000" stroke-width="6.875" stroke-linecap="butt" stroke-linejoin="miter" stroke-miterlimit="8" stroke-opacity="1" fill="#0432FF" fill-rule="evenodd" fill-opacity="1"/><text fill="#FFFFFF" fill-opacity="1" font-family="Calibri,Calibri_MSFontService,sans-serif" font-style="normal" font-variant="normal" font-weight="700" font-stretch="normal" font-size="73" text-anchor="start" direction="ltr" writing-mode="lr-tb" unicode-bidi="normal" text-decoration="none" transform="matrix(1 0 0 1 631.621 256)">SMN1</text><path d="M967.5 45.5002C967.5 33.9021 976.902 24.4999 988.5 24.4999L1318.5 24.4999C1330.1 24.4999 1339.5 33.9021 1339.5 45.5002L1339.5 129.499C1339.5 141.098 1330.1 150.5 1318.5 150.5L988.5 150.5C976.902 150.5 967.5 141.098 967.5 129.499Z" stroke="#000000" stroke-width="6.875" stroke-linecap="butt" stroke-linejoin="miter" stroke-miterlimit="8" stroke-opacity="1" fill="#76D6FF" fill-rule="evenodd" fill-opacity="1"/><text fill="#000000" fill-opacity="1" font-family="Calibri,Calibri_MSFontService,sans-serif" font-style="normal" font-variant="normal" font-weight="700" font-stretch="normal" font-size="73" text-anchor="start" direction="ltr" writing-mode="lr-tb" unicode-bidi="normal" text-decoration="none" transform="matrix(1 0 0 1 1060.36 112)">SMN2</text><path d="M967.5 189.5C967.5 177.902 976.902 168.5 988.5 168.5L1318.5 168.5C1330.1 168.5 1339.5 177.902 1339.5 189.5L1339.5 273.499C1339.5 285.098 1330.1 294.5 1318.5 294.5L988.5 294.5C976.902 294.5 967.5 285.098 967.5 273.499Z" stroke="#000000" stroke-width="6.875" stroke-linecap="butt" stroke-linejoin="miter" stroke-miterlimit="8" stroke-opacity="1" fill="#76D6FF" fill-rule="evenodd" fill-opacity="1"/><text fill="#000000" fill-opacity="1" font-family="Calibri,Calibri_MSFontService,sans-serif" font-style="normal" font-variant="normal" font-weight="700" font-stretch="normal" font-size="73" text-anchor="start" direction="ltr" writing-mode="lr-tb" unicode-bidi="normal" text-decoration="none" transform="matrix(1 0 0 1 1060.36 256)">SMN2</text><path d="M1393.5 45.5002C1393.5 33.9021 1402.9 24.4999 1414.5 24.4999L1744.5 24.4999C1756.1 24.4999 1765.5 33.9021 1765.5 45.5002L1765.5 129.499C1765.5 141.098 1756.1 150.5 1744.5 150.5L1414.5 150.5C1402.9 150.5 1393.5 141.098 1393.5 129.499Z" stroke="#000000" stroke-width="6.875" stroke-linecap="butt" stroke-linejoin="miter" stroke-miterlimit="8" stroke-opacity="1" fill="#76D6FF" fill-rule="evenodd" fill-opacity="1"/><text fill="#000000" fill-opacity="1" font-family="Calibri,Calibri_MSFontService,sans-serif" font-style="normal" font-variant="normal" font-weight="700" font-stretch="normal" font-size="73" text-anchor="start" direction="ltr" writing-mode="lr-tb" unicode-bidi="normal" text-decoration="none" transform="matrix(1 0 0 1 1486.5 112)">SMN2</text></g></svg>