<svg width="2649" height="303" xmlns="http://www.w3.org/2000/svg" xmlns:xlink="http://www.w3.org/1999/xlink" overflow="hidden"><defs><clipPath id="clip0"><rect x="-394" y="2048" width="2649" height="303"/></clipPath></defs><g clip-path="url(#clip0)" transform="translate(394 -2048)"><path d="M2250.9 2266.5-386.5 2266.5" stroke="#000000" stroke-width="9.16667" stroke-linecap="butt" stroke-linejoin="miter" stroke-miterlimit="8" stroke-opacity="1" fill="none" fill-rule="evenodd"/><path d="M2250.9 2119.5-386.5 2119.5" stroke="#000000" stroke-width="9.16667" stroke-linecap="butt" stroke-linejoin="miter" stroke-miterlimit="8" stroke-opacity="1" fill="none" fill-rule="evenodd"/><path d="M538.5 2075.5C538.5 2063.9 547.902 2054.5 559.5 2054.5L889.5 2054.5C901.098 2054.5 910.5 2063.9 910.5 2075.5L910.5 2159.5C910.5 2171.1 901.098 2180.5 889.5 2180.5L559.5 2180.5C547.902 2180.5 538.5 2171.1 538.5 2159.5Z" stroke="#000000" stroke-width="6.875" stroke-linecap="butt" stroke-linejoin="miter" stroke-miterlimit="8" stroke-opacity="1" fill="#0432FF" fill-rule="evenodd" fill-opacity="1"/><text fill="#FFFFFF" fill-opacity="1" font-family="Calibri,Calibri_MSFontService,sans-serif" font-style="normal" font-variant="normal" font-weight="700" font-stretch="normal" font-size="73" text-anchor="start" direction="ltr" writing-mode="lr-tb" unicode-bidi="normal" text-decoration="none" transform="matrix(1 0 0 1 631.621 2142)">SMN1</text><path d="M108.5 2075.5C108.5 2063.9 117.902 2054.5 129.5 2054.5L459.5 2054.5C471.098 2054.5 480.5 2063.9 480.5 2075.5L480.5 2159.5C480.5 2171.1 471.098 2180.5 459.5 2180.5L129.5 2180.5C117.902 2180.5 108.5 2171.1 108.5 2159.5Z" stroke="#000000" stroke-width="6.875" stroke-linecap="butt" stroke-linejoin="miter" stroke-miterlimit="8" stroke-opacity="1" fill="#0432FF" fill-rule="evenodd" fill-opacity="1"/><text fill="#FFFFFF" fill-opacity="1" font-family="Calibri,Calibri_MSFontService,sans-serif" font-style="normal" font-variant="normal" font-weight="700" font-stretch="normal" font-size="73" text-anchor="start" direction="ltr" writing-mode="lr-tb" unicode-bidi="normal" text-decoration="none" transform="matrix(1 0 0 1 201.582 2142)">SMN1</text><path d="M538.5 2220.5C538.5 2208.9 547.902 2199.5 559.5 2199.5L889.5 2199.5C901.098 2199.5 910.5 2208.9 910.5 2220.5L910.5 2304.5C910.5 2316.1 901.098 2325.5 889.5 2325.5L559.5 2325.5C547.902 2325.5 538.5 2316.1 538.5 2304.5Z" stroke="#000000" stroke-width="6.875" stroke-linecap="butt" stroke-linejoin="miter" stroke-miterlimit="8" stroke-dasharray="20.625 6.875" stroke-opacity="1" fill="#FFFFFF" fill-rule="evenodd" fill-opacity="1"/><text fill="#BFBFBF" fill-opacity="1" font-family="Calibri,Calibri_MSFontService,sans-serif" font-style="normal" font-variant="normal" font-weight="700" font-stretch="normal" font-size="73" text-anchor="start" direction="ltr" writing-mode="lr-tb" unicode-bidi="normal" text-decoration="none" transform="matrix(1 0 0 1 631.621 2287)">SMN1</text><path d="M967.5 2075.5C967.5 2063.9 976.902 2054.5 988.5 2054.5L1318.5 2054.5C1330.1 2054.5 1339.5 2063.9 1339.5 2075.5L1339.5 2159.5C1339.5 2171.1 1330.1 2180.5 1318.5 2180.5L988.5 2180.5C976.902 2180.5 967.5 2171.1 967.5 2159.5Z" stroke="#000000" stroke-width="6.875" stroke-linecap="butt" stroke-linejoin="miter" stroke-miterlimit="8" stroke-opacity="1" fill="#76D6FF" fill-rule="evenodd" fill-opacity="1"/><text fill="#000000" fill-opacity="1" font-family="Calibri,Calibri_MSFontService,sans-serif" font-style="normal" font-variant="normal" font-weight="700" font-stretch="normal" font-size="73" text-anchor="start" direction="ltr" writing-mode="lr-tb" unicode-bidi="normal" text-decoration="none" transform="matrix(1 0 0 1 1060.36 2142)">SMN2</text><path d="M967.5 2220.5C967.5 2208.9 976.902 2199.5 988.5 2199.5L1318.5 2199.5C1330.1 2199.5 1339.5 2208.9 1339.5 2220.5L1339.5 2304.5C1339.5 2316.1 1330.1 2325.5 1318.5 2325.5L988.5 2325.5C976.902 2325.5 967.5 2316.1 967.5 2304.5Z" stroke="#000000" stroke-width="6.875" stroke-linecap="butt" stroke-linejoin="miter" stroke-miterlimit="8" stroke-dasharray="20.625 6.875" stroke-opacity="1" fill="#FFFFFF" fill-rule="evenodd" fill-opacity="1"/><text fill="#BFBFBF" fill-opacity="1" font-family="Calibri,Calibri_MSFontService,sans-serif" font-style="normal" font-variant="normal" font-weight="700" font-stretch="normal" font-size="73" text-anchor="start" direction="ltr" writing-mode="lr-tb" unicode-bidi="normal" text-decoration="none" transform="matrix(1 0 0 1 1060.36 2287)">SMN2</text><path d="M-320.5 2075.5C-320.5 2063.9-311.098 2054.5-299.5 2054.5L30.4998 2054.5C42.0979 2054.5 51.5 2063.9 51.5 2075.5L51.5 2159.5C51.5 2171.1 42.0979 2180.5 30.4998 2180.5L-299.5 2180.5C-311.098 2180.5-320.5 2171.1-320.5 2159.5Z" stroke="#000000" stroke-width="6.875" stroke-linecap="butt" stroke-linejoin="miter" stroke-miterlimit="8" stroke-opacity="1" fill="#0432FF" fill-rule="evenodd" fill-opacity="1"/><text fill="#FFFFFF" fill-opacity="1" font-family="Calibri,Calibri_MSFontService,sans-serif" font-style="normal" font-variant="normal" font-weight="700" font-stretch="normal" font-size="73" text-anchor="start" direction="ltr" writing-mode="lr-tb" unicode-bidi="normal" text-decoration="none" transform="matrix(1 0 0 1 -227.158 2142)">SMN1</text><path d="M1393.5 2075.5C1393.5 2063.9 1402.9 2054.5 1414.5 2054.5L1744.5 2054.5C1756.1 2054.5 1765.5 2063.9 1765.5 2075.5L1765.5 2159.5C1765.5 2171.1 1756.1 2180.5 1744.5 2180.5L1414.5 2180.5C1402.9 2180.5 1393.5 2171.1 1393.5 2159.5Z" stroke="#000000" stroke-width="6.875" stroke-linecap="butt" stroke-linejoin="miter" stroke-miterlimit="8" stroke-opacity="1" fill="#76D6FF" fill-rule="evenodd" fill-opacity="1"/><text fill="#000000" fill-opacity="1" font-family="Calibri,Calibri_MSFontService,sans-serif" font-style="normal" font-variant="normal" font-weight="700" font-stretch="normal" font-size="73" text-anchor="start" direction="ltr" writing-mode="lr-tb" unicode-bidi="normal" text-decoration="none" transform="matrix(1 0 0 1 1486.5 2142)">SMN2</text><path d="M1821.5 2075.5C1821.5 2063.9 1830.9 2054.5 1842.5 2054.5L2172.5 2054.5C2184.1 2054.5 2193.5 2063.9 2193.5 2075.5L2193.5 2159.5C2193.5 2171.1 2184.1 2180.5 2172.5 2180.5L1842.5 2180.5C1830.9 2180.5 1821.5 2171.1 1821.5 2159.5Z" stroke="#000000" stroke-width="6.875" stroke-linecap="butt" stroke-linejoin="miter" stroke-miterlimit="8" stroke-opacity="1" fill="#76D6FF" fill-rule="evenodd" fill-opacity="1"/><text fill="#000000" fill-opacity="1" font-family="Calibri,Calibri_MSFontService,sans-serif" font-style="normal" font-variant="normal" font-weight="700" font-stretch="normal" font-size="73" text-anchor="start" direction="ltr" writing-mode="lr-tb" unicode-bidi="normal" text-decoration="none" transform="matrix(1 0 0 1 1915.24 2142)">SMN2</text></g></svg>