<svg width="2217" height="303" xmlns="http://www.w3.org/2000/svg" xmlns:xlink="http://www.w3.org/1999/xlink" overflow="hidden"><defs><clipPath id="clip0"><rect x="-389" y="1709" width="2217" height="303"/></clipPath></defs><g clip-path="url(#clip0)" transform="translate(389 -1709)"><path d="M1825.16 1928.5-383.5 1928.5" stroke="#000000" stroke-width="9.16667" stroke-linecap="butt" stroke-linejoin="miter" stroke-miterlimit="8" stroke-opacity="1" fill="none" fill-rule="evenodd"/><path d="M1825.16 1781.5-383.5 1781.5" stroke="#000000" stroke-width="9.16667" stroke-linecap="butt" stroke-linejoin="miter" stroke-miterlimit="8" stroke-opacity="1" fill="none" fill-rule="evenodd"/><path d="M538.5 1737.5C538.5 1725.9 547.902 1716.5 559.5 1716.5L889.5 1716.5C901.098 1716.5 910.5 1725.9 910.5 1737.5L910.5 1821.5C910.5 1833.1 901.098 1842.5 889.5 1842.5L559.5 1842.5C547.902 1842.5 538.5 1833.1 538.5 1821.5Z" stroke="#000000" stroke-width="6.875" stroke-linecap="butt" stroke-linejoin="miter" stroke-miterlimit="8" stroke-opacity="1" fill="#0432FF" fill-rule="evenodd" fill-opacity="1"/><text fill="#FFFFFF" fill-opacity="1" font-family="Calibri,Calibri_MSFontService,sans-serif" font-style="normal" font-variant="normal" font-weight="700" font-stretch="normal" font-size="73" text-anchor="start" direction="ltr" writing-mode="lr-tb" unicode-bidi="normal" text-decoration="none" transform="matrix(1 0 0 1 631.621 1804)">SMN1</text><path d="M108.5 1737.5C108.5 1725.9 117.902 1716.5 129.5 1716.5L459.5 1716.5C471.098 1716.5 480.5 1725.9 480.5 1737.5L480.5 1821.5C480.5 1833.1 471.098 1842.5 459.5 1842.5L129.5 1842.5C117.902 1842.5 108.5 1833.1 108.5 1821.5Z" stroke="#000000" stroke-width="6.875" stroke-linecap="butt" stroke-linejoin="miter" stroke-miterlimit="8" stroke-opacity="1" fill="#0432FF" fill-rule="evenodd" fill-opacity="1"/><text fill="#FFFFFF" fill-opacity="1" font-family="Calibri,Calibri_MSFontService,sans-serif" font-style="normal" font-variant="normal" font-weight="700" font-stretch="normal" font-size="73" text-anchor="start" direction="ltr" writing-mode="lr-tb" unicode-bidi="normal" text-decoration="none" transform="matrix(1 0 0 1 201.582 1804)">SMN1</text><path d="M538.5 1882.5C538.5 1870.9 547.902 1861.5 559.5 1861.5L889.5 1861.5C901.098 1861.5 910.5 1870.9 910.5 1882.5L910.5 1966.5C910.5 1978.1 901.098 1987.5 889.5 1987.5L559.5 1987.5C547.902 1987.5 538.5 1978.1 538.5 1966.5Z" stroke="#000000" stroke-width="6.875" stroke-linecap="butt" stroke-linejoin="miter" stroke-miterlimit="8" stroke-dasharray="20.625 6.875" stroke-opacity="1" fill="#FFFFFF" fill-rule="evenodd" fill-opacity="1"/><text fill="#BFBFBF" fill-opacity="1" font-family="Calibri,Calibri_MSFontService,sans-serif" font-style="normal" font-variant="normal" font-weight="700" font-stretch="normal" font-size="73" text-anchor="start" direction="ltr" writing-mode="lr-tb" unicode-bidi="normal" text-decoration="none" transform="matrix(1 0 0 1 631.621 1949)">SMN1</text><path d="M967.5 1737.5C967.5 1725.9 976.902 1716.5 988.5 1716.5L1318.5 1716.5C1330.1 1716.5 1339.5 1725.9 1339.5 1737.5L1339.5 1821.5C1339.5 1833.1 1330.1 1842.5 1318.5 1842.5L988.5 1842.5C976.902 1842.5 967.5 1833.1 967.5 1821.5Z" stroke="#000000" stroke-width="6.875" stroke-linecap="butt" stroke-linejoin="miter" stroke-miterlimit="8" stroke-opacity="1" fill="#76D6FF" fill-rule="evenodd" fill-opacity="1"/><text fill="#000000" fill-opacity="1" font-family="Calibri,Calibri_MSFontService,sans-serif" font-style="normal" font-variant="normal" font-weight="700" font-stretch="normal" font-size="73" text-anchor="start" direction="ltr" writing-mode="lr-tb" unicode-bidi="normal" text-decoration="none" transform="matrix(1 0 0 1 1060.36 1804)">SMN2</text><path d="M967.5 1882.5C967.5 1870.9 976.902 1861.5 988.5 1861.5L1318.5 1861.5C1330.1 1861.5 1339.5 1870.9 1339.5 1882.5L1339.5 1966.5C1339.5 1978.1 1330.1 1987.5 1318.5 1987.5L988.5 1987.5C976.902 1987.5 967.5 1978.1 967.5 1966.5Z" stroke="#000000" stroke-width="6.875" stroke-linecap="butt" stroke-linejoin="miter" stroke-miterlimit="8" stroke-opacity="1" fill="#76D6FF" fill-rule="evenodd" fill-opacity="1"/><text fill="#000000" fill-opacity="1" font-family="Calibri,Calibri_MSFontService,sans-serif" font-style="normal" font-variant="normal" font-weight="700" font-stretch="normal" font-size="73" text-anchor="start" direction="ltr" writing-mode="lr-tb" unicode-bidi="normal" text-decoration="none" transform="matrix(1 0 0 1 1060.36 1949)">SMN2</text><path d="M-320.5 1737.5C-320.5 1725.9-311.098 1716.5-299.5 1716.5L30.4998 1716.5C42.0979 1716.5 51.5 1725.9 51.5 1737.5L51.5 1821.5C51.5 1833.1 42.0979 1842.5 30.4998 1842.5L-299.5 1842.5C-311.098 1842.5-320.5 1833.1-320.5 1821.5Z" stroke="#000000" stroke-width="6.875" stroke-linecap="butt" stroke-linejoin="miter" stroke-miterlimit="8" stroke-opacity="1" fill="#0432FF" fill-rule="evenodd" fill-opacity="1"/><text fill="#FFFFFF" fill-opacity="1" font-family="Calibri,Calibri_MSFontService,sans-serif" font-style="normal" font-variant="normal" font-weight="700" font-stretch="normal" font-size="73" text-anchor="start" direction="ltr" writing-mode="lr-tb" unicode-bidi="normal" text-decoration="none" transform="matrix(1 0 0 1 -227.158 1804)">SMN1</text><path d="M1393.5 1882.5C1393.5 1870.9 1402.9 1861.5 1414.5 1861.5L1744.5 1861.5C1756.1 1861.5 1765.5 1870.9 1765.5 1882.5L1765.5 1966.5C1765.5 1978.1 1756.1 1987.5 1744.5 1987.5L1414.5 1987.5C1402.9 1987.5 1393.5 1978.1 1393.5 1966.5Z" stroke="#000000" stroke-width="6.875" stroke-linecap="butt" stroke-linejoin="miter" stroke-miterlimit="8" stroke-opacity="1" fill="#76D6FF" fill-rule="evenodd" fill-opacity="1"/><text fill="#000000" fill-opacity="1" font-family="Calibri,Calibri_MSFontService,sans-serif" font-style="normal" font-variant="normal" font-weight="700" font-stretch="normal" font-size="73" text-anchor="start" direction="ltr" writing-mode="lr-tb" unicode-bidi="normal" text-decoration="none" transform="matrix(1 0 0 1 1486.5 1949)">SMN2</text></g></svg>