<svg width="1779" height="303" xmlns="http://www.w3.org/2000/svg" xmlns:xlink="http://www.w3.org/1999/xlink" overflow="hidden"><defs><clipPath id="clip0"><rect x="45" y="357" width="1779" height="303"/></clipPath></defs><g clip-path="url(#clip0)" transform="translate(-45 -357)"><path d="M1819.43 574.5 52.5001 574.5" stroke="#000000" stroke-width="9.16667" stroke-linecap="butt" stroke-linejoin="miter" stroke-miterlimit="8" stroke-opacity="1" fill="none" fill-rule="evenodd"/><path d="M1819.43 427.5 52.5001 427.5" stroke="#000000" stroke-width="9.16667" stroke-linecap="butt" stroke-linejoin="miter" stroke-miterlimit="8" stroke-opacity="1" fill="none" fill-rule="evenodd"/><path d="M538.5 383.5C538.5 371.902 547.902 362.5 559.5 362.5L889.5 362.5C901.098 362.5 910.5 371.902 910.5 383.5L910.5 467.5C910.5 479.098 901.098 488.5 889.5 488.5L559.5 488.5C547.902 488.5 538.5 479.098 538.5 467.5Z" stroke="#000000" stroke-width="6.875" stroke-linecap="butt" stroke-linejoin="miter" stroke-miterlimit="8" stroke-opacity="1" fill="#0432FF" fill-rule="evenodd" fill-opacity="1"/><text fill="#FFFFFF" fill-opacity="1" font-family="Calibri,Calibri_MSFontService,sans-serif" font-style="normal" font-variant="normal" font-weight="700" font-stretch="normal" font-size="73" text-anchor="start" direction="ltr" writing-mode="lr-tb" unicode-bidi="normal" text-decoration="none" transform="matrix(1 0 0 1 631.621 450)">SMN1</text><path d="M108.5 383.5C108.5 371.902 117.902 362.5 129.5 362.5L459.5 362.5C471.098 362.5 480.5 371.902 480.5 383.5L480.5 467.5C480.5 479.098 471.098 488.5 459.5 488.5L129.5 488.5C117.902 488.5 108.5 479.098 108.5 467.5Z" stroke="#000000" stroke-width="6.875" stroke-linecap="butt" stroke-linejoin="miter" stroke-miterlimit="8" stroke-opacity="1" fill="#0432FF" fill-rule="evenodd" fill-opacity="1"/><text fill="#FFFFFF" fill-opacity="1" font-family="Calibri,Calibri_MSFontService,sans-serif" font-style="normal" font-variant="normal" font-weight="700" font-stretch="normal" font-size="73" text-anchor="start" direction="ltr" writing-mode="lr-tb" unicode-bidi="normal" text-decoration="none" transform="matrix(1 0 0 1 201.582 450)">SMN1</text><path d="M538.5 528.5C538.5 516.902 547.902 507.5 559.5 507.5L889.5 507.5C901.098 507.5 910.5 516.902 910.5 528.5L910.5 612.499C910.5 624.097 901.098 633.5 889.5 633.5L559.5 633.5C547.902 633.5 538.5 624.097 538.5 612.499Z" stroke="#000000" stroke-width="6.875" stroke-linecap="butt" stroke-linejoin="miter" stroke-miterlimit="8" stroke-opacity="1" fill="#0432FF" fill-rule="evenodd" fill-opacity="1"/><text fill="#FFFFFF" fill-opacity="1" font-family="Calibri,Calibri_MSFontService,sans-serif" font-style="normal" font-variant="normal" font-weight="700" font-stretch="normal" font-size="73" text-anchor="start" direction="ltr" writing-mode="lr-tb" unicode-bidi="normal" text-decoration="none" transform="matrix(1 0 0 1 631.621 595)">SMN1</text><path d="M967.5 383.5C967.5 371.902 976.902 362.5 988.5 362.5L1318.5 362.5C1330.1 362.5 1339.5 371.902 1339.5 383.5L1339.5 467.5C1339.5 479.098 1330.1 488.5 1318.5 488.5L988.5 488.5C976.902 488.5 967.5 479.098 967.5 467.5Z" stroke="#000000" stroke-width="6.875" stroke-linecap="butt" stroke-linejoin="miter" stroke-miterlimit="8" stroke-opacity="1" fill="#76D6FF" fill-rule="evenodd" fill-opacity="1"/><text fill="#000000" fill-opacity="1" font-family="Calibri,Calibri_MSFontService,sans-serif" font-style="normal" font-variant="normal" font-weight="700" font-stretch="normal" font-size="73" text-anchor="start" direction="ltr" writing-mode="lr-tb" unicode-bidi="normal" text-decoration="none" transform="matrix(1 0 0 1 1060.36 450)">SMN2</text><path d="M967.5 528.5C967.5 516.902 976.902 507.5 988.5 507.5L1318.5 507.5C1330.1 507.5 1339.5 516.902 1339.5 528.5L1339.5 612.499C1339.5 624.097 1330.1 633.5 1318.5 633.5L988.5 633.5C976.902 633.5 967.5 624.097 967.5 612.499Z" stroke="#000000" stroke-width="6.875" stroke-linecap="butt" stroke-linejoin="miter" stroke-miterlimit="8" stroke-opacity="1" fill="#76D6FF" fill-rule="evenodd" fill-opacity="1"/><text fill="#000000" fill-opacity="1" font-family="Calibri,Calibri_MSFontService,sans-serif" font-style="normal" font-variant="normal" font-weight="700" font-stretch="normal" font-size="73" text-anchor="start" direction="ltr" writing-mode="lr-tb" unicode-bidi="normal" text-decoration="none" transform="matrix(1 0 0 1 1060.36 595)">SMN2</text><path d="M1393.5 528.5C1393.5 516.902 1402.9 507.5 1414.5 507.5L1744.5 507.5C1756.1 507.5 1765.5 516.902 1765.5 528.5L1765.5 612.499C1765.5 624.097 1756.1 633.5 1744.5 633.5L1414.5 633.5C1402.9 633.5 1393.5 624.097 1393.5 612.499Z" stroke="#000000" stroke-width="6.875" stroke-linecap="butt" stroke-linejoin="miter" stroke-miterlimit="8" stroke-opacity="1" fill="#76D6FF" fill-rule="evenodd" fill-opacity="1"/><text fill="#000000" fill-opacity="1" font-family="Calibri,Calibri_MSFontService,sans-serif" font-style="normal" font-variant="normal" font-weight="700" font-stretch="normal" font-size="73" text-anchor="start" direction="ltr" writing-mode="lr-tb" unicode-bidi="normal" text-decoration="none" transform="matrix(1 0 0 1 1486.5 595)">SMN2</text></g></svg>