<svg width="2218" height="303" xmlns="http://www.w3.org/2000/svg" xmlns:xlink="http://www.w3.org/1999/xlink" overflow="hidden"><defs><clipPath id="clip0"><rect x="32" y="696" width="2218" height="303"/></clipPath></defs><g clip-path="url(#clip0)" transform="translate(-32 -696)"><path d="M2249.16 912.5 40.4998 912.501" stroke="#000000" stroke-width="9.16667" stroke-linecap="butt" stroke-linejoin="miter" stroke-miterlimit="8" stroke-opacity="1" fill="none" fill-rule="evenodd"/><path d="M2249.16 765.5 40.4998 765.5" stroke="#000000" stroke-width="9.16667" stroke-linecap="butt" stroke-linejoin="miter" stroke-miterlimit="8" stroke-opacity="1" fill="none" fill-rule="evenodd"/><path d="M538.5 721.5C538.5 709.902 547.902 700.5 559.5 700.5L889.5 700.5C901.098 700.5 910.5 709.902 910.5 721.5L910.5 805.5C910.5 817.098 901.098 826.5 889.5 826.5L559.5 826.5C547.902 826.5 538.5 817.098 538.5 805.5Z" stroke="#000000" stroke-width="6.875" stroke-linecap="butt" stroke-linejoin="miter" stroke-miterlimit="8" stroke-opacity="1" fill="#0432FF" fill-rule="evenodd" fill-opacity="1"/><text fill="#FFFFFF" fill-opacity="1" font-family="Calibri,Calibri_MSFontService,sans-serif" font-style="normal" font-variant="normal" font-weight="700" font-stretch="normal" font-size="73" text-anchor="start" direction="ltr" writing-mode="lr-tb" unicode-bidi="normal" text-decoration="none" transform="matrix(1 0 0 1 631.621 788)">SMN1</text><path d="M108.5 721.5C108.5 709.902 117.902 700.5 129.5 700.5L459.5 700.5C471.098 700.5 480.5 709.902 480.5 721.5L480.5 805.5C480.5 817.098 471.098 826.5 459.5 826.5L129.5 826.5C117.902 826.5 108.5 817.098 108.5 805.5Z" stroke="#000000" stroke-width="6.875" stroke-linecap="butt" stroke-linejoin="miter" stroke-miterlimit="8" stroke-opacity="1" fill="#0432FF" fill-rule="evenodd" fill-opacity="1"/><text fill="#FFFFFF" fill-opacity="1" font-family="Calibri,Calibri_MSFontService,sans-serif" font-style="normal" font-variant="normal" font-weight="700" font-stretch="normal" font-size="73" text-anchor="start" direction="ltr" writing-mode="lr-tb" unicode-bidi="normal" text-decoration="none" transform="matrix(1 0 0 1 201.582 788)">SMN1</text><path d="M538.5 866.5C538.5 854.902 547.902 845.5 559.5 845.5L889.5 845.5C901.098 845.5 910.5 854.902 910.5 866.5L910.5 950.5C910.5 962.098 901.098 971.5 889.5 971.5L559.5 971.5C547.902 971.5 538.5 962.098 538.5 950.5Z" stroke="#000000" stroke-width="6.875" stroke-linecap="butt" stroke-linejoin="miter" stroke-miterlimit="8" stroke-opacity="1" fill="#0432FF" fill-rule="evenodd" fill-opacity="1"/><text fill="#FFFFFF" fill-opacity="1" font-family="Calibri,Calibri_MSFontService,sans-serif" font-style="normal" font-variant="normal" font-weight="700" font-stretch="normal" font-size="73" text-anchor="start" direction="ltr" writing-mode="lr-tb" unicode-bidi="normal" text-decoration="none" transform="matrix(1 0 0 1 631.621 933)">SMN1</text><path d="M967.5 721.5C967.5 709.902 976.902 700.5 988.5 700.5L1318.5 700.5C1330.1 700.5 1339.5 709.902 1339.5 721.5L1339.5 805.5C1339.5 817.098 1330.1 826.5 1318.5 826.5L988.5 826.5C976.902 826.5 967.5 817.098 967.5 805.5Z" stroke="#000000" stroke-width="6.875" stroke-linecap="butt" stroke-linejoin="miter" stroke-miterlimit="8" stroke-opacity="1" fill="#76D6FF" fill-rule="evenodd" fill-opacity="1"/><text fill="#000000" fill-opacity="1" font-family="Calibri,Calibri_MSFontService,sans-serif" font-style="normal" font-variant="normal" font-weight="700" font-stretch="normal" font-size="73" text-anchor="start" direction="ltr" writing-mode="lr-tb" unicode-bidi="normal" text-decoration="none" transform="matrix(1 0 0 1 1060.36 788)">SMN2</text><path d="M967.5 866.5C967.5 854.902 976.902 845.5 988.5 845.5L1318.5 845.5C1330.1 845.5 1339.5 854.902 1339.5 866.5L1339.5 950.5C1339.5 962.098 1330.1 971.5 1318.5 971.5L988.5 971.5C976.902 971.5 967.5 962.098 967.5 950.5Z" stroke="#000000" stroke-width="6.875" stroke-linecap="butt" stroke-linejoin="miter" stroke-miterlimit="8" stroke-dasharray="20.625 6.875" stroke-opacity="1" fill="#FFFFFF" fill-rule="evenodd" fill-opacity="1"/><text fill="#BFBFBF" fill-opacity="1" font-family="Calibri,Calibri_MSFontService,sans-serif" font-style="normal" font-variant="normal" font-weight="700" font-stretch="normal" font-size="73" text-anchor="start" direction="ltr" writing-mode="lr-tb" unicode-bidi="normal" text-decoration="none" transform="matrix(1 0 0 1 1060.36 933)">SMN2</text><path d="M1393.5 721.5C1393.5 709.902 1402.9 700.5 1414.5 700.5L1744.5 700.5C1756.1 700.5 1765.5 709.902 1765.5 721.5L1765.5 805.5C1765.5 817.098 1756.1 826.5 1744.5 826.5L1414.5 826.5C1402.9 826.5 1393.5 817.098 1393.5 805.5Z" stroke="#000000" stroke-width="6.875" stroke-linecap="butt" stroke-linejoin="miter" stroke-miterlimit="8" stroke-opacity="1" fill="#76D6FF" fill-rule="evenodd" fill-opacity="1"/><text fill="#000000" fill-opacity="1" font-family="Calibri,Calibri_MSFontService,sans-serif" font-style="normal" font-variant="normal" font-weight="700" font-stretch="normal" font-size="73" text-anchor="start" direction="ltr" writing-mode="lr-tb" unicode-bidi="normal" text-decoration="none" transform="matrix(1 0 0 1 1486.5 788)">SMN2</text><path d="M1821.5 721.5C1821.5 709.902 1830.9 700.5 1842.5 700.5L2172.5 700.5C2184.1 700.5 2193.5 709.902 2193.5 721.5L2193.5 805.5C2193.5 817.098 2184.1 826.5 2172.5 826.5L1842.5 826.5C1830.9 826.5 1821.5 817.098 1821.5 805.5Z" stroke="#000000" stroke-width="6.875" stroke-linecap="butt" stroke-linejoin="miter" stroke-miterlimit="8" stroke-opacity="1" fill="#76D6FF" fill-rule="evenodd" fill-opacity="1"/><text fill="#000000" fill-opacity="1" font-family="Calibri,Calibri_MSFontService,sans-serif" font-style="normal" font-variant="normal" font-weight="700" font-stretch="normal" font-size="73" text-anchor="start" direction="ltr" writing-mode="lr-tb" unicode-bidi="normal" text-decoration="none" transform="matrix(1 0 0 1 1915.24 788)">SMN2</text></g></svg>