<svg width="1348" height="302" xmlns="http://www.w3.org/2000/svg" xmlns:xlink="http://www.w3.org/1999/xlink" overflow="hidden"><defs><clipPath id="clip0"><rect x="77" y="1155" width="1348" height="302"/></clipPath></defs><g clip-path="url(#clip0)" transform="translate(-77 -1155)"><path d="M1422.69 1373.5 84.5002 1373.5" stroke="#000000" stroke-width="9.16667" stroke-linecap="butt" stroke-linejoin="miter" stroke-miterlimit="8" stroke-opacity="1" fill="none" fill-rule="evenodd"/><path d="M1422.69 1226.5 84.5002 1226.5" stroke="#000000" stroke-width="9.16667" stroke-linecap="butt" stroke-linejoin="miter" stroke-miterlimit="8" stroke-opacity="1" fill="none" fill-rule="evenodd"/><path d="M566.5 1181.5C566.5 1169.9 575.902 1160.5 587.5 1160.5L917.5 1160.5C929.098 1160.5 938.5 1169.9 938.5 1181.5L938.5 1265.5C938.5 1277.1 929.098 1286.5 917.5 1286.5L587.5 1286.5C575.902 1286.5 566.5 1277.1 566.5 1265.5Z" stroke="#000000" stroke-width="6.875" stroke-linecap="butt" stroke-linejoin="miter" stroke-miterlimit="8" stroke-opacity="1" fill="#0432FF" fill-rule="evenodd" fill-opacity="1"/><text fill="#FFFFFF" fill-opacity="1" font-family="Calibri,Calibri_MSFontService,sans-serif" font-style="normal" font-variant="normal" font-weight="700" font-stretch="normal" font-size="73" text-anchor="start" direction="ltr" writing-mode="lr-tb" unicode-bidi="normal" text-decoration="none" transform="matrix(1 0 0 1 660.204 1248)">SMN1</text><path d="M136.5 1181.5C136.5 1169.9 145.902 1160.5 157.5 1160.5L487.5 1160.5C499.098 1160.5 508.5 1169.9 508.5 1181.5L508.5 1265.5C508.5 1277.1 499.098 1286.5 487.5 1286.5L157.5 1286.5C145.902 1286.5 136.5 1277.1 136.5 1265.5Z" stroke="#000000" stroke-width="6.875" stroke-linecap="butt" stroke-linejoin="miter" stroke-miterlimit="8" stroke-opacity="1" fill="#0432FF" fill-rule="evenodd" fill-opacity="1"/><text fill="#FFFFFF" fill-opacity="1" font-family="Calibri,Calibri_MSFontService,sans-serif" font-style="normal" font-variant="normal" font-weight="700" font-stretch="normal" font-size="73" text-anchor="start" direction="ltr" writing-mode="lr-tb" unicode-bidi="normal" text-decoration="none" transform="matrix(1 0 0 1 230.164 1248)">SMN1</text><path d="M566.5 1327.5C566.5 1315.9 575.902 1306.5 587.5 1306.5L917.5 1306.5C929.098 1306.5 938.5 1315.9 938.5 1327.5L938.5 1411.5C938.5 1423.1 929.098 1432.5 917.5 1432.5L587.5 1432.5C575.902 1432.5 566.5 1423.1 566.5 1411.5Z" stroke="#000000" stroke-width="6.875" stroke-linecap="butt" stroke-linejoin="miter" stroke-miterlimit="8" stroke-dasharray="20.625 6.875" stroke-opacity="1" fill="#FFFFFF" fill-rule="evenodd" fill-opacity="1"/><text fill="#BFBFBF" fill-opacity="1" font-family="Calibri,Calibri_MSFontService,sans-serif" font-style="normal" font-variant="normal" font-weight="700" font-stretch="normal" font-size="73" text-anchor="start" direction="ltr" writing-mode="lr-tb" unicode-bidi="normal" text-decoration="none" transform="matrix(1 0 0 1 660.204 1394)">SMN1</text><path d="M994.5 1181.5C994.5 1169.9 1003.9 1160.5 1015.5 1160.5L1345.5 1160.5C1357.1 1160.5 1366.5 1169.9 1366.5 1181.5L1366.5 1265.5C1366.5 1277.1 1357.1 1286.5 1345.5 1286.5L1015.5 1286.5C1003.9 1286.5 994.5 1277.1 994.5 1265.5Z" stroke="#000000" stroke-width="6.875" stroke-linecap="butt" stroke-linejoin="miter" stroke-miterlimit="8" stroke-opacity="1" fill="#76D6FF" fill-rule="evenodd" fill-opacity="1"/><text fill="#000000" fill-opacity="1" font-family="Calibri,Calibri_MSFontService,sans-serif" font-style="normal" font-variant="normal" font-weight="700" font-stretch="normal" font-size="73" text-anchor="start" direction="ltr" writing-mode="lr-tb" unicode-bidi="normal" text-decoration="none" transform="matrix(1 0 0 1 1087.64 1248)">SMN2</text><path d="M994.5 1327.5C994.5 1315.9 1003.9 1306.5 1015.5 1306.5L1345.5 1306.5C1357.1 1306.5 1366.5 1315.9 1366.5 1327.5L1366.5 1411.5C1366.5 1423.1 1357.1 1432.5 1345.5 1432.5L1015.5 1432.5C1003.9 1432.5 994.5 1423.1 994.5 1411.5Z" stroke="#000000" stroke-width="6.875" stroke-linecap="butt" stroke-linejoin="miter" stroke-miterlimit="8" stroke-dasharray="20.625 6.875" stroke-opacity="1" fill="#FFFFFF" fill-rule="evenodd" fill-opacity="1"/><text fill="#BFBFBF" fill-opacity="1" font-family="Calibri,Calibri_MSFontService,sans-serif" font-style="normal" font-variant="normal" font-weight="700" font-stretch="normal" font-size="73" text-anchor="start" direction="ltr" writing-mode="lr-tb" unicode-bidi="normal" text-decoration="none" transform="matrix(1 0 0 1 1087.64 1394)">SMN2</text></g></svg>