<svg width="1348" height="302" xmlns="http://www.w3.org/2000/svg" xmlns:xlink="http://www.w3.org/1999/xlink" overflow="hidden"><defs><clipPath id="clip0"><rect x="77" y="1494" width="1348" height="302"/></clipPath></defs><g clip-path="url(#clip0)" transform="translate(-77 -1494)"><path d="M1422.69 1712.5 84.5002 1712.5" stroke="#000000" stroke-width="9.16667" stroke-linecap="butt" stroke-linejoin="miter" stroke-miterlimit="8" stroke-opacity="1" fill="none" fill-rule="evenodd"/><path d="M1422.69 1565.5 84.5002 1565.5" stroke="#000000" stroke-width="9.16667" stroke-linecap="butt" stroke-linejoin="miter" stroke-miterlimit="8" stroke-opacity="1" fill="none" fill-rule="evenodd"/><path d="M566.5 1520.5C566.5 1508.9 575.902 1499.5 587.5 1499.5L917.5 1499.5C929.098 1499.5 938.5 1508.9 938.5 1520.5L938.5 1604.5C938.5 1616.1 929.098 1625.5 917.5 1625.5L587.5 1625.5C575.902 1625.5 566.5 1616.1 566.5 1604.5Z" stroke="#000000" stroke-width="6.875" stroke-linecap="butt" stroke-linejoin="miter" stroke-miterlimit="8" stroke-opacity="1" fill="#0432FF" fill-rule="evenodd" fill-opacity="1"/><text fill="#FFFFFF" fill-opacity="1" font-family="Calibri,Calibri_MSFontService,sans-serif" font-style="normal" font-variant="normal" font-weight="700" font-stretch="normal" font-size="73" text-anchor="start" direction="ltr" writing-mode="lr-tb" unicode-bidi="normal" text-decoration="none" transform="matrix(1 0 0 1 660.204 1587)">SMN1</text><path d="M136.5 1520.5C136.5 1508.9 145.902 1499.5 157.5 1499.5L487.5 1499.5C499.098 1499.5 508.5 1508.9 508.5 1520.5L508.5 1604.5C508.5 1616.1 499.098 1625.5 487.5 1625.5L157.5 1625.5C145.902 1625.5 136.5 1616.1 136.5 1604.5Z" stroke="#000000" stroke-width="6.875" stroke-linecap="butt" stroke-linejoin="miter" stroke-miterlimit="8" stroke-opacity="1" fill="#0432FF" fill-rule="evenodd" fill-opacity="1"/><text fill="#FFFFFF" fill-opacity="1" font-family="Calibri,Calibri_MSFontService,sans-serif" font-style="normal" font-variant="normal" font-weight="700" font-stretch="normal" font-size="73" text-anchor="start" direction="ltr" writing-mode="lr-tb" unicode-bidi="normal" text-decoration="none" transform="matrix(1 0 0 1 230.164 1587)">SMN1</text><path d="M566.5 1666.5C566.5 1654.9 575.902 1645.5 587.5 1645.5L917.5 1645.5C929.098 1645.5 938.5 1654.9 938.5 1666.5L938.5 1750.5C938.5 1762.1 929.098 1771.5 917.5 1771.5L587.5 1771.5C575.902 1771.5 566.5 1762.1 566.5 1750.5Z" stroke="#000000" stroke-width="6.875" stroke-linecap="butt" stroke-linejoin="miter" stroke-miterlimit="8" stroke-dasharray="20.625 6.875" stroke-opacity="1" fill="#FFFFFF" fill-rule="evenodd" fill-opacity="1"/><text fill="#BFBFBF" fill-opacity="1" font-family="Calibri,Calibri_MSFontService,sans-serif" font-style="normal" font-variant="normal" font-weight="700" font-stretch="normal" font-size="73" text-anchor="start" direction="ltr" writing-mode="lr-tb" unicode-bidi="normal" text-decoration="none" transform="matrix(1 0 0 1 660.204 1733)">SMN1</text><path d="M994.5 1520.5C994.5 1508.9 1003.9 1499.5 1015.5 1499.5L1345.5 1499.5C1357.1 1499.5 1366.5 1508.9 1366.5 1520.5L1366.5 1604.5C1366.5 1616.1 1357.1 1625.5 1345.5 1625.5L1015.5 1625.5C1003.9 1625.5 994.5 1616.1 994.5 1604.5Z" stroke="#000000" stroke-width="6.875" stroke-linecap="butt" stroke-linejoin="miter" stroke-miterlimit="8" stroke-dasharray="20.625 6.875" stroke-opacity="1" fill="#FFFFFF" fill-rule="evenodd" fill-opacity="1"/><text fill="#BFBFBF" fill-opacity="1" font-family="Calibri,Calibri_MSFontService,sans-serif" font-style="normal" font-variant="normal" font-weight="700" font-stretch="normal" font-size="73" text-anchor="start" direction="ltr" writing-mode="lr-tb" unicode-bidi="normal" text-decoration="none" transform="matrix(1 0 0 1 1087.64 1587)">SMN2</text><path d="M994.5 1666.5C994.5 1654.9 1003.9 1645.5 1015.5 1645.5L1345.5 1645.5C1357.1 1645.5 1366.5 1654.9 1366.5 1666.5L1366.5 1750.5C1366.5 1762.1 1357.1 1771.5 1345.5 1771.5L1015.5 1771.5C1003.9 1771.5 994.5 1762.1 994.5 1750.5Z" stroke="#000000" stroke-width="6.875" stroke-linecap="butt" stroke-linejoin="miter" stroke-miterlimit="8" stroke-opacity="1" fill="#76D6FF" fill-rule="evenodd" fill-opacity="1"/><text fill="#000000" fill-opacity="1" font-family="Calibri,Calibri_MSFontService,sans-serif" font-style="normal" font-variant="normal" font-weight="700" font-stretch="normal" font-size="73" text-anchor="start" direction="ltr" writing-mode="lr-tb" unicode-bidi="normal" text-decoration="none" transform="matrix(1 0 0 1 1087.64 1733)">SMN2</text></g></svg>