<svg width="935" height="307" xmlns="http://www.w3.org/2000/svg" xmlns:xlink="http://www.w3.org/1999/xlink" overflow="hidden"><defs><clipPath id="clip0"><rect x="495" y="825" width="935" height="307"/></clipPath></defs><g clip-path="url(#clip0)" transform="translate(-495 -825)"><path d="M1425.94 1034.5 503.5 1034.5" stroke="#000000" stroke-width="9.16667" stroke-linecap="butt" stroke-linejoin="miter" stroke-miterlimit="8" stroke-opacity="1" fill="none" fill-rule="evenodd"/><path d="M566.5 997.5C566.5 985.902 575.902 976.5 587.5 976.5L917.5 976.5C929.098 976.5 938.5 985.902 938.5 997.5L938.5 1081.5C938.5 1093.1 929.098 1102.5 917.5 1102.5L587.5 1102.5C575.902 1102.5 566.5 1093.1 566.5 1081.5Z" stroke="#000000" stroke-width="6.875" stroke-linecap="butt" stroke-linejoin="miter" stroke-miterlimit="8" stroke-opacity="1" fill="#0432FF" fill-rule="evenodd" fill-opacity="1"/><text fill="#FFFFFF" fill-opacity="1" font-family="Calibri,Calibri_MSFontService,sans-serif" font-style="normal" font-variant="normal" font-weight="700" font-stretch="normal" font-size="73" text-anchor="start" direction="ltr" writing-mode="lr-tb" unicode-bidi="normal" text-decoration="none" transform="matrix(1 0 0 1 660.204 1064)">SMN1</text><path d="M1425.94 887.5 503.5 887.5" stroke="#000000" stroke-width="9.16667" stroke-linecap="butt" stroke-linejoin="miter" stroke-miterlimit="8" stroke-opacity="1" fill="none" fill-rule="evenodd"/><path d="M566.5 850.5C566.5 838.902 575.902 829.5 587.5 829.5L917.5 829.5C929.098 829.5 938.5 838.902 938.5 850.5L938.5 934.499C938.5 946.098 929.098 955.5 917.5 955.5L587.5 955.5C575.902 955.5 566.5 946.098 566.5 934.499Z" stroke="#000000" stroke-width="6.875" stroke-linecap="butt" stroke-linejoin="miter" stroke-miterlimit="8" stroke-opacity="1" fill="#0432FF" fill-rule="evenodd" fill-opacity="1"/><text fill="#FFFFFF" fill-opacity="1" font-family="Calibri,Calibri_MSFontService,sans-serif" font-style="normal" font-variant="normal" font-weight="700" font-stretch="normal" font-size="73" text-anchor="start" direction="ltr" writing-mode="lr-tb" unicode-bidi="normal" text-decoration="none" transform="matrix(1 0 0 1 660.204 917)">SMN1</text><path d="M994.5 997.5C994.5 985.902 1003.9 976.5 1015.5 976.5L1345.5 976.5C1357.1 976.5 1366.5 985.902 1366.5 997.5L1366.5 1081.5C1366.5 1093.1 1357.1 1102.5 1345.5 1102.5L1015.5 1102.5C1003.9 1102.5 994.5 1093.1 994.5 1081.5Z" stroke="#000000" stroke-width="6.875" stroke-linecap="butt" stroke-linejoin="miter" stroke-miterlimit="8" stroke-dasharray="20.625 6.875" stroke-opacity="1" fill="#FFFFFF" fill-rule="evenodd" fill-opacity="1"/><text fill="#BFBFBF" fill-opacity="1" font-family="Calibri,Calibri_MSFontService,sans-serif" font-style="normal" font-variant="normal" font-weight="700" font-stretch="normal" font-size="73" text-anchor="start" direction="ltr" writing-mode="lr-tb" unicode-bidi="normal" text-decoration="none" transform="matrix(1 0 0 1 1087.64 1064)">SMN2</text><path d="M994.5 850.5C994.5 838.902 1003.9 829.5 1015.5 829.5L1345.5 829.5C1357.1 829.5 1366.5 838.902 1366.5 850.5L1366.5 934.499C1366.5 946.098 1357.1 955.5 1345.5 955.5L1015.5 955.5C1003.9 955.5 994.5 946.098 994.5 934.499Z" stroke="#000000" stroke-width="6.875" stroke-linecap="butt" stroke-linejoin="miter" stroke-miterlimit="8" stroke-opacity="1" fill="#76D6FF" fill-rule="evenodd" fill-opacity="1"/><text fill="#000000" fill-opacity="1" font-family="Calibri,Calibri_MSFontService,sans-serif" font-style="normal" font-variant="normal" font-weight="700" font-stretch="normal" font-size="73" text-anchor="start" direction="ltr" writing-mode="lr-tb" unicode-bidi="normal" text-decoration="none" transform="matrix(1 0 0 1 1087.64 917)">SMN2</text></g></svg>