<svg width="1348" height="303" xmlns="http://www.w3.org/2000/svg" xmlns:xlink="http://www.w3.org/1999/xlink" overflow="hidden"><defs><clipPath id="clip0"><rect x="77" y="485" width="1348" height="303"/></clipPath></defs><g clip-path="url(#clip0)" transform="translate(-77 -485)"><path d="M1422.69 703.5 84.5002 703.501" stroke="#000000" stroke-width="9.16667" stroke-linecap="butt" stroke-linejoin="miter" stroke-miterlimit="8" stroke-opacity="1" fill="none" fill-rule="evenodd"/><path d="M1422.69 556.5 84.5002 556.5" stroke="#000000" stroke-width="9.16667" stroke-linecap="butt" stroke-linejoin="miter" stroke-miterlimit="8" stroke-opacity="1" fill="none" fill-rule="evenodd"/><path d="M566.5 511.5C566.5 499.902 575.902 490.5 587.5 490.5L917.5 490.5C929.098 490.5 938.5 499.902 938.5 511.5L938.5 595.5C938.5 607.098 929.098 616.5 917.5 616.5L587.5 616.5C575.902 616.5 566.5 607.098 566.5 595.5Z" stroke="#000000" stroke-width="6.875" stroke-linecap="butt" stroke-linejoin="miter" stroke-miterlimit="8" stroke-opacity="1" fill="#0432FF" fill-rule="evenodd" fill-opacity="1"/><text fill="#FFFFFF" fill-opacity="1" font-family="Calibri,Calibri_MSFontService,sans-serif" font-style="normal" font-variant="normal" font-weight="700" font-stretch="normal" font-size="73" text-anchor="start" direction="ltr" writing-mode="lr-tb" unicode-bidi="normal" text-decoration="none" transform="matrix(1 0 0 1 660.204 578)">SMN1</text><path d="M136.5 511.5C136.5 499.902 145.902 490.5 157.5 490.5L487.5 490.5C499.098 490.5 508.5 499.902 508.5 511.5L508.5 595.5C508.5 607.098 499.098 616.5 487.5 616.5L157.5 616.5C145.902 616.5 136.5 607.098 136.5 595.5Z" stroke="#000000" stroke-width="6.875" stroke-linecap="butt" stroke-linejoin="miter" stroke-miterlimit="8" stroke-opacity="1" fill="#0432FF" fill-rule="evenodd" fill-opacity="1"/><text fill="#FFFFFF" fill-opacity="1" font-family="Calibri,Calibri_MSFontService,sans-serif" font-style="normal" font-variant="normal" font-weight="700" font-stretch="normal" font-size="73" text-anchor="start" direction="ltr" writing-mode="lr-tb" unicode-bidi="normal" text-decoration="none" transform="matrix(1 0 0 1 230.164 578)">SMN1</text><path d="M566.5 657.5C566.5 645.902 575.902 636.5 587.5 636.5L917.5 636.5C929.098 636.5 938.5 645.902 938.5 657.5L938.5 741.5C938.5 753.098 929.098 762.5 917.5 762.5L587.5 762.5C575.902 762.5 566.5 753.098 566.5 741.5Z" stroke="#000000" stroke-width="6.875" stroke-linecap="butt" stroke-linejoin="miter" stroke-miterlimit="8" stroke-dasharray="20.625 6.875" stroke-opacity="1" fill="#FFFFFF" fill-rule="evenodd" fill-opacity="1"/><text fill="#BFBFBF" fill-opacity="1" font-family="Calibri,Calibri_MSFontService,sans-serif" font-style="normal" font-variant="normal" font-weight="700" font-stretch="normal" font-size="73" text-anchor="start" direction="ltr" writing-mode="lr-tb" unicode-bidi="normal" text-decoration="none" transform="matrix(1 0 0 1 660.204 724)">SMN1</text><path d="M994.5 511.5C994.5 499.902 1003.9 490.5 1015.5 490.5L1345.5 490.5C1357.1 490.5 1366.5 499.902 1366.5 511.5L1366.5 595.5C1366.5 607.098 1357.1 616.5 1345.5 616.5L1015.5 616.5C1003.9 616.5 994.5 607.098 994.5 595.5Z" stroke="#000000" stroke-width="6.875" stroke-linecap="butt" stroke-linejoin="miter" stroke-miterlimit="8" stroke-dasharray="20.625 6.875" stroke-opacity="1" fill="#FFFFFF" fill-rule="evenodd" fill-opacity="1"/><text fill="#BFBFBF" fill-opacity="1" font-family="Calibri,Calibri_MSFontService,sans-serif" font-style="normal" font-variant="normal" font-weight="700" font-stretch="normal" font-size="73" text-anchor="start" direction="ltr" writing-mode="lr-tb" unicode-bidi="normal" text-decoration="none" transform="matrix(1 0 0 1 1087.64 578)">SMN2</text><path d="M994.5 657.5C994.5 645.902 1003.9 636.5 1015.5 636.5L1345.5 636.5C1357.1 636.5 1366.5 645.902 1366.5 657.5L1366.5 741.5C1366.5 753.098 1357.1 762.5 1345.5 762.5L1015.5 762.5C1003.9 762.5 994.5 753.098 994.5 741.5Z" stroke="#000000" stroke-width="6.875" stroke-linecap="butt" stroke-linejoin="miter" stroke-miterlimit="8" stroke-dasharray="20.625 6.875" stroke-opacity="1" fill="#FFFFFF" fill-rule="evenodd" fill-opacity="1"/><text fill="#BFBFBF" fill-opacity="1" font-family="Calibri,Calibri_MSFontService,sans-serif" font-style="normal" font-variant="normal" font-weight="700" font-stretch="normal" font-size="73" text-anchor="start" direction="ltr" writing-mode="lr-tb" unicode-bidi="normal" text-decoration="none" transform="matrix(1 0 0 1 1087.64 724)">SMN2</text></g></svg>