<svg width="935" height="307" xmlns="http://www.w3.org/2000/svg" xmlns:xlink="http://www.w3.org/1999/xlink" overflow="hidden"><defs><clipPath id="clip0"><rect x="495" y="146" width="935" height="307"/></clipPath></defs><g clip-path="url(#clip0)" transform="translate(-495 -146)"><path d="M1425.94 218.5 503.5 218.501" stroke="#000000" stroke-width="9.16667" stroke-linecap="butt" stroke-linejoin="miter" stroke-miterlimit="8" stroke-opacity="1" fill="none" fill-rule="evenodd"/><path d="M1425.94 365.5 503.5 365.5" stroke="#000000" stroke-width="9.16667" stroke-linecap="butt" stroke-linejoin="miter" stroke-miterlimit="8" stroke-opacity="1" fill="none" fill-rule="evenodd"/><path d="M566.5 175.5C566.5 163.902 575.902 154.5 587.5 154.5L917.5 154.5C929.098 154.5 938.5 163.902 938.5 175.5L938.5 259.499C938.5 271.097 929.098 280.5 917.5 280.5L587.5 280.5C575.902 280.5 566.5 271.097 566.5 259.499Z" stroke="#000000" stroke-width="6.875" stroke-linecap="butt" stroke-linejoin="miter" stroke-miterlimit="8" stroke-opacity="1" fill="#0432FF" fill-rule="evenodd" fill-opacity="1"/><text fill="#FFFFFF" fill-opacity="1" font-family="Calibri,Calibri_MSFontService,sans-serif" font-style="normal" font-variant="normal" font-weight="700" font-stretch="normal" font-size="73" text-anchor="start" direction="ltr" writing-mode="lr-tb" unicode-bidi="normal" text-decoration="none" transform="matrix(1 0 0 1 659.917 242)">SMN1</text><path d="M566.5 321.5C566.5 309.902 575.902 300.5 587.5 300.5L917.5 300.5C929.098 300.5 938.5 309.902 938.5 321.5L938.5 405.499C938.5 417.098 929.098 426.5 917.5 426.5L587.5 426.5C575.902 426.5 566.5 417.098 566.5 405.499Z" stroke="#000000" stroke-width="6.875" stroke-linecap="butt" stroke-linejoin="miter" stroke-miterlimit="8" stroke-opacity="1" fill="#0432FF" fill-rule="evenodd" fill-opacity="1"/><text fill="#FFFFFF" fill-opacity="1" font-family="Calibri,Calibri_MSFontService,sans-serif" font-style="normal" font-variant="normal" font-weight="700" font-stretch="normal" font-size="73" text-anchor="start" direction="ltr" writing-mode="lr-tb" unicode-bidi="normal" text-decoration="none" transform="matrix(1 0 0 1 660.204 388)">SMN1</text><path d="M994.5 176.5C994.5 164.902 1003.9 155.5 1015.5 155.5L1345.5 155.5C1357.1 155.5 1366.5 164.902 1366.5 176.5L1366.5 260.499C1366.5 272.097 1357.1 281.5 1345.5 281.5L1015.5 281.5C1003.9 281.5 994.5 272.097 994.5 260.499Z" stroke="#000000" stroke-width="6.875" stroke-linecap="butt" stroke-linejoin="miter" stroke-miterlimit="8" stroke-dasharray="20.625 6.875" stroke-opacity="1" fill="#FFFFFF" fill-rule="evenodd" fill-opacity="1"/><text fill="#BFBFBF" fill-opacity="1" font-family="Calibri,Calibri_MSFontService,sans-serif" font-style="normal" font-variant="normal" font-weight="700" font-stretch="normal" font-size="73" text-anchor="start" direction="ltr" writing-mode="lr-tb" unicode-bidi="normal" text-decoration="none" transform="matrix(1 0 0 1 1088.09 243)">SMN2</text><path d="M994.5 322.5C994.5 310.902 1003.9 301.5 1015.5 301.5L1345.5 301.5C1357.1 301.5 1366.5 310.902 1366.5 322.5L1366.5 406.499C1366.5 418.098 1357.1 427.5 1345.5 427.5L1015.5 427.5C1003.9 427.5 994.5 418.098 994.5 406.499Z" stroke="#000000" stroke-width="6.875" stroke-linecap="butt" stroke-linejoin="miter" stroke-miterlimit="8" stroke-dasharray="20.625 6.875" stroke-opacity="1" fill="#FFFFFF" fill-rule="evenodd" fill-opacity="1"/><text fill="#BFBFBF" fill-opacity="1" font-family="Calibri,Calibri_MSFontService,sans-serif" font-style="normal" font-variant="normal" font-weight="700" font-stretch="normal" font-size="73" text-anchor="start" direction="ltr" writing-mode="lr-tb" unicode-bidi="normal" text-decoration="none" transform="matrix(1 0 0 1 1087.64 389)">SMN2</text></g></svg>