<svg width="931" height="302" xmlns="http://www.w3.org/2000/svg" xmlns:xlink="http://www.w3.org/1999/xlink" overflow="hidden"><defs><clipPath id="clip0"><rect x="2025" y="825" width="931" height="302"/></clipPath></defs><g clip-path="url(#clip0)" transform="translate(-2025 -825)"><path d="M2955.94 893.5 2033.5 893.5" stroke="#000000" stroke-width="9.16667" stroke-linecap="butt" stroke-linejoin="miter" stroke-miterlimit="8" stroke-opacity="1" fill="none" fill-rule="evenodd"/><path d="M2955.94 1039.5 2033.5 1039.5" stroke="#000000" stroke-width="9.16667" stroke-linecap="butt" stroke-linejoin="miter" stroke-miterlimit="8" stroke-opacity="1" fill="none" fill-rule="evenodd"/><path d="M2096.5 850.5C2096.5 838.902 2105.9 829.5 2117.5 829.5L2447.5 829.5C2459.1 829.5 2468.5 838.902 2468.5 850.5L2468.5 934.499C2468.5 946.098 2459.1 955.5 2447.5 955.5L2117.5 955.5C2105.9 955.5 2096.5 946.098 2096.5 934.499Z" stroke="#000000" stroke-width="6.875" stroke-linecap="butt" stroke-linejoin="miter" stroke-miterlimit="8" stroke-opacity="1" fill="#0432FF" fill-rule="evenodd" fill-opacity="1"/><text fill="#FFFFFF" fill-opacity="1" font-family="Calibri,Calibri_MSFontService,sans-serif" font-style="normal" font-variant="normal" font-weight="700" font-stretch="normal" font-size="73" text-anchor="start" direction="ltr" writing-mode="lr-tb" unicode-bidi="normal" text-decoration="none" transform="matrix(1 0 0 1 2189.38 917)">SMN1</text><path d="M2096.5 997.5C2096.5 985.902 2105.9 976.5 2117.5 976.5L2447.5 976.5C2459.1 976.5 2468.5 985.902 2468.5 997.5L2468.5 1081.5C2468.5 1093.1 2459.1 1102.5 2447.5 1102.5L2117.5 1102.5C2105.9 1102.5 2096.5 1093.1 2096.5 1081.5Z" stroke="#000000" stroke-width="6.875" stroke-linecap="butt" stroke-linejoin="miter" stroke-miterlimit="8" stroke-opacity="1" fill="#0432FF" fill-rule="evenodd" fill-opacity="1"/><text fill="#FFFFFF" fill-opacity="1" font-family="Calibri,Calibri_MSFontService,sans-serif" font-style="normal" font-variant="normal" font-weight="700" font-stretch="normal" font-size="73" text-anchor="start" direction="ltr" writing-mode="lr-tb" unicode-bidi="normal" text-decoration="none" transform="matrix(1 0 0 1 2189.38 1064)">SMN1</text><path d="M2524.5 850.5C2524.5 838.902 2533.9 829.5 2545.5 829.5L2875.5 829.5C2887.1 829.5 2896.5 838.902 2896.5 850.5L2896.5 934.499C2896.5 946.098 2887.1 955.5 2875.5 955.5L2545.5 955.5C2533.9 955.5 2524.5 946.098 2524.5 934.499Z" stroke="#000000" stroke-width="6.875" stroke-linecap="butt" stroke-linejoin="miter" stroke-miterlimit="8" stroke-opacity="1" fill="#76D6FF" fill-rule="evenodd" fill-opacity="1"/><text fill="#000000" fill-opacity="1" font-family="Calibri,Calibri_MSFontService,sans-serif" font-style="normal" font-variant="normal" font-weight="700" font-stretch="normal" font-size="73" text-anchor="start" direction="ltr" writing-mode="lr-tb" unicode-bidi="normal" text-decoration="none" transform="matrix(1 0 0 1 2618.12 917)">SMN2</text><path d="M2524.5 997.5C2524.5 985.902 2533.9 976.5 2545.5 976.5L2875.5 976.5C2887.1 976.5 2896.5 985.902 2896.5 997.5L2896.5 1081.5C2896.5 1093.1 2887.1 1102.5 2875.5 1102.5L2545.5 1102.5C2533.9 1102.5 2524.5 1093.1 2524.5 1081.5Z" stroke="#000000" stroke-width="6.875" stroke-linecap="butt" stroke-linejoin="miter" stroke-miterlimit="8" stroke-opacity="1" fill="#76D6FF" fill-rule="evenodd" fill-opacity="1"/><text fill="#000000" fill-opacity="1" font-family="Calibri,Calibri_MSFontService,sans-serif" font-style="normal" font-variant="normal" font-weight="700" font-stretch="normal" font-size="73" text-anchor="start" direction="ltr" writing-mode="lr-tb" unicode-bidi="normal" text-decoration="none" transform="matrix(1 0 0 1 2618.12 1064)">SMN2</text></g></svg>