<svg width="1348" height="302" xmlns="http://www.w3.org/2000/svg" xmlns:xlink="http://www.w3.org/1999/xlink" overflow="hidden"><defs><clipPath id="clip0"><rect x="1608" y="1494" width="1348" height="302"/></clipPath></defs><g clip-path="url(#clip0)" transform="translate(-1608 -1494)"><path d="M2953.69 1713.5 1615.5 1713.5" stroke="#000000" stroke-width="9.16667" stroke-linecap="butt" stroke-linejoin="miter" stroke-miterlimit="8" stroke-opacity="1" fill="none" fill-rule="evenodd"/><path d="M2953.69 1567.5 1615.5 1567.5" stroke="#000000" stroke-width="9.16667" stroke-linecap="butt" stroke-linejoin="miter" stroke-miterlimit="8" stroke-opacity="1" fill="none" fill-rule="evenodd"/><path d="M2096.5 1520.5C2096.5 1508.9 2105.9 1499.5 2117.5 1499.5L2447.5 1499.5C2459.1 1499.5 2468.5 1508.9 2468.5 1520.5L2468.5 1604.5C2468.5 1616.1 2459.1 1625.5 2447.5 1625.5L2117.5 1625.5C2105.9 1625.5 2096.5 1616.1 2096.5 1604.5Z" stroke="#000000" stroke-width="6.875" stroke-linecap="butt" stroke-linejoin="miter" stroke-miterlimit="8" stroke-opacity="1" fill="#0432FF" fill-rule="evenodd" fill-opacity="1"/><text fill="#FFFFFF" fill-opacity="1" font-family="Calibri,Calibri_MSFontService,sans-serif" font-style="normal" font-variant="normal" font-weight="700" font-stretch="normal" font-size="73" text-anchor="start" direction="ltr" writing-mode="lr-tb" unicode-bidi="normal" text-decoration="none" transform="matrix(1 0 0 1 2189.38 1587)">SMN1</text><path d="M1666.5 1520.5C1666.5 1508.9 1675.9 1499.5 1687.5 1499.5L2017.5 1499.5C2029.1 1499.5 2038.5 1508.9 2038.5 1520.5L2038.5 1604.5C2038.5 1616.1 2029.1 1625.5 2017.5 1625.5L1687.5 1625.5C1675.9 1625.5 1666.5 1616.1 1666.5 1604.5Z" stroke="#000000" stroke-width="6.875" stroke-linecap="butt" stroke-linejoin="miter" stroke-miterlimit="8" stroke-opacity="1" fill="#0432FF" fill-rule="evenodd" fill-opacity="1"/><text fill="#FFFFFF" fill-opacity="1" font-family="Calibri,Calibri_MSFontService,sans-serif" font-style="normal" font-variant="normal" font-weight="700" font-stretch="normal" font-size="73" text-anchor="start" direction="ltr" writing-mode="lr-tb" unicode-bidi="normal" text-decoration="none" transform="matrix(1 0 0 1 1760.14 1587)">SMN1</text><path d="M2096.5 1666.5C2096.5 1654.9 2105.9 1645.5 2117.5 1645.5L2447.5 1645.5C2459.1 1645.5 2468.5 1654.9 2468.5 1666.5L2468.5 1750.5C2468.5 1762.1 2459.1 1771.5 2447.5 1771.5L2117.5 1771.5C2105.9 1771.5 2096.5 1762.1 2096.5 1750.5Z" stroke="#000000" stroke-width="6.875" stroke-linecap="butt" stroke-linejoin="miter" stroke-miterlimit="8" stroke-dasharray="20.625 6.875" stroke-opacity="1" fill="#FFFFFF" fill-rule="evenodd" fill-opacity="1"/><text fill="#BFBFBF" fill-opacity="1" font-family="Calibri,Calibri_MSFontService,sans-serif" font-style="normal" font-variant="normal" font-weight="700" font-stretch="normal" font-size="73" text-anchor="start" direction="ltr" writing-mode="lr-tb" unicode-bidi="normal" text-decoration="none" transform="matrix(1 0 0 1 2189.38 1733)">SMN1</text><path d="M2524.5 1520.5C2524.5 1508.9 2533.9 1499.5 2545.5 1499.5L2875.5 1499.5C2887.1 1499.5 2896.5 1508.9 2896.5 1520.5L2896.5 1604.5C2896.5 1616.1 2887.1 1625.5 2875.5 1625.5L2545.5 1625.5C2533.9 1625.5 2524.5 1616.1 2524.5 1604.5Z" stroke="#000000" stroke-width="6.875" stroke-linecap="butt" stroke-linejoin="miter" stroke-miterlimit="8" stroke-opacity="1" fill="#76D6FF" fill-rule="evenodd" fill-opacity="1"/><text fill="#000000" fill-opacity="1" font-family="Calibri,Calibri_MSFontService,sans-serif" font-style="normal" font-variant="normal" font-weight="700" font-stretch="normal" font-size="73" text-anchor="start" direction="ltr" writing-mode="lr-tb" unicode-bidi="normal" text-decoration="none" transform="matrix(1 0 0 1 2618.12 1587)">SMN2</text><path d="M2524.5 1666.5C2524.5 1654.9 2533.9 1645.5 2545.5 1645.5L2875.5 1645.5C2887.1 1645.5 2896.5 1654.9 2896.5 1666.5L2896.5 1750.5C2896.5 1762.1 2887.1 1771.5 2875.5 1771.5L2545.5 1771.5C2533.9 1771.5 2524.5 1762.1 2524.5 1750.5Z" stroke="#000000" stroke-width="6.875" stroke-linecap="butt" stroke-linejoin="miter" stroke-miterlimit="8" stroke-opacity="1" fill="#76D6FF" fill-rule="evenodd" fill-opacity="1"/><text fill="#000000" fill-opacity="1" font-family="Calibri,Calibri_MSFontService,sans-serif" font-style="normal" font-variant="normal" font-weight="700" font-stretch="normal" font-size="73" text-anchor="start" direction="ltr" writing-mode="lr-tb" unicode-bidi="normal" text-decoration="none" transform="matrix(1 0 0 1 2618.12 1733)">SMN2</text></g></svg>