<svg width="1779" height="308" xmlns="http://www.w3.org/2000/svg" xmlns:xlink="http://www.w3.org/1999/xlink" overflow="hidden"><defs><clipPath id="clip0"><rect x="1608" y="2167" width="1779" height="308"/></clipPath></defs><g clip-path="url(#clip0)" transform="translate(-1608 -2167)"><path d="M3382.43 2387.5 1615.5 2387.5" stroke="#000000" stroke-width="9.16667" stroke-linecap="butt" stroke-linejoin="miter" stroke-miterlimit="8" stroke-opacity="1" fill="none" fill-rule="evenodd"/><path d="M3382.43 2240.5 1615.5 2240.5" stroke="#000000" stroke-width="9.16667" stroke-linecap="butt" stroke-linejoin="miter" stroke-miterlimit="8" stroke-opacity="1" fill="none" fill-rule="evenodd"/><path d="M2096.5 2195.5C2096.5 2183.9 2105.9 2174.5 2117.5 2174.5L2447.5 2174.5C2459.1 2174.5 2468.5 2183.9 2468.5 2195.5L2468.5 2279.5C2468.5 2291.1 2459.1 2300.5 2447.5 2300.5L2117.5 2300.5C2105.9 2300.5 2096.5 2291.1 2096.5 2279.5Z" stroke="#000000" stroke-width="6.875" stroke-linecap="butt" stroke-linejoin="miter" stroke-miterlimit="8" stroke-opacity="1" fill="#0432FF" fill-rule="evenodd" fill-opacity="1"/><text fill="#FFFFFF" fill-opacity="1" font-family="Calibri,Calibri_MSFontService,sans-serif" font-style="normal" font-variant="normal" font-weight="700" font-stretch="normal" font-size="73" text-anchor="start" direction="ltr" writing-mode="lr-tb" unicode-bidi="normal" text-decoration="none" transform="matrix(1 0 0 1 2189.38 2262)">SMN1</text><path d="M1666.5 2195.5C1666.5 2183.9 1675.9 2174.5 1687.5 2174.5L2017.5 2174.5C2029.1 2174.5 2038.5 2183.9 2038.5 2195.5L2038.5 2279.5C2038.5 2291.1 2029.1 2300.5 2017.5 2300.5L1687.5 2300.5C1675.9 2300.5 1666.5 2291.1 1666.5 2279.5Z" stroke="#000000" stroke-width="6.875" stroke-linecap="butt" stroke-linejoin="miter" stroke-miterlimit="8" stroke-opacity="1" fill="#0432FF" fill-rule="evenodd" fill-opacity="1"/><text fill="#FFFFFF" fill-opacity="1" font-family="Calibri,Calibri_MSFontService,sans-serif" font-style="normal" font-variant="normal" font-weight="700" font-stretch="normal" font-size="73" text-anchor="start" direction="ltr" writing-mode="lr-tb" unicode-bidi="normal" text-decoration="none" transform="matrix(1 0 0 1 1760.14 2262)">SMN1</text><path d="M2096.5 2341.5C2096.5 2329.9 2105.9 2320.5 2117.5 2320.5L2447.5 2320.5C2459.1 2320.5 2468.5 2329.9 2468.5 2341.5L2468.5 2425.5C2468.5 2437.1 2459.1 2446.5 2447.5 2446.5L2117.5 2446.5C2105.9 2446.5 2096.5 2437.1 2096.5 2425.5Z" stroke="#000000" stroke-width="6.875" stroke-linecap="butt" stroke-linejoin="miter" stroke-miterlimit="8" stroke-dasharray="20.625 6.875" stroke-opacity="1" fill="#FFFFFF" fill-rule="evenodd" fill-opacity="1"/><text fill="#BFBFBF" fill-opacity="1" font-family="Calibri,Calibri_MSFontService,sans-serif" font-style="normal" font-variant="normal" font-weight="700" font-stretch="normal" font-size="73" text-anchor="start" direction="ltr" writing-mode="lr-tb" unicode-bidi="normal" text-decoration="none" transform="matrix(1 0 0 1 2189.38 2408)">SMN1</text><path d="M2524.5 2195.5C2524.5 2183.9 2533.9 2174.5 2545.5 2174.5L2875.5 2174.5C2887.1 2174.5 2896.5 2183.9 2896.5 2195.5L2896.5 2279.5C2896.5 2291.1 2887.1 2300.5 2875.5 2300.5L2545.5 2300.5C2533.9 2300.5 2524.5 2291.1 2524.5 2279.5Z" stroke="#000000" stroke-width="6.875" stroke-linecap="butt" stroke-linejoin="miter" stroke-miterlimit="8" stroke-dasharray="20.625 6.875" stroke-opacity="1" fill="#FFFFFF" fill-rule="evenodd" fill-opacity="1"/><text fill="#BFBFBF" fill-opacity="1" font-family="Calibri,Calibri_MSFontService,sans-serif" font-style="normal" font-variant="normal" font-weight="700" font-stretch="normal" font-size="73" text-anchor="start" direction="ltr" writing-mode="lr-tb" unicode-bidi="normal" text-decoration="none" transform="matrix(1 0 0 1 2618.12 2262)">SMN2</text><path d="M2524.5 2341.5C2524.5 2329.9 2533.9 2320.5 2545.5 2320.5L2875.5 2320.5C2887.1 2320.5 2896.5 2329.9 2896.5 2341.5L2896.5 2425.5C2896.5 2437.1 2887.1 2446.5 2875.5 2446.5L2545.5 2446.5C2533.9 2446.5 2524.5 2437.1 2524.5 2425.5Z" stroke="#000000" stroke-width="6.875" stroke-linecap="butt" stroke-linejoin="miter" stroke-miterlimit="8" stroke-opacity="1" fill="#76D6FF" fill-rule="evenodd" fill-opacity="1"/><text fill="#000000" fill-opacity="1" font-family="Calibri,Calibri_MSFontService,sans-serif" font-style="normal" font-variant="normal" font-weight="700" font-stretch="normal" font-size="73" text-anchor="start" direction="ltr" writing-mode="lr-tb" unicode-bidi="normal" text-decoration="none" transform="matrix(1 0 0 1 2618.12 2408)">SMN2</text><path d="M2951.5 2341.5C2951.5 2329.9 2960.9 2320.5 2972.5 2320.5L3301.5 2320.5C3313.1 2320.5 3322.5 2329.9 3322.5 2341.5L3322.5 2425.5C3322.5 2437.1 3313.1 2446.5 3301.5 2446.5L2972.5 2446.5C2960.9 2446.5 2951.5 2437.1 2951.5 2425.5Z" stroke="#000000" stroke-width="6.875" stroke-linecap="butt" stroke-linejoin="miter" stroke-miterlimit="8" stroke-opacity="1" fill="#76D6FF" fill-rule="evenodd" fill-opacity="1"/><text fill="#000000" fill-opacity="1" font-family="Calibri,Calibri_MSFontService,sans-serif" font-style="normal" font-variant="normal" font-weight="700" font-stretch="normal" font-size="73" text-anchor="start" direction="ltr" writing-mode="lr-tb" unicode-bidi="normal" text-decoration="none" transform="matrix(1 0 0 1 3044.26 2408)">SMN2</text></g></svg>