<svg width="1347" height="302" xmlns="http://www.w3.org/2000/svg" xmlns:xlink="http://www.w3.org/1999/xlink" overflow="hidden"><defs><clipPath id="clip0"><rect x="2030" y="1155" width="1347" height="302"/></clipPath></defs><g clip-path="url(#clip0)" transform="translate(-2030 -1155)"><path d="M3373.69 1364.5 2035.5 1364.5" stroke="#000000" stroke-width="9.16667" stroke-linecap="butt" stroke-linejoin="miter" stroke-miterlimit="8" stroke-opacity="1" fill="none" fill-rule="evenodd"/><path d="M2096.5 1327.5C2096.5 1315.9 2105.9 1306.5 2117.5 1306.5L2447.5 1306.5C2459.1 1306.5 2468.5 1315.9 2468.5 1327.5L2468.5 1411.5C2468.5 1423.1 2459.1 1432.5 2447.5 1432.5L2117.5 1432.5C2105.9 1432.5 2096.5 1423.1 2096.5 1411.5Z" stroke="#000000" stroke-width="6.875" stroke-linecap="butt" stroke-linejoin="miter" stroke-miterlimit="8" stroke-opacity="1" fill="#0432FF" fill-rule="evenodd" fill-opacity="1"/><text fill="#FFFFFF" fill-opacity="1" font-family="Calibri,Calibri_MSFontService,sans-serif" font-style="normal" font-variant="normal" font-weight="700" font-stretch="normal" font-size="73" text-anchor="start" direction="ltr" writing-mode="lr-tb" unicode-bidi="normal" text-decoration="none" transform="matrix(1 0 0 1 2189.38 1394)">SMN1</text><path d="M3373.69 1218.5 2035.5 1218.5" stroke="#000000" stroke-width="9.16667" stroke-linecap="butt" stroke-linejoin="miter" stroke-miterlimit="8" stroke-opacity="1" fill="none" fill-rule="evenodd"/><path d="M2096.5 1181.5C2096.5 1169.9 2105.9 1160.5 2117.5 1160.5L2447.5 1160.5C2459.1 1160.5 2468.5 1169.9 2468.5 1181.5L2468.5 1265.5C2468.5 1277.1 2459.1 1286.5 2447.5 1286.5L2117.5 1286.5C2105.9 1286.5 2096.5 1277.1 2096.5 1265.5Z" stroke="#000000" stroke-width="6.875" stroke-linecap="butt" stroke-linejoin="miter" stroke-miterlimit="8" stroke-opacity="1" fill="#0432FF" fill-rule="evenodd" fill-opacity="1"/><text fill="#FFFFFF" fill-opacity="1" font-family="Calibri,Calibri_MSFontService,sans-serif" font-style="normal" font-variant="normal" font-weight="700" font-stretch="normal" font-size="73" text-anchor="start" direction="ltr" writing-mode="lr-tb" unicode-bidi="normal" text-decoration="none" transform="matrix(1 0 0 1 2189.38 1248)">SMN1</text><path d="M2524.5 1327.5C2524.5 1315.9 2533.9 1306.5 2545.5 1306.5L2875.5 1306.5C2887.1 1306.5 2896.5 1315.9 2896.5 1327.5L2896.5 1411.5C2896.5 1423.1 2887.1 1432.5 2875.5 1432.5L2545.5 1432.5C2533.9 1432.5 2524.5 1423.1 2524.5 1411.5Z" stroke="#000000" stroke-width="6.875" stroke-linecap="butt" stroke-linejoin="miter" stroke-miterlimit="8" stroke-dasharray="20.625 6.875" stroke-opacity="1" fill="#FFFFFF" fill-rule="evenodd" fill-opacity="1"/><text fill="#BFBFBF" fill-opacity="1" font-family="Calibri,Calibri_MSFontService,sans-serif" font-style="normal" font-variant="normal" font-weight="700" font-stretch="normal" font-size="73" text-anchor="start" direction="ltr" writing-mode="lr-tb" unicode-bidi="normal" text-decoration="none" transform="matrix(1 0 0 1 2618.12 1394)">SMN2</text><path d="M2524.5 1181.5C2524.5 1169.9 2533.9 1160.5 2545.5 1160.5L2875.5 1160.5C2887.1 1160.5 2896.5 1169.9 2896.5 1181.5L2896.5 1265.5C2896.5 1277.1 2887.1 1286.5 2875.5 1286.5L2545.5 1286.5C2533.9 1286.5 2524.5 1277.1 2524.5 1265.5Z" stroke="#000000" stroke-width="6.875" stroke-linecap="butt" stroke-linejoin="miter" stroke-miterlimit="8" stroke-opacity="1" fill="#76D6FF" fill-rule="evenodd" fill-opacity="1"/><text fill="#000000" fill-opacity="1" font-family="Calibri,Calibri_MSFontService,sans-serif" font-style="normal" font-variant="normal" font-weight="700" font-stretch="normal" font-size="73" text-anchor="start" direction="ltr" writing-mode="lr-tb" unicode-bidi="normal" text-decoration="none" transform="matrix(1 0 0 1 2618.12 1248)">SMN2</text><path d="M2951.5 1181.5C2951.5 1169.9 2960.9 1160.5 2972.5 1160.5L3301.5 1160.5C3313.1 1160.5 3322.5 1169.9 3322.5 1181.5L3322.5 1265.5C3322.5 1277.1 3313.1 1286.5 3301.5 1286.5L2972.5 1286.5C2960.9 1286.5 2951.5 1277.1 2951.5 1265.5Z" stroke="#000000" stroke-width="6.875" stroke-linecap="butt" stroke-linejoin="miter" stroke-miterlimit="8" stroke-opacity="1" fill="#76D6FF" fill-rule="evenodd" fill-opacity="1"/><text fill="#000000" fill-opacity="1" font-family="Calibri,Calibri_MSFontService,sans-serif" font-style="normal" font-variant="normal" font-weight="700" font-stretch="normal" font-size="73" text-anchor="start" direction="ltr" writing-mode="lr-tb" unicode-bidi="normal" text-decoration="none" transform="matrix(1 0 0 1 3044.26 1248)">SMN2</text></g></svg>