<svg width="1774" height="302" xmlns="http://www.w3.org/2000/svg" xmlns:xlink="http://www.w3.org/1999/xlink" overflow="hidden"><defs><clipPath id="clip0"><rect x="1608" y="1833" width="1774" height="302"/></clipPath></defs><g clip-path="url(#clip0)" transform="translate(-1608 -1833)"><path d="M3381.43 2049.5 1614.5 2049.5" stroke="#000000" stroke-width="9.16667" stroke-linecap="butt" stroke-linejoin="miter" stroke-miterlimit="8" stroke-opacity="1" fill="none" fill-rule="evenodd"/><path d="M3381.43 1903.5 1614.5 1903.5" stroke="#000000" stroke-width="9.16667" stroke-linecap="butt" stroke-linejoin="miter" stroke-miterlimit="8" stroke-opacity="1" fill="none" fill-rule="evenodd"/><path d="M2096.5 1858.5C2096.5 1846.9 2105.9 1837.5 2117.5 1837.5L2447.5 1837.5C2459.1 1837.5 2468.5 1846.9 2468.5 1858.5L2468.5 1942.5C2468.5 1954.1 2459.1 1963.5 2447.5 1963.5L2117.5 1963.5C2105.9 1963.5 2096.5 1954.1 2096.5 1942.5Z" stroke="#000000" stroke-width="6.875" stroke-linecap="butt" stroke-linejoin="miter" stroke-miterlimit="8" stroke-opacity="1" fill="#0432FF" fill-rule="evenodd" fill-opacity="1"/><text fill="#FFFFFF" fill-opacity="1" font-family="Calibri,Calibri_MSFontService,sans-serif" font-style="normal" font-variant="normal" font-weight="700" font-stretch="normal" font-size="73" text-anchor="start" direction="ltr" writing-mode="lr-tb" unicode-bidi="normal" text-decoration="none" transform="matrix(1 0 0 1 2189.38 1925)">SMN1</text><path d="M1666.5 1858.5C1666.5 1846.9 1675.9 1837.5 1687.5 1837.5L2017.5 1837.5C2029.1 1837.5 2038.5 1846.9 2038.5 1858.5L2038.5 1942.5C2038.5 1954.1 2029.1 1963.5 2017.5 1963.5L1687.5 1963.5C1675.9 1963.5 1666.5 1954.1 1666.5 1942.5Z" stroke="#000000" stroke-width="6.875" stroke-linecap="butt" stroke-linejoin="miter" stroke-miterlimit="8" stroke-opacity="1" fill="#0432FF" fill-rule="evenodd" fill-opacity="1"/><text fill="#FFFFFF" fill-opacity="1" font-family="Calibri,Calibri_MSFontService,sans-serif" font-style="normal" font-variant="normal" font-weight="700" font-stretch="normal" font-size="73" text-anchor="start" direction="ltr" writing-mode="lr-tb" unicode-bidi="normal" text-decoration="none" transform="matrix(1 0 0 1 1760.14 1925)">SMN1</text><path d="M2096.5 2003.5C2096.5 1991.9 2105.9 1982.5 2117.5 1982.5L2447.5 1982.5C2459.1 1982.5 2468.5 1991.9 2468.5 2003.5L2468.5 2087.5C2468.5 2099.1 2459.1 2108.5 2447.5 2108.5L2117.5 2108.5C2105.9 2108.5 2096.5 2099.1 2096.5 2087.5Z" stroke="#000000" stroke-width="6.875" stroke-linecap="butt" stroke-linejoin="miter" stroke-miterlimit="8" stroke-dasharray="20.625 6.875" stroke-opacity="1" fill="#FFFFFF" fill-rule="evenodd" fill-opacity="1"/><text fill="#BFBFBF" fill-opacity="1" font-family="Calibri,Calibri_MSFontService,sans-serif" font-style="normal" font-variant="normal" font-weight="700" font-stretch="normal" font-size="73" text-anchor="start" direction="ltr" writing-mode="lr-tb" unicode-bidi="normal" text-decoration="none" transform="matrix(1 0 0 1 2189.38 2070)">SMN1</text><path d="M2524.5 1858.5C2524.5 1846.9 2533.9 1837.5 2545.5 1837.5L2875.5 1837.5C2887.1 1837.5 2896.5 1846.9 2896.5 1858.5L2896.5 1942.5C2896.5 1954.1 2887.1 1963.5 2875.5 1963.5L2545.5 1963.5C2533.9 1963.5 2524.5 1954.1 2524.5 1942.5Z" stroke="#000000" stroke-width="6.875" stroke-linecap="butt" stroke-linejoin="miter" stroke-miterlimit="8" stroke-opacity="1" fill="#76D6FF" fill-rule="evenodd" fill-opacity="1"/><text fill="#000000" fill-opacity="1" font-family="Calibri,Calibri_MSFontService,sans-serif" font-style="normal" font-variant="normal" font-weight="700" font-stretch="normal" font-size="73" text-anchor="start" direction="ltr" writing-mode="lr-tb" unicode-bidi="normal" text-decoration="none" transform="matrix(1 0 0 1 2618.12 1925)">SMN2</text><path d="M2524.5 2003.5C2524.5 1991.9 2533.9 1982.5 2545.5 1982.5L2875.5 1982.5C2887.1 1982.5 2896.5 1991.9 2896.5 2003.5L2896.5 2087.5C2896.5 2099.1 2887.1 2108.5 2875.5 2108.5L2545.5 2108.5C2533.9 2108.5 2524.5 2099.1 2524.5 2087.5Z" stroke="#000000" stroke-width="6.875" stroke-linecap="butt" stroke-linejoin="miter" stroke-miterlimit="8" stroke-dasharray="20.625 6.875" stroke-opacity="1" fill="#FFFFFF" fill-rule="evenodd" fill-opacity="1"/><text fill="#BFBFBF" fill-opacity="1" font-family="Calibri,Calibri_MSFontService,sans-serif" font-style="normal" font-variant="normal" font-weight="700" font-stretch="normal" font-size="73" text-anchor="start" direction="ltr" writing-mode="lr-tb" unicode-bidi="normal" text-decoration="none" transform="matrix(1 0 0 1 2618.12 2070)">SMN2</text><path d="M2951.5 1858.5C2951.5 1846.9 2960.9 1837.5 2972.5 1837.5L3301.5 1837.5C3313.1 1837.5 3322.5 1846.9 3322.5 1858.5L3322.5 1942.5C3322.5 1954.1 3313.1 1963.5 3301.5 1963.5L2972.5 1963.5C2960.9 1963.5 2951.5 1954.1 2951.5 1942.5Z" stroke="#000000" stroke-width="6.875" stroke-linecap="butt" stroke-linejoin="miter" stroke-miterlimit="8" stroke-opacity="1" fill="#76D6FF" fill-rule="evenodd" fill-opacity="1"/><text fill="#000000" fill-opacity="1" font-family="Calibri,Calibri_MSFontService,sans-serif" font-style="normal" font-variant="normal" font-weight="700" font-stretch="normal" font-size="73" text-anchor="start" direction="ltr" writing-mode="lr-tb" unicode-bidi="normal" text-decoration="none" transform="matrix(1 0 0 1 3044.26 1925)">SMN2</text></g></svg>