<svg width="2218" height="303" xmlns="http://www.w3.org/2000/svg" xmlns:xlink="http://www.w3.org/1999/xlink" overflow="hidden"><defs><clipPath id="clip0"><rect x="18" y="1764" width="2218" height="303"/></clipPath></defs><g clip-path="url(#clip0)" transform="translate(-18 -1764)"><path d="M2234.16 1981.5 25.4998 1981.5" stroke="#000000" stroke-width="9.16667" stroke-linecap="butt" stroke-linejoin="miter" stroke-miterlimit="8" stroke-opacity="1" fill="none" fill-rule="evenodd"/><path d="M2234.16 1834.5 25.4998 1834.5" stroke="#000000" stroke-width="9.16667" stroke-linecap="butt" stroke-linejoin="miter" stroke-miterlimit="8" stroke-opacity="1" fill="none" fill-rule="evenodd"/><path d="M522.5 1789.5C522.5 1777.9 531.902 1768.5 543.5 1768.5L873.5 1768.5C885.098 1768.5 894.5 1777.9 894.5 1789.5L894.5 1873.5C894.5 1885.1 885.098 1894.5 873.5 1894.5L543.5 1894.5C531.902 1894.5 522.5 1885.1 522.5 1873.5Z" stroke="#000000" stroke-width="6.875" stroke-linecap="butt" stroke-linejoin="miter" stroke-miterlimit="8" stroke-opacity="1" fill="#0432FF" fill-rule="evenodd" fill-opacity="1"/><text fill="#FFFFFF" fill-opacity="1" font-family="Calibri,Calibri_MSFontService,sans-serif" font-style="normal" font-variant="normal" font-weight="700" font-stretch="normal" font-size="73" text-anchor="start" direction="ltr" writing-mode="lr-tb" unicode-bidi="normal" text-decoration="none" transform="matrix(1 0 0 1 616.03 1856)">SMN1</text><path d="M93.5 1789.5C93.5 1777.9 102.902 1768.5 114.5 1768.5L444.5 1768.5C456.098 1768.5 465.5 1777.9 465.5 1789.5L465.5 1873.5C465.5 1885.1 456.098 1894.5 444.5 1894.5L114.5 1894.5C102.902 1894.5 93.5 1885.1 93.5 1873.5Z" stroke="#000000" stroke-width="6.875" stroke-linecap="butt" stroke-linejoin="miter" stroke-miterlimit="8" stroke-opacity="1" fill="#0432FF" fill-rule="evenodd" fill-opacity="1"/><text fill="#FFFFFF" fill-opacity="1" font-family="Calibri,Calibri_MSFontService,sans-serif" font-style="normal" font-variant="normal" font-weight="700" font-stretch="normal" font-size="73" text-anchor="start" direction="ltr" writing-mode="lr-tb" unicode-bidi="normal" text-decoration="none" transform="matrix(1 0 0 1 186.823 1856)">SMN1</text><path d="M522.5 1935.5C522.5 1923.9 531.902 1914.5 543.5 1914.5L873.5 1914.5C885.098 1914.5 894.5 1923.9 894.5 1935.5L894.5 2019.5C894.5 2031.1 885.098 2040.5 873.5 2040.5L543.5 2040.5C531.902 2040.5 522.5 2031.1 522.5 2019.5Z" stroke="#000000" stroke-width="6.875" stroke-linecap="butt" stroke-linejoin="miter" stroke-miterlimit="8" stroke-dasharray="20.625 6.875" stroke-opacity="1" fill="#FFFFFF" fill-rule="evenodd" fill-opacity="1"/><text fill="#BFBFBF" fill-opacity="1" font-family="Calibri,Calibri_MSFontService,sans-serif" font-style="normal" font-variant="normal" font-weight="700" font-stretch="normal" font-size="73" text-anchor="start" direction="ltr" writing-mode="lr-tb" unicode-bidi="normal" text-decoration="none" transform="matrix(1 0 0 1 616.03 2002)">SMN1</text><path d="M951.5 1789.5C951.5 1777.9 960.902 1768.5 972.5 1768.5L1302.5 1768.5C1314.1 1768.5 1323.5 1777.9 1323.5 1789.5L1323.5 1873.5C1323.5 1885.1 1314.1 1894.5 1302.5 1894.5L972.5 1894.5C960.902 1894.5 951.5 1885.1 951.5 1873.5Z" stroke="#000000" stroke-width="6.875" stroke-linecap="butt" stroke-linejoin="miter" stroke-miterlimit="8" stroke-dasharray="20.625 6.875" stroke-opacity="1" fill="#FFFFFF" fill-rule="evenodd" fill-opacity="1"/><text fill="#BFBFBF" fill-opacity="1" font-family="Calibri,Calibri_MSFontService,sans-serif" font-style="normal" font-variant="normal" font-weight="700" font-stretch="normal" font-size="73" text-anchor="start" direction="ltr" writing-mode="lr-tb" unicode-bidi="normal" text-decoration="none" transform="matrix(1 0 0 1 1044.77 1856)">SMN2</text><path d="M951.5 1935.5C951.5 1923.9 960.902 1914.5 972.5 1914.5L1302.5 1914.5C1314.1 1914.5 1323.5 1923.9 1323.5 1935.5L1323.5 2019.5C1323.5 2031.1 1314.1 2040.5 1302.5 2040.5L972.5 2040.5C960.902 2040.5 951.5 2031.1 951.5 2019.5Z" stroke="#000000" stroke-width="6.875" stroke-linecap="butt" stroke-linejoin="miter" stroke-miterlimit="8" stroke-opacity="1" fill="#76D6FF" fill-rule="evenodd" fill-opacity="1"/><text fill="#000000" fill-opacity="1" font-family="Calibri,Calibri_MSFontService,sans-serif" font-style="normal" font-variant="normal" font-weight="700" font-stretch="normal" font-size="73" text-anchor="start" direction="ltr" writing-mode="lr-tb" unicode-bidi="normal" text-decoration="none" transform="matrix(1 0 0 1 1044.77 2002)">SMN2</text><path d="M1380.5 1935.5C1380.5 1923.9 1389.9 1914.5 1401.5 1914.5L1731.5 1914.5C1743.1 1914.5 1752.5 1923.9 1752.5 1935.5L1752.5 2019.5C1752.5 2031.1 1743.1 2040.5 1731.5 2040.5L1401.5 2040.5C1389.9 2040.5 1380.5 2031.1 1380.5 2019.5Z" stroke="#000000" stroke-width="6.875" stroke-linecap="butt" stroke-linejoin="miter" stroke-miterlimit="8" stroke-opacity="1" fill="#76D6FF" fill-rule="evenodd" fill-opacity="1"/><text fill="#000000" fill-opacity="1" font-family="Calibri,Calibri_MSFontService,sans-serif" font-style="normal" font-variant="normal" font-weight="700" font-stretch="normal" font-size="73" text-anchor="start" direction="ltr" writing-mode="lr-tb" unicode-bidi="normal" text-decoration="none" transform="matrix(1 0 0 1 1473.51 2002)">SMN2</text><path d="M1809.5 1935.5C1809.5 1923.9 1818.9 1914.5 1830.5 1914.5L2159.5 1914.5C2171.1 1914.5 2180.5 1923.9 2180.5 1935.5L2180.5 2019.5C2180.5 2031.1 2171.1 2040.5 2159.5 2040.5L1830.5 2040.5C1818.9 2040.5 1809.5 2031.1 1809.5 2019.5Z" stroke="#000000" stroke-width="6.875" stroke-linecap="butt" stroke-linejoin="miter" stroke-miterlimit="8" stroke-opacity="1" fill="#76D6FF" fill-rule="evenodd" fill-opacity="1"/><text fill="#000000" fill-opacity="1" font-family="Calibri,Calibri_MSFontService,sans-serif" font-style="normal" font-variant="normal" font-weight="700" font-stretch="normal" font-size="73" text-anchor="start" direction="ltr" writing-mode="lr-tb" unicode-bidi="normal" text-decoration="none" transform="matrix(1 0 0 1 1902.25 2002)">SMN2</text></g></svg>