<svg width="1774" height="307" xmlns="http://www.w3.org/2000/svg" xmlns:xlink="http://www.w3.org/1999/xlink" overflow="hidden"><defs><clipPath id="clip0"><rect x="27" y="1104" width="1774" height="307"/></clipPath></defs><g clip-path="url(#clip0)" transform="translate(-27 -1104)"><path d="M1799.43 1323.5 32.5002 1323.5" stroke="#000000" stroke-width="9.16667" stroke-linecap="butt" stroke-linejoin="miter" stroke-miterlimit="8" stroke-opacity="1" fill="none" fill-rule="evenodd"/><path d="M1799.43 1176.5 32.5002 1176.5" stroke="#000000" stroke-width="9.16667" stroke-linecap="butt" stroke-linejoin="miter" stroke-miterlimit="8" stroke-opacity="1" fill="none" fill-rule="evenodd"/><path d="M522.5 1132.5C522.5 1120.9 531.902 1111.5 543.5 1111.5L873.5 1111.5C885.098 1111.5 894.5 1120.9 894.5 1132.5L894.5 1216.5C894.5 1228.1 885.098 1237.5 873.5 1237.5L543.5 1237.5C531.902 1237.5 522.5 1228.1 522.5 1216.5Z" stroke="#000000" stroke-width="6.875" stroke-linecap="butt" stroke-linejoin="miter" stroke-miterlimit="8" stroke-opacity="1" fill="#0432FF" fill-rule="evenodd" fill-opacity="1"/><text fill="#FFFFFF" fill-opacity="1" font-family="Calibri,Calibri_MSFontService,sans-serif" font-style="normal" font-variant="normal" font-weight="700" font-stretch="normal" font-size="73" text-anchor="start" direction="ltr" writing-mode="lr-tb" unicode-bidi="normal" text-decoration="none" transform="matrix(1 0 0 1 616.03 1199)">SMN1</text><path d="M93.5 1132.5C93.5 1120.9 102.902 1111.5 114.5 1111.5L444.5 1111.5C456.098 1111.5 465.5 1120.9 465.5 1132.5L465.5 1216.5C465.5 1228.1 456.098 1237.5 444.5 1237.5L114.5 1237.5C102.902 1237.5 93.5 1228.1 93.5 1216.5Z" stroke="#000000" stroke-width="6.875" stroke-linecap="butt" stroke-linejoin="miter" stroke-miterlimit="8" stroke-opacity="1" fill="#0432FF" fill-rule="evenodd" fill-opacity="1"/><text fill="#FFFFFF" fill-opacity="1" font-family="Calibri,Calibri_MSFontService,sans-serif" font-style="normal" font-variant="normal" font-weight="700" font-stretch="normal" font-size="73" text-anchor="start" direction="ltr" writing-mode="lr-tb" unicode-bidi="normal" text-decoration="none" transform="matrix(1 0 0 1 186.823 1199)">SMN1</text><path d="M522.5 1277.5C522.5 1265.9 531.902 1256.5 543.5 1256.5L873.5 1256.5C885.098 1256.5 894.5 1265.9 894.5 1277.5L894.5 1361.5C894.5 1373.1 885.098 1382.5 873.5 1382.5L543.5 1382.5C531.902 1382.5 522.5 1373.1 522.5 1361.5Z" stroke="#000000" stroke-width="6.875" stroke-linecap="butt" stroke-linejoin="miter" stroke-miterlimit="8" stroke-dasharray="20.625 6.875" stroke-opacity="1" fill="#FFFFFF" fill-rule="evenodd" fill-opacity="1"/><text fill="#BFBFBF" fill-opacity="1" font-family="Calibri,Calibri_MSFontService,sans-serif" font-style="normal" font-variant="normal" font-weight="700" font-stretch="normal" font-size="73" text-anchor="start" direction="ltr" writing-mode="lr-tb" unicode-bidi="normal" text-decoration="none" transform="matrix(1 0 0 1 616.03 1344)">SMN1</text><path d="M951.5 1132.5C951.5 1120.9 960.902 1111.5 972.5 1111.5L1302.5 1111.5C1314.1 1111.5 1323.5 1120.9 1323.5 1132.5L1323.5 1216.5C1323.5 1228.1 1314.1 1237.5 1302.5 1237.5L972.5 1237.5C960.902 1237.5 951.5 1228.1 951.5 1216.5Z" stroke="#000000" stroke-width="6.875" stroke-linecap="butt" stroke-linejoin="miter" stroke-miterlimit="8" stroke-opacity="1" fill="#76D6FF" fill-rule="evenodd" fill-opacity="1"/><text fill="#000000" fill-opacity="1" font-family="Calibri,Calibri_MSFontService,sans-serif" font-style="normal" font-variant="normal" font-weight="700" font-stretch="normal" font-size="73" text-anchor="start" direction="ltr" writing-mode="lr-tb" unicode-bidi="normal" text-decoration="none" transform="matrix(1 0 0 1 1044.77 1199)">SMN2</text><path d="M951.5 1277.5C951.5 1265.9 960.902 1256.5 972.5 1256.5L1302.5 1256.5C1314.1 1256.5 1323.5 1265.9 1323.5 1277.5L1323.5 1361.5C1323.5 1373.1 1314.1 1382.5 1302.5 1382.5L972.5 1382.5C960.902 1382.5 951.5 1373.1 951.5 1361.5Z" stroke="#000000" stroke-width="6.875" stroke-linecap="butt" stroke-linejoin="miter" stroke-miterlimit="8" stroke-opacity="1" fill="#76D6FF" fill-rule="evenodd" fill-opacity="1"/><text fill="#000000" fill-opacity="1" font-family="Calibri,Calibri_MSFontService,sans-serif" font-style="normal" font-variant="normal" font-weight="700" font-stretch="normal" font-size="73" text-anchor="start" direction="ltr" writing-mode="lr-tb" unicode-bidi="normal" text-decoration="none" transform="matrix(1 0 0 1 1044.77 1344)">SMN2</text><path d="M1380.5 1277.5C1380.5 1265.9 1389.9 1256.5 1401.5 1256.5L1731.5 1256.5C1743.1 1256.5 1752.5 1265.9 1752.5 1277.5L1752.5 1361.5C1752.5 1373.1 1743.1 1382.5 1731.5 1382.5L1401.5 1382.5C1389.9 1382.5 1380.5 1373.1 1380.5 1361.5Z" stroke="#000000" stroke-width="6.875" stroke-linecap="butt" stroke-linejoin="miter" stroke-miterlimit="8" stroke-opacity="1" fill="#76D6FF" fill-rule="evenodd" fill-opacity="1"/><text fill="#000000" fill-opacity="1" font-family="Calibri,Calibri_MSFontService,sans-serif" font-style="normal" font-variant="normal" font-weight="700" font-stretch="normal" font-size="73" text-anchor="start" direction="ltr" writing-mode="lr-tb" unicode-bidi="normal" text-decoration="none" transform="matrix(1 0 0 1 1473.51 1344)">SMN2</text></g></svg>