<svg width="2218" height="303" xmlns="http://www.w3.org/2000/svg" xmlns:xlink="http://www.w3.org/1999/xlink" overflow="hidden"><defs><clipPath id="clip0"><rect x="18" y="1443" width="2218" height="303"/></clipPath></defs><g clip-path="url(#clip0)" transform="translate(-18 -1443)"><path d="M2234.16 1660.5 25.4998 1660.5" stroke="#000000" stroke-width="9.16667" stroke-linecap="butt" stroke-linejoin="miter" stroke-miterlimit="8" stroke-opacity="1" fill="none" fill-rule="evenodd"/><path d="M2234.16 1514.5 25.4998 1514.5" stroke="#000000" stroke-width="9.16667" stroke-linecap="butt" stroke-linejoin="miter" stroke-miterlimit="8" stroke-opacity="1" fill="none" fill-rule="evenodd"/><path d="M522.5 1468.5C522.5 1456.9 531.902 1447.5 543.5 1447.5L873.5 1447.5C885.098 1447.5 894.5 1456.9 894.5 1468.5L894.5 1552.5C894.5 1564.1 885.098 1573.5 873.5 1573.5L543.5 1573.5C531.902 1573.5 522.5 1564.1 522.5 1552.5Z" stroke="#000000" stroke-width="6.875" stroke-linecap="butt" stroke-linejoin="miter" stroke-miterlimit="8" stroke-opacity="1" fill="#0432FF" fill-rule="evenodd" fill-opacity="1"/><text fill="#FFFFFF" fill-opacity="1" font-family="Calibri,Calibri_MSFontService,sans-serif" font-style="normal" font-variant="normal" font-weight="700" font-stretch="normal" font-size="73" text-anchor="start" direction="ltr" writing-mode="lr-tb" unicode-bidi="normal" text-decoration="none" transform="matrix(1 0 0 1 616.03 1535)">SMN1</text><path d="M93.5 1468.5C93.5 1456.9 102.902 1447.5 114.5 1447.5L444.5 1447.5C456.098 1447.5 465.5 1456.9 465.5 1468.5L465.5 1552.5C465.5 1564.1 456.098 1573.5 444.5 1573.5L114.5 1573.5C102.902 1573.5 93.5 1564.1 93.5 1552.5Z" stroke="#000000" stroke-width="6.875" stroke-linecap="butt" stroke-linejoin="miter" stroke-miterlimit="8" stroke-opacity="1" fill="#0432FF" fill-rule="evenodd" fill-opacity="1"/><text fill="#FFFFFF" fill-opacity="1" font-family="Calibri,Calibri_MSFontService,sans-serif" font-style="normal" font-variant="normal" font-weight="700" font-stretch="normal" font-size="73" text-anchor="start" direction="ltr" writing-mode="lr-tb" unicode-bidi="normal" text-decoration="none" transform="matrix(1 0 0 1 186.823 1535)">SMN1</text><path d="M522.5 1614.5C522.5 1602.9 531.902 1593.5 543.5 1593.5L873.5 1593.5C885.098 1593.5 894.5 1602.9 894.5 1614.5L894.5 1698.5C894.5 1710.1 885.098 1719.5 873.5 1719.5L543.5 1719.5C531.902 1719.5 522.5 1710.1 522.5 1698.5Z" stroke="#000000" stroke-width="6.875" stroke-linecap="butt" stroke-linejoin="miter" stroke-miterlimit="8" stroke-dasharray="20.625 6.875" stroke-opacity="1" fill="#FFFFFF" fill-rule="evenodd" fill-opacity="1"/><text fill="#BFBFBF" fill-opacity="1" font-family="Calibri,Calibri_MSFontService,sans-serif" font-style="normal" font-variant="normal" font-weight="700" font-stretch="normal" font-size="73" text-anchor="start" direction="ltr" writing-mode="lr-tb" unicode-bidi="normal" text-decoration="none" transform="matrix(1 0 0 1 616.03 1681)">SMN1</text><path d="M951.5 1614.5C951.5 1602.9 960.902 1593.5 972.5 1593.5L1302.5 1593.5C1314.1 1593.5 1323.5 1602.9 1323.5 1614.5L1323.5 1698.5C1323.5 1710.1 1314.1 1719.5 1302.5 1719.5L972.5 1719.5C960.902 1719.5 951.5 1710.1 951.5 1698.5Z" stroke="#000000" stroke-width="6.875" stroke-linecap="butt" stroke-linejoin="miter" stroke-miterlimit="8" stroke-dasharray="20.625 6.875" stroke-opacity="1" fill="#FFFFFF" fill-rule="evenodd" fill-opacity="1"/><text fill="#BFBFBF" fill-opacity="1" font-family="Calibri,Calibri_MSFontService,sans-serif" font-style="normal" font-variant="normal" font-weight="700" font-stretch="normal" font-size="73" text-anchor="start" direction="ltr" writing-mode="lr-tb" unicode-bidi="normal" text-decoration="none" transform="matrix(1 0 0 1 1044.77 1681)">SMN2</text><path d="M951.5 1468.5C951.5 1456.9 960.902 1447.5 972.5 1447.5L1302.5 1447.5C1314.1 1447.5 1323.5 1456.9 1323.5 1468.5L1323.5 1552.5C1323.5 1564.1 1314.1 1573.5 1302.5 1573.5L972.5 1573.5C960.902 1573.5 951.5 1564.1 951.5 1552.5Z" stroke="#000000" stroke-width="6.875" stroke-linecap="butt" stroke-linejoin="miter" stroke-miterlimit="8" stroke-opacity="1" fill="#76D6FF" fill-rule="evenodd" fill-opacity="1"/><text fill="#000000" fill-opacity="1" font-family="Calibri,Calibri_MSFontService,sans-serif" font-style="normal" font-variant="normal" font-weight="700" font-stretch="normal" font-size="73" text-anchor="start" direction="ltr" writing-mode="lr-tb" unicode-bidi="normal" text-decoration="none" transform="matrix(1 0 0 1 1044.77 1535)">SMN2</text><path d="M1380.5 1468.5C1380.5 1456.9 1389.9 1447.5 1401.5 1447.5L1731.5 1447.5C1743.1 1447.5 1752.5 1456.9 1752.5 1468.5L1752.5 1552.5C1752.5 1564.1 1743.1 1573.5 1731.5 1573.5L1401.5 1573.5C1389.9 1573.5 1380.5 1564.1 1380.5 1552.5Z" stroke="#000000" stroke-width="6.875" stroke-linecap="butt" stroke-linejoin="miter" stroke-miterlimit="8" stroke-opacity="1" fill="#76D6FF" fill-rule="evenodd" fill-opacity="1"/><text fill="#000000" fill-opacity="1" font-family="Calibri,Calibri_MSFontService,sans-serif" font-style="normal" font-variant="normal" font-weight="700" font-stretch="normal" font-size="73" text-anchor="start" direction="ltr" writing-mode="lr-tb" unicode-bidi="normal" text-decoration="none" transform="matrix(1 0 0 1 1473.51 1535)">SMN2</text><path d="M1809.5 1468.5C1809.5 1456.9 1818.9 1447.5 1830.5 1447.5L2159.5 1447.5C2171.1 1447.5 2180.5 1456.9 2180.5 1468.5L2180.5 1552.5C2180.5 1564.1 2171.1 1573.5 2159.5 1573.5L1830.5 1573.5C1818.9 1573.5 1809.5 1564.1 1809.5 1552.5Z" stroke="#000000" stroke-width="6.875" stroke-linecap="butt" stroke-linejoin="miter" stroke-miterlimit="8" stroke-opacity="1" fill="#76D6FF" fill-rule="evenodd" fill-opacity="1"/><text fill="#000000" fill-opacity="1" font-family="Calibri,Calibri_MSFontService,sans-serif" font-style="normal" font-variant="normal" font-weight="700" font-stretch="normal" font-size="73" text-anchor="start" direction="ltr" writing-mode="lr-tb" unicode-bidi="normal" text-decoration="none" transform="matrix(1 0 0 1 1902.25 1535)">SMN2</text></g></svg>