<svg width="1774" height="303" xmlns="http://www.w3.org/2000/svg" xmlns:xlink="http://www.w3.org/1999/xlink" overflow="hidden"><defs><clipPath id="clip0"><rect x="453" y="430" width="1774" height="303"/></clipPath></defs><g clip-path="url(#clip0)" transform="translate(-453 -430)"><path d="M2225.43 638.5 458.5 638.5" stroke="#000000" stroke-width="9.16667" stroke-linecap="butt" stroke-linejoin="miter" stroke-miterlimit="8" stroke-opacity="1" fill="none" fill-rule="evenodd"/><path d="M522.5 601.334C522.5 589.828 531.828 580.5 543.334 580.5L873.666 580.5C885.172 580.5 894.5 589.828 894.5 601.334L894.5 684.666C894.5 696.172 885.172 705.5 873.666 705.5L543.334 705.5C531.828 705.5 522.5 696.172 522.5 684.666Z" stroke="#000000" stroke-width="6.875" stroke-linecap="butt" stroke-linejoin="miter" stroke-miterlimit="8" stroke-opacity="1" fill="#0432FF" fill-rule="evenodd" fill-opacity="1"/><text fill="#FFFFFF" fill-opacity="1" font-family="Calibri,Calibri_MSFontService,sans-serif" font-style="normal" font-variant="normal" font-weight="700" font-stretch="normal" font-size="73" text-anchor="start" direction="ltr" writing-mode="lr-tb" unicode-bidi="normal" text-decoration="none" transform="matrix(1 0 0 1 616.03 668)">SMN1</text><path d="M2225.43 492.5 458.5 492.5" stroke="#000000" stroke-width="9.16667" stroke-linecap="butt" stroke-linejoin="miter" stroke-miterlimit="8" stroke-opacity="1" fill="none" fill-rule="evenodd"/><path d="M522.5 455.5C522.5 443.902 531.902 434.5 543.5 434.5L873.5 434.5C885.098 434.5 894.5 443.902 894.5 455.5L894.5 539.499C894.5 551.098 885.098 560.5 873.5 560.5L543.5 560.5C531.902 560.5 522.5 551.098 522.5 539.499Z" stroke="#000000" stroke-width="6.875" stroke-linecap="butt" stroke-linejoin="miter" stroke-miterlimit="8" stroke-opacity="1" fill="#0432FF" fill-rule="evenodd" fill-opacity="1"/><text fill="#FFFFFF" fill-opacity="1" font-family="Calibri,Calibri_MSFontService,sans-serif" font-style="normal" font-variant="normal" font-weight="700" font-stretch="normal" font-size="73" text-anchor="start" direction="ltr" writing-mode="lr-tb" unicode-bidi="normal" text-decoration="none" transform="matrix(1 0 0 1 616.03 522)">SMN1</text><path d="M951.5 601.334C951.5 589.828 960.828 580.5 972.334 580.5L1302.67 580.5C1314.17 580.5 1323.5 589.828 1323.5 601.334L1323.5 684.666C1323.5 696.172 1314.17 705.5 1302.67 705.5L972.334 705.5C960.828 705.5 951.5 696.172 951.5 684.666Z" stroke="#000000" stroke-width="6.875" stroke-linecap="butt" stroke-linejoin="miter" stroke-miterlimit="8" stroke-dasharray="20.625 6.875" stroke-opacity="1" fill="#FFFFFF" fill-rule="evenodd" fill-opacity="1"/><text fill="#BFBFBF" fill-opacity="1" font-family="Calibri,Calibri_MSFontService,sans-serif" font-style="normal" font-variant="normal" font-weight="700" font-stretch="normal" font-size="73" text-anchor="start" direction="ltr" writing-mode="lr-tb" unicode-bidi="normal" text-decoration="none" transform="matrix(1 0 0 1 1044.77 668)">SMN2</text><path d="M951.5 455.5C951.5 443.902 960.902 434.5 972.5 434.5L1302.5 434.5C1314.1 434.5 1323.5 443.902 1323.5 455.5L1323.5 539.499C1323.5 551.098 1314.1 560.5 1302.5 560.5L972.5 560.5C960.902 560.5 951.5 551.098 951.5 539.499Z" stroke="#000000" stroke-width="6.875" stroke-linecap="butt" stroke-linejoin="miter" stroke-miterlimit="8" stroke-opacity="1" fill="#76D6FF" fill-rule="evenodd" fill-opacity="1"/><text fill="#000000" fill-opacity="1" font-family="Calibri,Calibri_MSFontService,sans-serif" font-style="normal" font-variant="normal" font-weight="700" font-stretch="normal" font-size="73" text-anchor="start" direction="ltr" writing-mode="lr-tb" unicode-bidi="normal" text-decoration="none" transform="matrix(1 0 0 1 1044.77 522)">SMN2</text><path d="M1380.5 455.5C1380.5 443.902 1389.9 434.5 1401.5 434.5L1731.5 434.5C1743.1 434.5 1752.5 443.902 1752.5 455.5L1752.5 539.499C1752.5 551.098 1743.1 560.5 1731.5 560.5L1401.5 560.5C1389.9 560.5 1380.5 551.098 1380.5 539.499Z" stroke="#000000" stroke-width="6.875" stroke-linecap="butt" stroke-linejoin="miter" stroke-miterlimit="8" stroke-opacity="1" fill="#76D6FF" fill-rule="evenodd" fill-opacity="1"/><text fill="#000000" fill-opacity="1" font-family="Calibri,Calibri_MSFontService,sans-serif" font-style="normal" font-variant="normal" font-weight="700" font-stretch="normal" font-size="73" text-anchor="start" direction="ltr" writing-mode="lr-tb" unicode-bidi="normal" text-decoration="none" transform="matrix(1 0 0 1 1473.51 522)">SMN2</text><path d="M1809.5 455.5C1809.5 443.902 1818.9 434.5 1830.5 434.5L2159.5 434.5C2171.1 434.5 2180.5 443.902 2180.5 455.5L2180.5 539.5C2180.5 551.098 2171.1 560.5 2159.5 560.5L1830.5 560.5C1818.9 560.5 1809.5 551.098 1809.5 539.5Z" stroke="#000000" stroke-width="6.875" stroke-linecap="butt" stroke-linejoin="miter" stroke-miterlimit="8" stroke-opacity="1" fill="#76D6FF" fill-rule="evenodd" fill-opacity="1"/><text fill="#000000" fill-opacity="1" font-family="Calibri,Calibri_MSFontService,sans-serif" font-style="normal" font-variant="normal" font-weight="700" font-stretch="normal" font-size="73" text-anchor="start" direction="ltr" writing-mode="lr-tb" unicode-bidi="normal" text-decoration="none" transform="matrix(1 0 0 1 1902.25 522)">SMN2</text></g></svg>