<svg width="1774" height="302" xmlns="http://www.w3.org/2000/svg" xmlns:xlink="http://www.w3.org/1999/xlink" overflow="hidden"><defs><clipPath id="clip0"><rect x="27" y="770" width="1774" height="302"/></clipPath></defs><g clip-path="url(#clip0)" transform="translate(-27 -770)"><path d="M1799.43 987.5 32.5002 987.5" stroke="#000000" stroke-width="9.16667" stroke-linecap="butt" stroke-linejoin="miter" stroke-miterlimit="8" stroke-opacity="1" fill="none" fill-rule="evenodd"/><path d="M1799.43 840.5 32.5002 840.5" stroke="#000000" stroke-width="9.16667" stroke-linecap="butt" stroke-linejoin="miter" stroke-miterlimit="8" stroke-opacity="1" fill="none" fill-rule="evenodd"/><path d="M522.5 794.5C522.5 782.902 531.902 773.5 543.5 773.5L873.5 773.5C885.098 773.5 894.5 782.902 894.5 794.5L894.5 878.499C894.5 890.098 885.098 899.5 873.5 899.5L543.5 899.5C531.902 899.5 522.5 890.098 522.5 878.499Z" stroke="#000000" stroke-width="6.875" stroke-linecap="butt" stroke-linejoin="miter" stroke-miterlimit="8" stroke-opacity="1" fill="#0432FF" fill-rule="evenodd" fill-opacity="1"/><text fill="#FFFFFF" fill-opacity="1" font-family="Calibri,Calibri_MSFontService,sans-serif" font-style="normal" font-variant="normal" font-weight="700" font-stretch="normal" font-size="73" text-anchor="start" direction="ltr" writing-mode="lr-tb" unicode-bidi="normal" text-decoration="none" transform="matrix(1 0 0 1 616.03 861)">SMN1</text><path d="M93.5 794.5C93.5 782.902 102.902 773.5 114.5 773.5L444.5 773.5C456.098 773.5 465.5 782.902 465.5 794.5L465.5 878.499C465.5 890.098 456.098 899.5 444.5 899.5L114.5 899.5C102.902 899.5 93.5 890.098 93.5 878.499Z" stroke="#000000" stroke-width="6.875" stroke-linecap="butt" stroke-linejoin="miter" stroke-miterlimit="8" stroke-opacity="1" fill="#0432FF" fill-rule="evenodd" fill-opacity="1"/><text fill="#FFFFFF" fill-opacity="1" font-family="Calibri,Calibri_MSFontService,sans-serif" font-style="normal" font-variant="normal" font-weight="700" font-stretch="normal" font-size="73" text-anchor="start" direction="ltr" writing-mode="lr-tb" unicode-bidi="normal" text-decoration="none" transform="matrix(1 0 0 1 186.823 861)">SMN1</text><path d="M522.5 940.5C522.5 928.902 531.902 919.5 543.5 919.5L873.5 919.5C885.098 919.5 894.5 928.902 894.5 940.5L894.5 1024.5C894.5 1036.1 885.098 1045.5 873.5 1045.5L543.5 1045.5C531.902 1045.5 522.5 1036.1 522.5 1024.5Z" stroke="#000000" stroke-width="6.875" stroke-linecap="butt" stroke-linejoin="miter" stroke-miterlimit="8" stroke-dasharray="20.625 6.875" stroke-opacity="1" fill="#FFFFFF" fill-rule="evenodd" fill-opacity="1"/><text fill="#BFBFBF" fill-opacity="1" font-family="Calibri,Calibri_MSFontService,sans-serif" font-style="normal" font-variant="normal" font-weight="700" font-stretch="normal" font-size="73" text-anchor="start" direction="ltr" writing-mode="lr-tb" unicode-bidi="normal" text-decoration="none" transform="matrix(1 0 0 1 616.03 1007)">SMN1</text><path d="M951.5 794.5C951.5 782.902 960.902 773.5 972.5 773.5L1302.5 773.5C1314.1 773.5 1323.5 782.902 1323.5 794.5L1323.5 878.499C1323.5 890.098 1314.1 899.5 1302.5 899.5L972.5 899.5C960.902 899.5 951.5 890.098 951.5 878.499Z" stroke="#000000" stroke-width="6.875" stroke-linecap="butt" stroke-linejoin="miter" stroke-miterlimit="8" stroke-opacity="1" fill="#76D6FF" fill-rule="evenodd" fill-opacity="1"/><text fill="#000000" fill-opacity="1" font-family="Calibri,Calibri_MSFontService,sans-serif" font-style="normal" font-variant="normal" font-weight="700" font-stretch="normal" font-size="73" text-anchor="start" direction="ltr" writing-mode="lr-tb" unicode-bidi="normal" text-decoration="none" transform="matrix(1 0 0 1 1044.77 861)">SMN2</text><path d="M951.5 940.5C951.5 928.902 960.902 919.5 972.5 919.5L1302.5 919.5C1314.1 919.5 1323.5 928.902 1323.5 940.5L1323.5 1024.5C1323.5 1036.1 1314.1 1045.5 1302.5 1045.5L972.5 1045.5C960.902 1045.5 951.5 1036.1 951.5 1024.5Z" stroke="#000000" stroke-width="6.875" stroke-linecap="butt" stroke-linejoin="miter" stroke-miterlimit="8" stroke-opacity="1" fill="#76D6FF" fill-rule="evenodd" fill-opacity="1"/><text fill="#000000" fill-opacity="1" font-family="Calibri,Calibri_MSFontService,sans-serif" font-style="normal" font-variant="normal" font-weight="700" font-stretch="normal" font-size="73" text-anchor="start" direction="ltr" writing-mode="lr-tb" unicode-bidi="normal" text-decoration="none" transform="matrix(1 0 0 1 1044.77 1007)">SMN2</text><path d="M1380.5 794.5C1380.5 782.902 1389.9 773.5 1401.5 773.5L1731.5 773.5C1743.1 773.5 1752.5 782.902 1752.5 794.5L1752.5 878.499C1752.5 890.098 1743.1 899.5 1731.5 899.5L1401.5 899.5C1389.9 899.5 1380.5 890.098 1380.5 878.499Z" stroke="#000000" stroke-width="6.875" stroke-linecap="butt" stroke-linejoin="miter" stroke-miterlimit="8" stroke-opacity="1" fill="#76D6FF" fill-rule="evenodd" fill-opacity="1"/><text fill="#000000" fill-opacity="1" font-family="Calibri,Calibri_MSFontService,sans-serif" font-style="normal" font-variant="normal" font-weight="700" font-stretch="normal" font-size="73" text-anchor="start" direction="ltr" writing-mode="lr-tb" unicode-bidi="normal" text-decoration="none" transform="matrix(1 0 0 1 1473.51 861)">SMN2</text></g></svg>