<svg width="931" height="307" xmlns="http://www.w3.org/2000/svg" xmlns:xlink="http://www.w3.org/1999/xlink" overflow="hidden"><defs><clipPath id="clip0"><rect x="1915" y="623" width="931" height="307"/></clipPath></defs><g clip-path="url(#clip0)" transform="translate(-1915 -623)"><path d="M2845.94 846.5 1923.5 846.501" stroke="#000000" stroke-width="9.16667" stroke-linecap="butt" stroke-linejoin="miter" stroke-miterlimit="8" stroke-opacity="1" fill="none" fill-rule="evenodd"/><path d="M1981.5 795.5C1981.5 783.902 1990.9 774.5 2002.5 774.5L2332.5 774.5C2344.1 774.5 2353.5 783.902 2353.5 795.5L2353.5 879.499C2353.5 891.098 2344.1 900.5 2332.5 900.5L2002.5 900.5C1990.9 900.5 1981.5 891.098 1981.5 879.499Z" stroke="#000000" stroke-width="6.875" stroke-linecap="butt" stroke-linejoin="miter" stroke-miterlimit="8" stroke-dasharray="20.625 6.875" stroke-opacity="1" fill="#FFFFFF" fill-rule="evenodd" fill-opacity="1"/><text fill="#BFBFBF" fill-opacity="1" font-family="Calibri,Calibri_MSFontService,sans-serif" font-style="normal" font-variant="normal" font-weight="700" font-stretch="normal" font-size="73" text-anchor="start" direction="ltr" writing-mode="lr-tb" unicode-bidi="normal" text-decoration="none" transform="matrix(1 0 0 1 2075.05 862)">SMN1</text><path d="M2845.94 699.5 1923.5 699.5" stroke="#000000" stroke-width="9.16667" stroke-linecap="butt" stroke-linejoin="miter" stroke-miterlimit="8" stroke-opacity="1" fill="none" fill-rule="evenodd"/><path d="M2410.5 795.5C2410.5 783.902 2419.9 774.5 2431.5 774.5L2761.5 774.5C2773.1 774.5 2782.5 783.902 2782.5 795.5L2782.5 879.499C2782.5 891.098 2773.1 900.5 2761.5 900.5L2431.5 900.5C2419.9 900.5 2410.5 891.098 2410.5 879.499Z" stroke="#000000" stroke-width="6.875" stroke-linecap="butt" stroke-linejoin="miter" stroke-miterlimit="8" stroke-opacity="1" fill="#76D6FF" fill-rule="evenodd" fill-opacity="1"/><text fill="#000000" fill-opacity="1" font-family="Calibri,Calibri_MSFontService,sans-serif" font-style="normal" font-variant="normal" font-weight="700" font-stretch="normal" font-size="73" text-anchor="start" direction="ltr" writing-mode="lr-tb" unicode-bidi="normal" text-decoration="none" transform="matrix(1 0 0 1 2503.79 862)">SMN2</text><path d="M1981.5 649.334C1981.5 637.828 1990.83 628.5 2002.33 628.5L2332.67 628.5C2344.17 628.5 2353.5 637.828 2353.5 649.334L2353.5 732.666C2353.5 744.172 2344.17 753.5 2332.67 753.5L2002.33 753.5C1990.83 753.5 1981.5 744.172 1981.5 732.666Z" stroke="#000000" stroke-width="6.875" stroke-linecap="butt" stroke-linejoin="miter" stroke-miterlimit="8" stroke-opacity="1" fill="#0432FF" fill-rule="evenodd" fill-opacity="1"/><text fill="#FFFFFF" fill-opacity="1" font-family="Calibri,Calibri_MSFontService,sans-serif" font-style="normal" font-variant="normal" font-weight="700" font-stretch="normal" font-size="73" text-anchor="start" direction="ltr" writing-mode="lr-tb" unicode-bidi="normal" text-decoration="none" transform="matrix(1 0 0 1 2075.05 715)">SMN1</text><path d="M2410.5 649.334C2410.5 637.828 2419.83 628.5 2431.33 628.5L2761.67 628.5C2773.17 628.5 2782.5 637.828 2782.5 649.334L2782.5 732.666C2782.5 744.172 2773.17 753.5 2761.67 753.5L2431.33 753.5C2419.83 753.5 2410.5 744.172 2410.5 732.666Z" stroke="#000000" stroke-width="6.875" stroke-linecap="butt" stroke-linejoin="miter" stroke-miterlimit="8" stroke-dasharray="20.625 6.875" stroke-opacity="1" fill="#FFFFFF" fill-rule="evenodd" fill-opacity="1"/><text fill="#BFBFBF" fill-opacity="1" font-family="Calibri,Calibri_MSFontService,sans-serif" font-style="normal" font-variant="normal" font-weight="700" font-stretch="normal" font-size="73" text-anchor="start" direction="ltr" writing-mode="lr-tb" unicode-bidi="normal" text-decoration="none" transform="matrix(1 0 0 1 2503.79 715)">SMN2</text></g></svg>