<svg width="2205" height="307" xmlns="http://www.w3.org/2000/svg" xmlns:xlink="http://www.w3.org/1999/xlink" overflow="hidden"><defs><clipPath id="clip0"><rect x="2002" y="1402" width="2205" height="307"/></clipPath></defs><g clip-path="url(#clip0)" transform="translate(-2002 -1402)"><path d="M4203.17 1472.5 2007.5 1472.5" stroke="#000000" stroke-width="9.16667" stroke-linecap="butt" stroke-linejoin="miter" stroke-miterlimit="8" stroke-opacity="1" fill="none" fill-rule="evenodd"/><path d="M4203.17 1619.5 2007.5 1619.5" stroke="#000000" stroke-width="9.16667" stroke-linecap="butt" stroke-linejoin="miter" stroke-miterlimit="8" stroke-opacity="1" fill="none" fill-rule="evenodd"/><path d="M2501.5 1430.5C2501.5 1418.9 2510.9 1409.5 2522.5 1409.5L2851.5 1409.5C2863.1 1409.5 2872.5 1418.9 2872.5 1430.5L2872.5 1514.5C2872.5 1526.1 2863.1 1535.5 2851.5 1535.5L2522.5 1535.5C2510.9 1535.5 2501.5 1526.1 2501.5 1514.5Z" stroke="#000000" stroke-width="6.875" stroke-linecap="butt" stroke-linejoin="miter" stroke-miterlimit="8" stroke-opacity="1" fill="#76D6FF" fill-rule="evenodd" fill-opacity="1"/><text fill="#000000" fill-opacity="1" font-family="Calibri,Calibri_MSFontService,sans-serif" font-style="normal" font-variant="normal" font-weight="700" font-stretch="normal" font-size="73" text-anchor="start" direction="ltr" writing-mode="lr-tb" unicode-bidi="normal" text-decoration="none" transform="matrix(1 0 0 1 2594.26 1497)">SMN2</text><path d="M2072.5 1430.5C2072.5 1418.9 2081.9 1409.5 2093.5 1409.5L2423.5 1409.5C2435.1 1409.5 2444.5 1418.9 2444.5 1430.5L2444.5 1514.5C2444.5 1526.1 2435.1 1535.5 2423.5 1535.5L2093.5 1535.5C2081.9 1535.5 2072.5 1526.1 2072.5 1514.5Z" stroke="#000000" stroke-width="6.875" stroke-linecap="butt" stroke-linejoin="miter" stroke-miterlimit="8" stroke-opacity="1" fill="#0432FF" fill-rule="evenodd" fill-opacity="1"/><text fill="#FFFFFF" fill-opacity="1" font-family="Calibri,Calibri_MSFontService,sans-serif" font-style="normal" font-variant="normal" font-weight="700" font-stretch="normal" font-size="73" text-anchor="start" direction="ltr" writing-mode="lr-tb" unicode-bidi="normal" text-decoration="none" transform="matrix(1 0 0 1 2165.52 1497)">SMN1</text><path d="M2072.5 1578.5C2072.5 1566.9 2081.9 1557.5 2093.5 1557.5L2423.5 1557.5C2435.1 1557.5 2444.5 1566.9 2444.5 1578.5L2444.5 1662.5C2444.5 1674.1 2435.1 1683.5 2423.5 1683.5L2093.5 1683.5C2081.9 1683.5 2072.5 1674.1 2072.5 1662.5Z" stroke="#000000" stroke-width="6.875" stroke-linecap="butt" stroke-linejoin="miter" stroke-miterlimit="8" stroke-dasharray="20.625 6.875" stroke-opacity="1" fill="#FFFFFF" fill-rule="evenodd" fill-opacity="1"/><text fill="#BFBFBF" fill-opacity="1" font-family="Calibri,Calibri_MSFontService,sans-serif" font-style="normal" font-variant="normal" font-weight="700" font-stretch="normal" font-size="73" text-anchor="start" direction="ltr" writing-mode="lr-tb" unicode-bidi="normal" text-decoration="none" transform="matrix(1 0 0 1 2165.52 1645)">SMN1</text><path d="M3358.5 1430.5C3358.5 1418.9 3367.9 1409.5 3379.5 1409.5L3709.5 1409.5C3721.1 1409.5 3730.5 1418.9 3730.5 1430.5L3730.5 1514.5C3730.5 1526.1 3721.1 1535.5 3709.5 1535.5L3379.5 1535.5C3367.9 1535.5 3358.5 1526.1 3358.5 1514.5Z" stroke="#000000" stroke-width="6.875" stroke-linecap="butt" stroke-linejoin="miter" stroke-miterlimit="8" stroke-opacity="1" fill="#76D6FF" fill-rule="evenodd" fill-opacity="1"/><text fill="#000000" fill-opacity="1" font-family="Calibri,Calibri_MSFontService,sans-serif" font-style="normal" font-variant="normal" font-weight="700" font-stretch="normal" font-size="73" text-anchor="start" direction="ltr" writing-mode="lr-tb" unicode-bidi="normal" text-decoration="none" transform="matrix(1 0 0 1 3451.74 1497)">SMN2</text><path d="M2501.5 1578.5C2501.5 1566.9 2510.9 1557.5 2522.5 1557.5L2851.5 1557.5C2863.1 1557.5 2872.5 1566.9 2872.5 1578.5L2872.5 1662.5C2872.5 1674.1 2863.1 1683.5 2851.5 1683.5L2522.5 1683.5C2510.9 1683.5 2501.5 1674.1 2501.5 1662.5Z" stroke="#000000" stroke-width="6.875" stroke-linecap="butt" stroke-linejoin="miter" stroke-miterlimit="8" stroke-dasharray="20.625 6.875" stroke-opacity="1" fill="#FFFFFF" fill-rule="evenodd" fill-opacity="1"/><text fill="#BFBFBF" fill-opacity="1" font-family="Calibri,Calibri_MSFontService,sans-serif" font-style="normal" font-variant="normal" font-weight="700" font-stretch="normal" font-size="73" text-anchor="start" direction="ltr" writing-mode="lr-tb" unicode-bidi="normal" text-decoration="none" transform="matrix(1 0 0 1 2594.26 1645)">SMN2</text><path d="M2929.5 1430.5C2929.5 1418.9 2938.9 1409.5 2950.5 1409.5L3280.5 1409.5C3292.1 1409.5 3301.5 1418.9 3301.5 1430.5L3301.5 1514.5C3301.5 1526.1 3292.1 1535.5 3280.5 1535.5L2950.5 1535.5C2938.9 1535.5 2929.5 1526.1 2929.5 1514.5Z" stroke="#000000" stroke-width="6.875" stroke-linecap="butt" stroke-linejoin="miter" stroke-miterlimit="8" stroke-opacity="1" fill="#76D6FF" fill-rule="evenodd" fill-opacity="1"/><text fill="#000000" fill-opacity="1" font-family="Calibri,Calibri_MSFontService,sans-serif" font-style="normal" font-variant="normal" font-weight="700" font-stretch="normal" font-size="73" text-anchor="start" direction="ltr" writing-mode="lr-tb" unicode-bidi="normal" text-decoration="none" transform="matrix(1 0 0 1 3023 1497)">SMN2</text><path d="M3787.5 1430.5C3787.5 1418.9 3796.9 1409.5 3808.5 1409.5L4138.5 1409.5C4150.1 1409.5 4159.5 1418.9 4159.5 1430.5L4159.5 1514.5C4159.5 1526.1 4150.1 1535.5 4138.5 1535.5L3808.5 1535.5C3796.9 1535.5 3787.5 1526.1 3787.5 1514.5Z" stroke="#000000" stroke-width="6.875" stroke-linecap="butt" stroke-linejoin="miter" stroke-miterlimit="8" stroke-opacity="1" fill="#76D6FF" fill-rule="evenodd" fill-opacity="1"/><text fill="#000000" fill-opacity="1" font-family="Calibri,Calibri_MSFontService,sans-serif" font-style="normal" font-variant="normal" font-weight="700" font-stretch="normal" font-size="73" text-anchor="start" direction="ltr" writing-mode="lr-tb" unicode-bidi="normal" text-decoration="none" transform="matrix(1 0 0 1 3880.62 1497)">SMN2</text></g></svg>