<svg width="1779" height="303" xmlns="http://www.w3.org/2000/svg" xmlns:xlink="http://www.w3.org/1999/xlink" overflow="hidden"><defs><clipPath id="clip0"><rect x="2002" y="737" width="1779" height="303"/></clipPath></defs><g clip-path="url(#clip0)" transform="translate(-2002 -737)"><path d="M3778.43 954.5 2011.5 954.5" stroke="#000000" stroke-width="9.16667" stroke-linecap="butt" stroke-linejoin="miter" stroke-miterlimit="8" stroke-opacity="1" fill="none" fill-rule="evenodd"/><path d="M2072.5 908.5C2072.5 896.902 2081.9 887.5 2093.5 887.5L2423.5 887.5C2435.1 887.5 2444.5 896.902 2444.5 908.5L2444.5 992.5C2444.5 1004.1 2435.1 1013.5 2423.5 1013.5L2093.5 1013.5C2081.9 1013.5 2072.5 1004.1 2072.5 992.5Z" stroke="#000000" stroke-width="6.875" stroke-linecap="butt" stroke-linejoin="miter" stroke-miterlimit="8" stroke-dasharray="20.625 6.875" stroke-opacity="1" fill="#FFFFFF" fill-rule="evenodd" fill-opacity="1"/><text fill="#BFBFBF" fill-opacity="1" font-family="Calibri,Calibri_MSFontService,sans-serif" font-style="normal" font-variant="normal" font-weight="700" font-stretch="normal" font-size="73" text-anchor="start" direction="ltr" writing-mode="lr-tb" unicode-bidi="normal" text-decoration="none" transform="matrix(1 0 0 1 2165.52 975)">SMN1</text><path d="M3777.43 807.5 2010.5 807.5" stroke="#000000" stroke-width="9.16667" stroke-linecap="butt" stroke-linejoin="miter" stroke-miterlimit="8" stroke-opacity="1" fill="none" fill-rule="evenodd"/><path d="M2501.5 762.5C2501.5 750.902 2510.9 741.5 2522.5 741.5L2851.5 741.5C2863.1 741.5 2872.5 750.902 2872.5 762.5L2872.5 846.499C2872.5 858.098 2863.1 867.5 2851.5 867.5L2522.5 867.5C2510.9 867.5 2501.5 858.098 2501.5 846.499Z" stroke="#000000" stroke-width="6.875" stroke-linecap="butt" stroke-linejoin="miter" stroke-miterlimit="8" stroke-opacity="1" fill="#76D6FF" fill-rule="evenodd" fill-opacity="1"/><text fill="#000000" fill-opacity="1" font-family="Calibri,Calibri_MSFontService,sans-serif" font-style="normal" font-variant="normal" font-weight="700" font-stretch="normal" font-size="73" text-anchor="start" direction="ltr" writing-mode="lr-tb" unicode-bidi="normal" text-decoration="none" transform="matrix(1 0 0 1 2594.26 829)">SMN2</text><path d="M2072.5 762.5C2072.5 750.902 2081.9 741.5 2093.5 741.5L2423.5 741.5C2435.1 741.5 2444.5 750.902 2444.5 762.5L2444.5 846.499C2444.5 858.098 2435.1 867.5 2423.5 867.5L2093.5 867.5C2081.9 867.5 2072.5 858.098 2072.5 846.499Z" stroke="#000000" stroke-width="6.875" stroke-linecap="butt" stroke-linejoin="miter" stroke-miterlimit="8" stroke-opacity="1" fill="#0432FF" fill-rule="evenodd" fill-opacity="1"/><text fill="#FFFFFF" fill-opacity="1" font-family="Calibri,Calibri_MSFontService,sans-serif" font-style="normal" font-variant="normal" font-weight="700" font-stretch="normal" font-size="73" text-anchor="start" direction="ltr" writing-mode="lr-tb" unicode-bidi="normal" text-decoration="none" transform="matrix(1 0 0 1 2165.52 829)">SMN1</text><path d="M2929.5 762.5C2929.5 750.902 2938.9 741.5 2950.5 741.5L3280.5 741.5C3292.1 741.5 3301.5 750.902 3301.5 762.5L3301.5 846.499C3301.5 858.098 3292.1 867.5 3280.5 867.5L2950.5 867.5C2938.9 867.5 2929.5 858.098 2929.5 846.499Z" stroke="#000000" stroke-width="6.875" stroke-linecap="butt" stroke-linejoin="miter" stroke-miterlimit="8" stroke-opacity="1" fill="#76D6FF" fill-rule="evenodd" fill-opacity="1"/><text fill="#000000" fill-opacity="1" font-family="Calibri,Calibri_MSFontService,sans-serif" font-style="normal" font-variant="normal" font-weight="700" font-stretch="normal" font-size="73" text-anchor="start" direction="ltr" writing-mode="lr-tb" unicode-bidi="normal" text-decoration="none" transform="matrix(1 0 0 1 3023 829)">SMN2</text><path d="M2501.5 908.5C2501.5 896.902 2510.9 887.5 2522.5 887.5L2851.5 887.5C2863.1 887.5 2872.5 896.902 2872.5 908.5L2872.5 992.5C2872.5 1004.1 2863.1 1013.5 2851.5 1013.5L2522.5 1013.5C2510.9 1013.5 2501.5 1004.1 2501.5 992.5Z" stroke="#000000" stroke-width="6.875" stroke-linecap="butt" stroke-linejoin="miter" stroke-miterlimit="8" stroke-opacity="1" fill="#76D6FF" fill-rule="evenodd" fill-opacity="1"/><text fill="#000000" fill-opacity="1" font-family="Calibri,Calibri_MSFontService,sans-serif" font-style="normal" font-variant="normal" font-weight="700" font-stretch="normal" font-size="73" text-anchor="start" direction="ltr" writing-mode="lr-tb" unicode-bidi="normal" text-decoration="none" transform="matrix(1 0 0 1 2594.26 975)">SMN2</text><path d="M3358.5 762.5C3358.5 750.902 3367.9 741.5 3379.5 741.5L3709.5 741.5C3721.1 741.5 3730.5 750.902 3730.5 762.5L3730.5 846.499C3730.5 858.098 3721.1 867.5 3709.5 867.5L3379.5 867.5C3367.9 867.5 3358.5 858.098 3358.5 846.499Z" stroke="#000000" stroke-width="6.875" stroke-linecap="butt" stroke-linejoin="miter" stroke-miterlimit="8" stroke-opacity="1" fill="#76D6FF" fill-rule="evenodd" fill-opacity="1"/><text fill="#000000" fill-opacity="1" font-family="Calibri,Calibri_MSFontService,sans-serif" font-style="normal" font-variant="normal" font-weight="700" font-stretch="normal" font-size="73" text-anchor="start" direction="ltr" writing-mode="lr-tb" unicode-bidi="normal" text-decoration="none" transform="matrix(1 0 0 1 3451.74 829)">SMN2</text></g></svg>