<svg width="1779" height="307" xmlns="http://www.w3.org/2000/svg" xmlns:xlink="http://www.w3.org/1999/xlink" overflow="hidden"><defs><clipPath id="clip0"><rect x="2002" y="1072" width="1779" height="307"/></clipPath></defs><g clip-path="url(#clip0)" transform="translate(-2002 -1072)"><path d="M3776.43 1292.5 2009.5 1292.5" stroke="#000000" stroke-width="9.16667" stroke-linecap="butt" stroke-linejoin="miter" stroke-miterlimit="8" stroke-opacity="1" fill="none" fill-rule="evenodd"/><path d="M2072.5 1248.5C2072.5 1236.9 2081.9 1227.5 2093.5 1227.5L2423.5 1227.5C2435.1 1227.5 2444.5 1236.9 2444.5 1248.5L2444.5 1332.5C2444.5 1344.1 2435.1 1353.5 2423.5 1353.5L2093.5 1353.5C2081.9 1353.5 2072.5 1344.1 2072.5 1332.5Z" stroke="#000000" stroke-width="6.875" stroke-linecap="butt" stroke-linejoin="miter" stroke-miterlimit="8" stroke-dasharray="20.625 6.875" stroke-opacity="1" fill="#FFFFFF" fill-rule="evenodd" fill-opacity="1"/><text fill="#BFBFBF" fill-opacity="1" font-family="Calibri,Calibri_MSFontService,sans-serif" font-style="normal" font-variant="normal" font-weight="700" font-stretch="normal" font-size="73" text-anchor="start" direction="ltr" writing-mode="lr-tb" unicode-bidi="normal" text-decoration="none" transform="matrix(1 0 0 1 2165.52 1315)">SMN1</text><path d="M3776.43 1146.5 2009.5 1146.5" stroke="#000000" stroke-width="9.16667" stroke-linecap="butt" stroke-linejoin="miter" stroke-miterlimit="8" stroke-opacity="1" fill="none" fill-rule="evenodd"/><path d="M3358.5 1248.5C3358.5 1236.9 3367.9 1227.5 3379.5 1227.5L3709.5 1227.5C3721.1 1227.5 3730.5 1236.9 3730.5 1248.5L3730.5 1332.5C3730.5 1344.1 3721.1 1353.5 3709.5 1353.5L3379.5 1353.5C3367.9 1353.5 3358.5 1344.1 3358.5 1332.5Z" stroke="#000000" stroke-width="6.875" stroke-linecap="butt" stroke-linejoin="miter" stroke-miterlimit="8" stroke-opacity="1" fill="#76D6FF" fill-rule="evenodd" fill-opacity="1"/><text fill="#000000" fill-opacity="1" font-family="Calibri,Calibri_MSFontService,sans-serif" font-style="normal" font-variant="normal" font-weight="700" font-stretch="normal" font-size="73" text-anchor="start" direction="ltr" writing-mode="lr-tb" unicode-bidi="normal" text-decoration="none" transform="matrix(1 0 0 1 3451.74 1315)">SMN2</text><path d="M2072.5 1101.5C2072.5 1089.9 2081.9 1080.5 2093.5 1080.5L2423.5 1080.5C2435.1 1080.5 2444.5 1089.9 2444.5 1101.5L2444.5 1185.5C2444.5 1197.1 2435.1 1206.5 2423.5 1206.5L2093.5 1206.5C2081.9 1206.5 2072.5 1197.1 2072.5 1185.5Z" stroke="#000000" stroke-width="6.875" stroke-linecap="butt" stroke-linejoin="miter" stroke-miterlimit="8" stroke-opacity="1" fill="#0432FF" fill-rule="evenodd" fill-opacity="1"/><text fill="#FFFFFF" fill-opacity="1" font-family="Calibri,Calibri_MSFontService,sans-serif" font-style="normal" font-variant="normal" font-weight="700" font-stretch="normal" font-size="73" text-anchor="start" direction="ltr" writing-mode="lr-tb" unicode-bidi="normal" text-decoration="none" transform="matrix(1 0 0 1 2165.52 1168)">SMN1</text><path d="M2501.5 1248.5C2501.5 1236.9 2510.9 1227.5 2522.5 1227.5L2851.5 1227.5C2863.1 1227.5 2872.5 1236.9 2872.5 1248.5L2872.5 1332.5C2872.5 1344.1 2863.1 1353.5 2851.5 1353.5L2522.5 1353.5C2510.9 1353.5 2501.5 1344.1 2501.5 1332.5Z" stroke="#000000" stroke-width="6.875" stroke-linecap="butt" stroke-linejoin="miter" stroke-miterlimit="8" stroke-opacity="1" fill="#76D6FF" fill-rule="evenodd" fill-opacity="1"/><text fill="#000000" fill-opacity="1" font-family="Calibri,Calibri_MSFontService,sans-serif" font-style="normal" font-variant="normal" font-weight="700" font-stretch="normal" font-size="73" text-anchor="start" direction="ltr" writing-mode="lr-tb" unicode-bidi="normal" text-decoration="none" transform="matrix(1 0 0 1 2594.26 1315)">SMN2</text><path d="M2929.5 1248.5C2929.5 1236.9 2938.9 1227.5 2950.5 1227.5L3280.5 1227.5C3292.1 1227.5 3301.5 1236.9 3301.5 1248.5L3301.5 1332.5C3301.5 1344.1 3292.1 1353.5 3280.5 1353.5L2950.5 1353.5C2938.9 1353.5 2929.5 1344.1 2929.5 1332.5Z" stroke="#000000" stroke-width="6.875" stroke-linecap="butt" stroke-linejoin="miter" stroke-miterlimit="8" stroke-opacity="1" fill="#76D6FF" fill-rule="evenodd" fill-opacity="1"/><text fill="#000000" fill-opacity="1" font-family="Calibri,Calibri_MSFontService,sans-serif" font-style="normal" font-variant="normal" font-weight="700" font-stretch="normal" font-size="73" text-anchor="start" direction="ltr" writing-mode="lr-tb" unicode-bidi="normal" text-decoration="none" transform="matrix(1 0 0 1 3023 1315)">SMN2</text><path d="M2501.5 1101.5C2501.5 1089.9 2510.9 1080.5 2522.5 1080.5L2851.5 1080.5C2863.1 1080.5 2872.5 1089.9 2872.5 1101.5L2872.5 1185.5C2872.5 1197.1 2863.1 1206.5 2851.5 1206.5L2522.5 1206.5C2510.9 1206.5 2501.5 1197.1 2501.5 1185.5Z" stroke="#000000" stroke-width="6.875" stroke-linecap="butt" stroke-linejoin="miter" stroke-miterlimit="8" stroke-opacity="1" fill="#76D6FF" fill-rule="evenodd" fill-opacity="1"/><text fill="#000000" fill-opacity="1" font-family="Calibri,Calibri_MSFontService,sans-serif" font-style="normal" font-variant="normal" font-weight="700" font-stretch="normal" font-size="73" text-anchor="start" direction="ltr" writing-mode="lr-tb" unicode-bidi="normal" text-decoration="none" transform="matrix(1 0 0 1 2594.26 1168)">SMN2</text></g></svg>