<svg width="1348" height="308" xmlns="http://www.w3.org/2000/svg" xmlns:xlink="http://www.w3.org/1999/xlink" overflow="hidden"><defs><clipPath id="clip0"><rect x="1915" y="1287" width="1348" height="308"/></clipPath></defs><g clip-path="url(#clip0)" transform="translate(-1915 -1287)"><path d="M3261.69 1357.5 1923.5 1357.5" stroke="#000000" stroke-width="9.16667" stroke-linecap="butt" stroke-linejoin="miter" stroke-miterlimit="8" stroke-opacity="1" fill="none" fill-rule="evenodd"/><path d="M2410.5 1315.5C2410.5 1303.9 2419.9 1294.5 2431.5 1294.5L2761.5 1294.5C2773.1 1294.5 2782.5 1303.9 2782.5 1315.5L2782.5 1399.5C2782.5 1411.1 2773.1 1420.5 2761.5 1420.5L2431.5 1420.5C2419.9 1420.5 2410.5 1411.1 2410.5 1399.5Z" stroke="#000000" stroke-width="6.875" stroke-linecap="butt" stroke-linejoin="miter" stroke-miterlimit="8" stroke-opacity="1" fill="#76D6FF" fill-rule="evenodd" fill-opacity="1"/><text fill="#000000" fill-opacity="1" font-family="Calibri,Calibri_MSFontService,sans-serif" font-style="normal" font-variant="normal" font-weight="700" font-stretch="normal" font-size="73" text-anchor="start" direction="ltr" writing-mode="lr-tb" unicode-bidi="normal" text-decoration="none" transform="matrix(1 0 0 1 2503.79 1382)">SMN2</text><path d="M3261.69 1504.5 1923.5 1504.5" stroke="#000000" stroke-width="9.16667" stroke-linecap="butt" stroke-linejoin="miter" stroke-miterlimit="8" stroke-opacity="1" fill="none" fill-rule="evenodd"/><path d="M2410.5 1463.5C2410.5 1451.9 2419.9 1442.5 2431.5 1442.5L2761.5 1442.5C2773.1 1442.5 2782.5 1451.9 2782.5 1463.5L2782.5 1547.5C2782.5 1559.1 2773.1 1568.5 2761.5 1568.5L2431.5 1568.5C2419.9 1568.5 2410.5 1559.1 2410.5 1547.5Z" stroke="#000000" stroke-width="6.875" stroke-linecap="butt" stroke-linejoin="miter" stroke-miterlimit="8" stroke-dasharray="20.625 6.875" stroke-opacity="1" fill="#FFFFFF" fill-rule="evenodd" fill-opacity="1"/><text fill="#BFBFBF" fill-opacity="1" font-family="Calibri,Calibri_MSFontService,sans-serif" font-style="normal" font-variant="normal" font-weight="700" font-stretch="normal" font-size="73" text-anchor="start" direction="ltr" writing-mode="lr-tb" unicode-bidi="normal" text-decoration="none" transform="matrix(1 0 0 1 2503.79 1530)">SMN2</text><path d="M1981.5 1315.5C1981.5 1303.9 1990.9 1294.5 2002.5 1294.5L2332.5 1294.5C2344.1 1294.5 2353.5 1303.9 2353.5 1315.5L2353.5 1399.5C2353.5 1411.1 2344.1 1420.5 2332.5 1420.5L2002.5 1420.5C1990.9 1420.5 1981.5 1411.1 1981.5 1399.5Z" stroke="#000000" stroke-width="6.875" stroke-linecap="butt" stroke-linejoin="miter" stroke-miterlimit="8" stroke-opacity="1" fill="#0432FF" fill-rule="evenodd" fill-opacity="1"/><text fill="#FFFFFF" fill-opacity="1" font-family="Calibri,Calibri_MSFontService,sans-serif" font-style="normal" font-variant="normal" font-weight="700" font-stretch="normal" font-size="73" text-anchor="start" direction="ltr" writing-mode="lr-tb" unicode-bidi="normal" text-decoration="none" transform="matrix(1 0 0 1 2075.05 1382)">SMN1</text><path d="M2839.5 1315.5C2839.5 1303.9 2848.9 1294.5 2860.5 1294.5L3190.5 1294.5C3202.1 1294.5 3211.5 1303.9 3211.5 1315.5L3211.5 1399.5C3211.5 1411.1 3202.1 1420.5 3190.5 1420.5L2860.5 1420.5C2848.9 1420.5 2839.5 1411.1 2839.5 1399.5Z" stroke="#000000" stroke-width="6.875" stroke-linecap="butt" stroke-linejoin="miter" stroke-miterlimit="8" stroke-opacity="1" fill="#76D6FF" fill-rule="evenodd" fill-opacity="1"/><text fill="#000000" fill-opacity="1" font-family="Calibri,Calibri_MSFontService,sans-serif" font-style="normal" font-variant="normal" font-weight="700" font-stretch="normal" font-size="73" text-anchor="start" direction="ltr" writing-mode="lr-tb" unicode-bidi="normal" text-decoration="none" transform="matrix(1 0 0 1 2933.17 1382)">SMN2</text><path d="M1981.5 1463.5C1981.5 1451.9 1990.9 1442.5 2002.5 1442.5L2332.5 1442.5C2344.1 1442.5 2353.5 1451.9 2353.5 1463.5L2353.5 1547.5C2353.5 1559.1 2344.1 1568.5 2332.5 1568.5L2002.5 1568.5C1990.9 1568.5 1981.5 1559.1 1981.5 1547.5Z" stroke="#000000" stroke-width="6.875" stroke-linecap="butt" stroke-linejoin="miter" stroke-miterlimit="8" stroke-dasharray="20.625 6.875" stroke-opacity="1" fill="#FFFFFF" fill-rule="evenodd" fill-opacity="1"/><text fill="#BFBFBF" fill-opacity="1" font-family="Calibri,Calibri_MSFontService,sans-serif" font-style="normal" font-variant="normal" font-weight="700" font-stretch="normal" font-size="73" text-anchor="start" direction="ltr" writing-mode="lr-tb" unicode-bidi="normal" text-decoration="none" transform="matrix(1 0 0 1 2075.05 1530)">SMN1</text></g></svg>