<svg width="931" height="308" xmlns="http://www.w3.org/2000/svg" xmlns:xlink="http://www.w3.org/1999/xlink" overflow="hidden"><defs><clipPath id="clip0"><rect x="1915" y="957" width="931" height="308"/></clipPath></defs><g clip-path="url(#clip0)" transform="translate(-1915 -957)"><path d="M2845.94 1031.5 1923.5 1031.5" stroke="#000000" stroke-width="9.16667" stroke-linecap="butt" stroke-linejoin="miter" stroke-miterlimit="8" stroke-opacity="1" fill="none" fill-rule="evenodd"/><path d="M2410.5 984.5C2410.5 972.902 2419.9 963.5 2431.5 963.5L2761.5 963.5C2773.1 963.5 2782.5 972.902 2782.5 984.5L2782.5 1068.5C2782.5 1080.1 2773.1 1089.5 2761.5 1089.5L2431.5 1089.5C2419.9 1089.5 2410.5 1080.1 2410.5 1068.5Z" stroke="#000000" stroke-width="6.875" stroke-linecap="butt" stroke-linejoin="miter" stroke-miterlimit="8" stroke-opacity="1" fill="#76D6FF" fill-rule="evenodd" fill-opacity="1"/><text fill="#000000" fill-opacity="1" font-family="Calibri,Calibri_MSFontService,sans-serif" font-style="normal" font-variant="normal" font-weight="700" font-stretch="normal" font-size="73" text-anchor="start" direction="ltr" writing-mode="lr-tb" unicode-bidi="normal" text-decoration="none" transform="matrix(1 0 0 1 2503.79 1051)">SMN2</text><path d="M2845.94 1168.5 1923.5 1168.5" stroke="#000000" stroke-width="9.16667" stroke-linecap="butt" stroke-linejoin="miter" stroke-miterlimit="8" stroke-opacity="1" fill="none" fill-rule="evenodd"/><path d="M2410.5 1132.5C2410.5 1120.9 2419.9 1111.5 2431.5 1111.5L2761.5 1111.5C2773.1 1111.5 2782.5 1120.9 2782.5 1132.5L2782.5 1216.5C2782.5 1228.1 2773.1 1237.5 2761.5 1237.5L2431.5 1237.5C2419.9 1237.5 2410.5 1228.1 2410.5 1216.5Z" stroke="#000000" stroke-width="6.875" stroke-linecap="butt" stroke-linejoin="miter" stroke-miterlimit="8" stroke-opacity="1" fill="#76D6FF" fill-rule="evenodd" fill-opacity="1"/><text fill="#000000" fill-opacity="1" font-family="Calibri,Calibri_MSFontService,sans-serif" font-style="normal" font-variant="normal" font-weight="700" font-stretch="normal" font-size="73" text-anchor="start" direction="ltr" writing-mode="lr-tb" unicode-bidi="normal" text-decoration="none" transform="matrix(1 0 0 1 2503.79 1199)">SMN2</text><path d="M1981.5 984.5C1981.5 972.902 1990.9 963.5 2002.5 963.5L2332.5 963.5C2344.1 963.5 2353.5 972.902 2353.5 984.5L2353.5 1068.5C2353.5 1080.1 2344.1 1089.5 2332.5 1089.5L2002.5 1089.5C1990.9 1089.5 1981.5 1080.1 1981.5 1068.5Z" stroke="#000000" stroke-width="6.875" stroke-linecap="butt" stroke-linejoin="miter" stroke-miterlimit="8" stroke-opacity="1" fill="#0432FF" fill-rule="evenodd" fill-opacity="1"/><text fill="#FFFFFF" fill-opacity="1" font-family="Calibri,Calibri_MSFontService,sans-serif" font-style="normal" font-variant="normal" font-weight="700" font-stretch="normal" font-size="73" text-anchor="start" direction="ltr" writing-mode="lr-tb" unicode-bidi="normal" text-decoration="none" transform="matrix(1 0 0 1 2075.05 1051)">SMN1</text><path d="M1981.5 1132.5C1981.5 1120.9 1990.9 1111.5 2002.5 1111.5L2332.5 1111.5C2344.1 1111.5 2353.5 1120.9 2353.5 1132.5L2353.5 1216.5C2353.5 1228.1 2344.1 1237.5 2332.5 1237.5L2002.5 1237.5C1990.9 1237.5 1981.5 1228.1 1981.5 1216.5Z" stroke="#000000" stroke-width="6.875" stroke-linecap="butt" stroke-linejoin="miter" stroke-miterlimit="8" stroke-dasharray="20.625 6.875" stroke-opacity="1" fill="#FFFFFF" fill-rule="evenodd" fill-opacity="1"/><text fill="#BFBFBF" fill-opacity="1" font-family="Calibri,Calibri_MSFontService,sans-serif" font-style="normal" font-variant="normal" font-weight="700" font-stretch="normal" font-size="73" text-anchor="start" direction="ltr" writing-mode="lr-tb" unicode-bidi="normal" text-decoration="none" transform="matrix(1 0 0 1 2075.05 1199)">SMN1</text></g></svg>