<svg width="1348" height="326" xmlns="http://www.w3.org/2000/svg" xmlns:xlink="http://www.w3.org/1999/xlink" overflow="hidden"><defs><clipPath id="clip0"><rect x="1915" y="1608" width="1348" height="326"/></clipPath></defs><g clip-path="url(#clip0)" transform="translate(-1915 -1608)"><path d="M3261.69 1682.5 1923.5 1682.5" stroke="#000000" stroke-width="9.16667" stroke-linecap="butt" stroke-linejoin="miter" stroke-miterlimit="8" stroke-opacity="1" fill="none" fill-rule="evenodd"/><path d="M2410.5 1636.5C2410.5 1624.9 2419.9 1615.5 2431.5 1615.5L2761.5 1615.5C2773.1 1615.5 2782.5 1624.9 2782.5 1636.5L2782.5 1720.5C2782.5 1732.1 2773.1 1741.5 2761.5 1741.5L2431.5 1741.5C2419.9 1741.5 2410.5 1732.1 2410.5 1720.5Z" stroke="#000000" stroke-width="6.875" stroke-linecap="butt" stroke-linejoin="miter" stroke-miterlimit="8" stroke-dasharray="20.625 6.875" stroke-opacity="1" fill="#FFFFFF" fill-rule="evenodd" fill-opacity="1"/><text fill="#BFBFBF" fill-opacity="1" font-family="Calibri,Calibri_MSFontService,sans-serif" font-style="normal" font-variant="normal" font-weight="700" font-stretch="normal" font-size="73" text-anchor="start" direction="ltr" writing-mode="lr-tb" unicode-bidi="normal" text-decoration="none" transform="matrix(1 0 0 1 2503.79 1703)">SMN2</text><path d="M3261.69 1845.5 1923.5 1845.5" stroke="#000000" stroke-width="9.16667" stroke-linecap="butt" stroke-linejoin="miter" stroke-miterlimit="8" stroke-opacity="1" fill="none" fill-rule="evenodd"/><path d="M2410.5 1801.5C2410.5 1789.9 2419.9 1780.5 2431.5 1780.5L2761.5 1780.5C2773.1 1780.5 2782.5 1789.9 2782.5 1801.5L2782.5 1885.5C2782.5 1897.1 2773.1 1906.5 2761.5 1906.5L2431.5 1906.5C2419.9 1906.5 2410.5 1897.1 2410.5 1885.5Z" stroke="#000000" stroke-width="6.875" stroke-linecap="butt" stroke-linejoin="miter" stroke-miterlimit="8" stroke-opacity="1" fill="#76D6FF" fill-rule="evenodd" fill-opacity="1"/><text fill="#000000" fill-opacity="1" font-family="Calibri,Calibri_MSFontService,sans-serif" font-style="normal" font-variant="normal" font-weight="700" font-stretch="normal" font-size="73" text-anchor="start" direction="ltr" writing-mode="lr-tb" unicode-bidi="normal" text-decoration="none" transform="matrix(1 0 0 1 2503.79 1868)">SMN2</text><path d="M1981.5 1636.5C1981.5 1624.9 1990.9 1615.5 2002.5 1615.5L2332.5 1615.5C2344.1 1615.5 2353.5 1624.9 2353.5 1636.5L2353.5 1720.5C2353.5 1732.1 2344.1 1741.5 2332.5 1741.5L2002.5 1741.5C1990.9 1741.5 1981.5 1732.1 1981.5 1720.5Z" stroke="#000000" stroke-width="6.875" stroke-linecap="butt" stroke-linejoin="miter" stroke-miterlimit="8" stroke-opacity="1" fill="#0432FF" fill-rule="evenodd" fill-opacity="1"/><text fill="#FFFFFF" fill-opacity="1" font-family="Calibri,Calibri_MSFontService,sans-serif" font-style="normal" font-variant="normal" font-weight="700" font-stretch="normal" font-size="73" text-anchor="start" direction="ltr" writing-mode="lr-tb" unicode-bidi="normal" text-decoration="none" transform="matrix(1 0 0 1 2075.05 1703)">SMN1</text><path d="M2839.5 1801.5C2839.5 1789.9 2848.9 1780.5 2860.5 1780.5L3190.5 1780.5C3202.1 1780.5 3211.5 1789.9 3211.5 1801.5L3211.5 1885.5C3211.5 1897.1 3202.1 1906.5 3190.5 1906.5L2860.5 1906.5C2848.9 1906.5 2839.5 1897.1 2839.5 1885.5Z" stroke="#000000" stroke-width="6.875" stroke-linecap="butt" stroke-linejoin="miter" stroke-miterlimit="8" stroke-opacity="1" fill="#76D6FF" fill-rule="evenodd" fill-opacity="1"/><text fill="#000000" fill-opacity="1" font-family="Calibri,Calibri_MSFontService,sans-serif" font-style="normal" font-variant="normal" font-weight="700" font-stretch="normal" font-size="73" text-anchor="start" direction="ltr" writing-mode="lr-tb" unicode-bidi="normal" text-decoration="none" transform="matrix(1 0 0 1 2932.53 1868)">SMN2</text><path d="M1981.5 1801.5C1981.5 1789.9 1990.9 1780.5 2002.5 1780.5L2332.5 1780.5C2344.1 1780.5 2353.5 1789.9 2353.5 1801.5L2353.5 1885.5C2353.5 1897.1 2344.1 1906.5 2332.5 1906.5L2002.5 1906.5C1990.9 1906.5 1981.5 1897.1 1981.5 1885.5Z" stroke="#000000" stroke-width="6.875" stroke-linecap="butt" stroke-linejoin="miter" stroke-miterlimit="8" stroke-dasharray="20.625 6.875" stroke-opacity="1" fill="#FFFFFF" fill-rule="evenodd" fill-opacity="1"/><text fill="#BFBFBF" fill-opacity="1" font-family="Calibri,Calibri_MSFontService,sans-serif" font-style="normal" font-variant="normal" font-weight="700" font-stretch="normal" font-size="73" text-anchor="start" direction="ltr" writing-mode="lr-tb" unicode-bidi="normal" text-decoration="none" transform="matrix(1 0 0 1 2075.05 1868)">SMN1</text></g></svg>