<svg width="2204" height="307" xmlns="http://www.w3.org/2000/svg" xmlns:xlink="http://www.w3.org/1999/xlink" overflow="hidden"><defs><clipPath id="clip0"><rect x="9" y="2630" width="2204" height="307"/></clipPath></defs><g clip-path="url(#clip0)" transform="translate(-9 -2630)"><path d="M2212.17 2702.5 16.4999 2702.5" stroke="#000000" stroke-width="9.16667" stroke-linecap="butt" stroke-linejoin="miter" stroke-miterlimit="8" stroke-opacity="1" fill="none" fill-rule="evenodd"/><path d="M1362.5 2662.5C1362.5 2650.9 1371.9 2641.5 1383.5 2641.5L1713.5 2641.5C1725.1 2641.5 1734.5 2650.9 1734.5 2662.5L1734.5 2746.5C1734.5 2758.1 1725.1 2767.5 1713.5 2767.5L1383.5 2767.5C1371.9 2767.5 1362.5 2758.1 1362.5 2746.5Z" stroke="#000000" stroke-width="6.875" stroke-linecap="butt" stroke-linejoin="miter" stroke-miterlimit="8" stroke-opacity="1" fill="#76D6FF" fill-rule="evenodd" fill-opacity="1"/><text fill="#000000" fill-opacity="1" font-family="Calibri,Calibri_MSFontService,sans-serif" font-style="normal" font-variant="normal" font-weight="700" font-stretch="normal" font-size="73" text-anchor="start" direction="ltr" writing-mode="lr-tb" unicode-bidi="normal" text-decoration="none" transform="matrix(1 0 0 1 1455.32 2729)">SMN2</text><path d="M1784.5 2660.5C1784.5 2648.9 1793.9 2639.5 1805.5 2639.5L2135.5 2639.5C2147.1 2639.5 2156.5 2648.9 2156.5 2660.5L2156.5 2744.5C2156.5 2756.1 2147.1 2765.5 2135.5 2765.5L1805.5 2765.5C1793.9 2765.5 1784.5 2756.1 1784.5 2744.5Z" stroke="#000000" stroke-width="6.875" stroke-linecap="butt" stroke-linejoin="miter" stroke-miterlimit="8" stroke-opacity="1" fill="#76D6FF" fill-rule="evenodd" fill-opacity="1"/><text fill="#000000" fill-opacity="1" font-family="Calibri,Calibri_MSFontService,sans-serif" font-style="normal" font-variant="normal" font-weight="700" font-stretch="normal" font-size="73" text-anchor="start" direction="ltr" writing-mode="lr-tb" unicode-bidi="normal" text-decoration="none" transform="matrix(1 0 0 1 1877.69 2727)">SMN2</text><path d="M2212.17 2848.5 16.4998 2848.5" stroke="#000000" stroke-width="9.16667" stroke-linecap="butt" stroke-linejoin="miter" stroke-miterlimit="8" stroke-opacity="1" fill="none" fill-rule="evenodd"/><path d="M934.5 2662.5C934.5 2650.9 943.902 2641.5 955.5 2641.5L1285.5 2641.5C1297.1 2641.5 1306.5 2650.9 1306.5 2662.5L1306.5 2746.5C1306.5 2758.1 1297.1 2767.5 1285.5 2767.5L955.5 2767.5C943.902 2767.5 934.5 2758.1 934.5 2746.5Z" stroke="#000000" stroke-width="6.875" stroke-linecap="butt" stroke-linejoin="miter" stroke-miterlimit="8" stroke-opacity="1" fill="#76D6FF" fill-rule="evenodd" fill-opacity="1"/><text fill="#000000" fill-opacity="1" font-family="Calibri,Calibri_MSFontService,sans-serif" font-style="normal" font-variant="normal" font-weight="700" font-stretch="normal" font-size="73" text-anchor="start" direction="ltr" writing-mode="lr-tb" unicode-bidi="normal" text-decoration="none" transform="matrix(1 0 0 1 1027.88 2729)">SMN2</text><path d="M504.5 2662.5C504.5 2650.9 513.902 2641.5 525.5 2641.5L855.5 2641.5C867.098 2641.5 876.5 2650.9 876.5 2662.5L876.5 2746.5C876.5 2758.1 867.098 2767.5 855.5 2767.5L525.5 2767.5C513.902 2767.5 504.5 2758.1 504.5 2746.5Z" stroke="#000000" stroke-width="6.875" stroke-linecap="butt" stroke-linejoin="miter" stroke-miterlimit="8" stroke-opacity="1" fill="#76D6FF" fill-rule="evenodd" fill-opacity="1"/><text fill="#000000" fill-opacity="1" font-family="Calibri,Calibri_MSFontService,sans-serif" font-style="normal" font-variant="normal" font-weight="700" font-stretch="normal" font-size="73" text-anchor="start" direction="ltr" writing-mode="lr-tb" unicode-bidi="normal" text-decoration="none" transform="matrix(1 0 0 1 597.841 2729)">SMN2</text><path d="M77.4998 2660.5C77.4998 2648.9 86.902 2639.5 98.5001 2639.5L428.5 2639.5C440.098 2639.5 449.5 2648.9 449.5 2660.5L449.5 2744.5C449.5 2756.1 440.098 2765.5 428.5 2765.5L98.5001 2765.5C86.902 2765.5 77.4998 2756.1 77.4998 2744.5Z" stroke="#000000" stroke-width="6.875" stroke-linecap="butt" stroke-linejoin="miter" stroke-miterlimit="8" stroke-dasharray="20.625 6.875" stroke-opacity="1" fill="#FFFFFF" fill-rule="evenodd" fill-opacity="1"/><text fill="#BFBFBF" fill-opacity="1" font-family="Calibri,Calibri_MSFontService,sans-serif" font-style="normal" font-variant="normal" font-weight="700" font-stretch="normal" font-size="73" text-anchor="start" direction="ltr" writing-mode="lr-tb" unicode-bidi="normal" text-decoration="none" transform="matrix(1 0 0 1 170.401 2727)">SMN1</text><path d="M77.4998 2806.5C77.4998 2794.9 86.902 2785.5 98.5001 2785.5L428.5 2785.5C440.098 2785.5 449.5 2794.9 449.5 2806.5L449.5 2890.5C449.5 2902.1 440.098 2911.5 428.5 2911.5L98.5001 2911.5C86.902 2911.5 77.4998 2902.1 77.4998 2890.5Z" stroke="#000000" stroke-width="6.875" stroke-linecap="butt" stroke-linejoin="miter" stroke-miterlimit="8" stroke-dasharray="20.625 6.875" stroke-opacity="1" fill="#FFFFFF" fill-rule="evenodd" fill-opacity="1"/><text fill="#BFBFBF" fill-opacity="1" font-family="Calibri,Calibri_MSFontService,sans-serif" font-style="normal" font-variant="normal" font-weight="700" font-stretch="normal" font-size="73" text-anchor="start" direction="ltr" writing-mode="lr-tb" unicode-bidi="normal" text-decoration="none" transform="matrix(1 0 0 1 170.401 2873)">SMN1</text></g></svg>