<svg width="1774" height="307" xmlns="http://www.w3.org/2000/svg" xmlns:xlink="http://www.w3.org/1999/xlink" overflow="hidden"><defs><clipPath id="clip0"><rect x="4" y="2300" width="1774" height="307"/></clipPath></defs><g clip-path="url(#clip0)" transform="translate(-4 -2300)"><path d="M1776.43 2369.5 9.5002 2369.5" stroke="#000000" stroke-width="9.16667" stroke-linecap="butt" stroke-linejoin="miter" stroke-miterlimit="8" stroke-opacity="1" fill="none" fill-rule="evenodd"/><path d="M1362.5 2328.5C1362.5 2316.9 1371.9 2307.5 1383.5 2307.5L1713.5 2307.5C1725.1 2307.5 1734.5 2316.9 1734.5 2328.5L1734.5 2412.5C1734.5 2424.1 1725.1 2433.5 1713.5 2433.5L1383.5 2433.5C1371.9 2433.5 1362.5 2424.1 1362.5 2412.5Z" stroke="#000000" stroke-width="6.875" stroke-linecap="butt" stroke-linejoin="miter" stroke-miterlimit="8" stroke-opacity="1" fill="#76D6FF" fill-rule="evenodd" fill-opacity="1"/><text fill="#000000" fill-opacity="1" font-family="Calibri,Calibri_MSFontService,sans-serif" font-style="normal" font-variant="normal" font-weight="700" font-stretch="normal" font-size="73" text-anchor="start" direction="ltr" writing-mode="lr-tb" unicode-bidi="normal" text-decoration="none" transform="matrix(1 0 0 1 1455.32 2395)">SMN2</text><path d="M504.5 2327.33C504.5 2315.83 513.828 2306.5 525.334 2306.5L855.666 2306.5C867.172 2306.5 876.5 2315.83 876.5 2327.33L876.5 2410.67C876.5 2422.17 867.172 2431.5 855.666 2431.5L525.334 2431.5C513.828 2431.5 504.5 2422.17 504.5 2410.67Z" stroke="#000000" stroke-width="6.875" stroke-linecap="butt" stroke-linejoin="miter" stroke-miterlimit="8" stroke-opacity="1" fill="#76D6FF" fill-rule="evenodd" fill-opacity="1"/><text fill="#000000" fill-opacity="1" font-family="Calibri,Calibri_MSFontService,sans-serif" font-style="normal" font-variant="normal" font-weight="700" font-stretch="normal" font-size="73" text-anchor="start" direction="ltr" writing-mode="lr-tb" unicode-bidi="normal" text-decoration="none" transform="matrix(1 0 0 1 597.841 2394)">SMN2</text><path d="M1776.43 2515.5 9.5002 2515.5" stroke="#000000" stroke-width="9.16667" stroke-linecap="butt" stroke-linejoin="miter" stroke-miterlimit="8" stroke-opacity="1" fill="none" fill-rule="evenodd"/><path d="M934.5 2328.5C934.5 2316.9 943.902 2307.5 955.5 2307.5L1285.5 2307.5C1297.1 2307.5 1306.5 2316.9 1306.5 2328.5L1306.5 2412.5C1306.5 2424.1 1297.1 2433.5 1285.5 2433.5L955.5 2433.5C943.902 2433.5 934.5 2424.1 934.5 2412.5Z" stroke="#000000" stroke-width="6.875" stroke-linecap="butt" stroke-linejoin="miter" stroke-miterlimit="8" stroke-opacity="1" fill="#76D6FF" fill-rule="evenodd" fill-opacity="1"/><text fill="#000000" fill-opacity="1" font-family="Calibri,Calibri_MSFontService,sans-serif" font-style="normal" font-variant="normal" font-weight="700" font-stretch="normal" font-size="73" text-anchor="start" direction="ltr" writing-mode="lr-tb" unicode-bidi="normal" text-decoration="none" transform="matrix(1 0 0 1 1027.88 2395)">SMN2</text><path d="M504.5 2473.5C504.5 2461.9 513.902 2452.5 525.5 2452.5L855.5 2452.5C867.098 2452.5 876.5 2461.9 876.5 2473.5L876.5 2557.5C876.5 2569.1 867.098 2578.5 855.5 2578.5L525.5 2578.5C513.902 2578.5 504.5 2569.1 504.5 2557.5Z" stroke="#000000" stroke-width="6.875" stroke-linecap="butt" stroke-linejoin="miter" stroke-miterlimit="8" stroke-opacity="1" fill="#76D6FF" fill-rule="evenodd" fill-opacity="1"/><text fill="#000000" fill-opacity="1" font-family="Calibri,Calibri_MSFontService,sans-serif" font-style="normal" font-variant="normal" font-weight="700" font-stretch="normal" font-size="73" text-anchor="start" direction="ltr" writing-mode="lr-tb" unicode-bidi="normal" text-decoration="none" transform="matrix(1 0 0 1 597.841 2540)">SMN2</text><path d="M77.4998 2327.33C77.4998 2315.83 86.8275 2306.5 98.3337 2306.5L428.666 2306.5C440.172 2306.5 449.5 2315.83 449.5 2327.33L449.5 2410.67C449.5 2422.17 440.172 2431.5 428.666 2431.5L98.3337 2431.5C86.8275 2431.5 77.4998 2422.17 77.4998 2410.67Z" stroke="#000000" stroke-width="6.875" stroke-linecap="butt" stroke-linejoin="miter" stroke-miterlimit="8" stroke-dasharray="20.625 6.875" stroke-opacity="1" fill="#FFFFFF" fill-rule="evenodd" fill-opacity="1"/><text fill="#BFBFBF" fill-opacity="1" font-family="Calibri,Calibri_MSFontService,sans-serif" font-style="normal" font-variant="normal" font-weight="700" font-stretch="normal" font-size="73" text-anchor="start" direction="ltr" writing-mode="lr-tb" unicode-bidi="normal" text-decoration="none" transform="matrix(1 0 0 1 170.401 2394)">SMN1</text><path d="M77.4998 2473.5C77.4998 2461.9 86.902 2452.5 98.5001 2452.5L428.5 2452.5C440.098 2452.5 449.5 2461.9 449.5 2473.5L449.5 2557.5C449.5 2569.1 440.098 2578.5 428.5 2578.5L98.5001 2578.5C86.902 2578.5 77.4998 2569.1 77.4998 2557.5Z" stroke="#000000" stroke-width="6.875" stroke-linecap="butt" stroke-linejoin="miter" stroke-miterlimit="8" stroke-dasharray="20.625 6.875" stroke-opacity="1" fill="#FFFFFF" fill-rule="evenodd" fill-opacity="1"/><text fill="#BFBFBF" fill-opacity="1" font-family="Calibri,Calibri_MSFontService,sans-serif" font-style="normal" font-variant="normal" font-weight="700" font-stretch="normal" font-size="73" text-anchor="start" direction="ltr" writing-mode="lr-tb" unicode-bidi="normal" text-decoration="none" transform="matrix(1 0 0 1 170.401 2540)">SMN1</text></g></svg>