<svg width="1774" height="326" xmlns="http://www.w3.org/2000/svg" xmlns:xlink="http://www.w3.org/1999/xlink" overflow="hidden"><defs><clipPath id="clip0"><rect x="4" y="1608" width="1774" height="326"/></clipPath></defs><g clip-path="url(#clip0)" transform="translate(-4 -1608)"><path d="M1777.43 1682.5 10.5002 1682.5" stroke="#000000" stroke-width="9.16667" stroke-linecap="butt" stroke-linejoin="miter" stroke-miterlimit="8" stroke-opacity="1" fill="none" fill-rule="evenodd"/><path d="M1362.5 1636.5C1362.5 1624.9 1371.9 1615.5 1383.5 1615.5L1713.5 1615.5C1725.1 1615.5 1734.5 1624.9 1734.5 1636.5L1734.5 1720.5C1734.5 1732.1 1725.1 1741.5 1713.5 1741.5L1383.5 1741.5C1371.9 1741.5 1362.5 1732.1 1362.5 1720.5Z" stroke="#000000" stroke-width="6.875" stroke-linecap="butt" stroke-linejoin="miter" stroke-miterlimit="8" stroke-opacity="1" fill="#76D6FF" fill-rule="evenodd" fill-opacity="1"/><text fill="#000000" fill-opacity="1" font-family="Calibri,Calibri_MSFontService,sans-serif" font-style="normal" font-variant="normal" font-weight="700" font-stretch="normal" font-size="73" text-anchor="start" direction="ltr" writing-mode="lr-tb" unicode-bidi="normal" text-decoration="none" transform="matrix(1 0 0 1 1455.32 1703)">SMN2</text><path d="M1776.43 1844.5 9.5002 1844.5" stroke="#000000" stroke-width="9.16667" stroke-linecap="butt" stroke-linejoin="miter" stroke-miterlimit="8" stroke-opacity="1" fill="none" fill-rule="evenodd"/><path d="M934.5 1636.33C934.5 1624.83 943.828 1615.5 955.334 1615.5L1285.67 1615.5C1297.17 1615.5 1306.5 1624.83 1306.5 1636.33L1306.5 1719.67C1306.5 1731.17 1297.17 1740.5 1285.67 1740.5L955.334 1740.5C943.828 1740.5 934.5 1731.17 934.5 1719.67Z" stroke="#000000" stroke-width="6.875" stroke-linecap="butt" stroke-linejoin="miter" stroke-miterlimit="8" stroke-opacity="1" fill="#76D6FF" fill-rule="evenodd" fill-opacity="1"/><text fill="#000000" fill-opacity="1" font-family="Calibri,Calibri_MSFontService,sans-serif" font-style="normal" font-variant="normal" font-weight="700" font-stretch="normal" font-size="73" text-anchor="start" direction="ltr" writing-mode="lr-tb" unicode-bidi="normal" text-decoration="none" transform="matrix(1 0 0 1 1027.88 1703)">SMN2</text><path d="M504.5 1636.33C504.5 1624.83 513.828 1615.5 525.334 1615.5L855.666 1615.5C867.172 1615.5 876.5 1624.83 876.5 1636.33L876.5 1719.67C876.5 1731.17 867.172 1740.5 855.666 1740.5L525.334 1740.5C513.828 1740.5 504.5 1731.17 504.5 1719.67Z" stroke="#000000" stroke-width="6.875" stroke-linecap="butt" stroke-linejoin="miter" stroke-miterlimit="8" stroke-opacity="1" fill="#76D6FF" fill-rule="evenodd" fill-opacity="1"/><text fill="#000000" fill-opacity="1" font-family="Calibri,Calibri_MSFontService,sans-serif" font-style="normal" font-variant="normal" font-weight="700" font-stretch="normal" font-size="73" text-anchor="start" direction="ltr" writing-mode="lr-tb" unicode-bidi="normal" text-decoration="none" transform="matrix(1 0 0 1 597.841 1703)">SMN2</text><path d="M77.4998 1655.5C77.4998 1643.9 86.902 1634.5 98.5001 1634.5L428.5 1634.5C440.098 1634.5 449.5 1643.9 449.5 1655.5L449.5 1739.5C449.5 1751.1 440.098 1760.5 428.5 1760.5L98.5001 1760.5C86.902 1760.5 77.4998 1751.1 77.4998 1739.5Z" stroke="#000000" stroke-width="6.875" stroke-linecap="butt" stroke-linejoin="miter" stroke-miterlimit="8" stroke-dasharray="20.625 6.875" stroke-opacity="1" fill="#FFFFFF" fill-rule="evenodd" fill-opacity="1"/><text fill="#BFBFBF" fill-opacity="1" font-family="Calibri,Calibri_MSFontService,sans-serif" font-style="normal" font-variant="normal" font-weight="700" font-stretch="normal" font-size="73" text-anchor="start" direction="ltr" writing-mode="lr-tb" unicode-bidi="normal" text-decoration="none" transform="matrix(1 0 0 1 170.401 1722)">SMN1</text><path d="M77.4998 1802.5C77.4998 1790.9 86.902 1781.5 98.5001 1781.5L428.5 1781.5C440.098 1781.5 449.5 1790.9 449.5 1802.5L449.5 1886.5C449.5 1898.1 440.098 1907.5 428.5 1907.5L98.5001 1907.5C86.902 1907.5 77.4998 1898.1 77.4998 1886.5Z" stroke="#000000" stroke-width="6.875" stroke-linecap="butt" stroke-linejoin="miter" stroke-miterlimit="8" stroke-dasharray="20.625 6.875" stroke-opacity="1" fill="#FFFFFF" fill-rule="evenodd" fill-opacity="1"/><text fill="#BFBFBF" fill-opacity="1" font-family="Calibri,Calibri_MSFontService,sans-serif" font-style="normal" font-variant="normal" font-weight="700" font-stretch="normal" font-size="73" text-anchor="start" direction="ltr" writing-mode="lr-tb" unicode-bidi="normal" text-decoration="none" transform="matrix(1 0 0 1 170.401 1869)">SMN1</text><path d="M504.5 1801.5C504.5 1789.9 513.902 1780.5 525.5 1780.5L855.5 1780.5C867.098 1780.5 876.5 1789.9 876.5 1801.5L876.5 1885.5C876.5 1897.1 867.098 1906.5 855.5 1906.5L525.5 1906.5C513.902 1906.5 504.5 1897.1 504.5 1885.5Z" stroke="#000000" stroke-width="6.875" stroke-linecap="butt" stroke-linejoin="miter" stroke-miterlimit="8" stroke-dasharray="20.625 6.875" stroke-opacity="1" fill="#FFFFFF" fill-rule="evenodd" fill-opacity="1"/><text fill="#BFBFBF" fill-opacity="1" font-family="Calibri,Calibri_MSFontService,sans-serif" font-style="normal" font-variant="normal" font-weight="700" font-stretch="normal" font-size="73" text-anchor="start" direction="ltr" writing-mode="lr-tb" unicode-bidi="normal" text-decoration="none" transform="matrix(1 0 0 1 597.841 1868)">SMN2</text></g></svg>