<svg width="1348" height="307" xmlns="http://www.w3.org/2000/svg" xmlns:xlink="http://www.w3.org/1999/xlink" overflow="hidden"><defs><clipPath id="clip0"><rect x="100" y="59" width="1348" height="307"/></clipPath></defs><g clip-path="url(#clip0)" transform="translate(-100 -59)"><path d="M1443.69 131.5 105.5 131.501" stroke="#000000" stroke-width="9.16667" stroke-linecap="butt" stroke-linejoin="miter" stroke-miterlimit="8" stroke-opacity="1" fill="none" fill-rule="evenodd"/><path d="M1443.69 274.5 105.5 274.501" stroke="#000000" stroke-width="9.16667" stroke-linecap="butt" stroke-linejoin="miter" stroke-miterlimit="8" stroke-opacity="1" fill="none" fill-rule="evenodd"/><path d="M167.5 89.5002C167.5 77.9021 176.902 68.4999 188.5 68.4999L518.5 68.4999C530.098 68.4999 539.5 77.9021 539.5 89.5002L539.5 173.499C539.5 185.098 530.098 194.5 518.5 194.5L188.5 194.5C176.902 194.5 167.5 185.098 167.5 173.499Z" stroke="#000000" stroke-width="6.875" stroke-linecap="butt" stroke-linejoin="miter" stroke-miterlimit="8" stroke-opacity="1" fill="#0432FF" fill-rule="evenodd" fill-opacity="1"/><text fill="#FFFFFF" fill-opacity="1" font-family="Calibri,Calibri_MSFontService,sans-serif" font-style="normal" font-variant="normal" font-weight="700" font-stretch="normal" font-size="73" text-anchor="start" direction="ltr" writing-mode="lr-tb" unicode-bidi="normal" text-decoration="none" transform="matrix(1 0 0 1 260.469 156)">SMN1</text><path d="M167.5 235.5C167.5 223.902 176.902 214.5 188.5 214.5L518.5 214.5C530.098 214.5 539.5 223.902 539.5 235.5L539.5 319.499C539.5 331.098 530.098 340.5 518.5 340.5L188.5 340.5C176.902 340.5 167.5 331.098 167.5 319.499Z" stroke="#000000" stroke-width="6.875" stroke-linecap="butt" stroke-linejoin="miter" stroke-miterlimit="8" stroke-dasharray="20.625 6.875" stroke-opacity="1" fill="#FFFFFF" fill-rule="evenodd" fill-opacity="1"/><text fill="#BFBFBF" fill-opacity="1" font-family="Calibri,Calibri_MSFontService,sans-serif" font-style="normal" font-variant="normal" font-weight="700" font-stretch="normal" font-size="73" text-anchor="start" direction="ltr" writing-mode="lr-tb" unicode-bidi="normal" text-decoration="none" transform="matrix(1 0 0 1 260.469 302)">SMN1</text><path d="M595.5 89.3338C595.5 77.8276 604.828 68.4999 616.334 68.4999L946.666 68.4999C958.173 68.4999 967.5 77.8276 967.5 89.3338L967.5 172.666C967.5 184.172 958.173 193.5 946.666 193.5L616.334 193.5C604.828 193.5 595.5 184.172 595.5 172.666Z" stroke="#000000" stroke-width="6.875" stroke-linecap="butt" stroke-linejoin="miter" stroke-miterlimit="8" stroke-opacity="1" fill="#76D6FF" fill-rule="evenodd" fill-opacity="1"/><text fill="#000000" fill-opacity="1" font-family="Calibri,Calibri_MSFontService,sans-serif" font-style="normal" font-variant="normal" font-weight="700" font-stretch="normal" font-size="73" text-anchor="start" direction="ltr" writing-mode="lr-tb" unicode-bidi="normal" text-decoration="none" transform="matrix(1 0 0 1 688.786 156)">SMN2</text><path d="M595.5 235.5C595.5 223.902 604.902 214.5 616.5 214.5L946.5 214.5C958.098 214.5 967.5 223.902 967.5 235.5L967.5 319.499C967.5 331.098 958.098 340.5 946.5 340.5L616.5 340.5C604.902 340.5 595.5 331.098 595.5 319.499Z" stroke="#000000" stroke-width="6.875" stroke-linecap="butt" stroke-linejoin="miter" stroke-miterlimit="8" stroke-opacity="1" fill="#76D6FF" fill-rule="evenodd" fill-opacity="1"/><text fill="#000000" fill-opacity="1" font-family="Calibri,Calibri_MSFontService,sans-serif" font-style="normal" font-variant="normal" font-weight="700" font-stretch="normal" font-size="73" text-anchor="start" direction="ltr" writing-mode="lr-tb" unicode-bidi="normal" text-decoration="none" transform="matrix(1 0 0 1 688.786 302)">SMN2</text><path d="M1024.5 235.5C1024.5 223.902 1033.9 214.5 1045.5 214.5L1375.5 214.5C1387.1 214.5 1396.5 223.902 1396.5 235.5L1396.5 319.499C1396.5 331.098 1387.1 340.5 1375.5 340.5L1045.5 340.5C1033.9 340.5 1024.5 331.098 1024.5 319.499Z" stroke="#000000" stroke-width="6.875" stroke-linecap="butt" stroke-linejoin="miter" stroke-miterlimit="8" stroke-opacity="1" fill="#76D6FF" fill-rule="evenodd" fill-opacity="1"/><text fill="#000000" fill-opacity="1" font-family="Calibri,Calibri_MSFontService,sans-serif" font-style="normal" font-variant="normal" font-weight="700" font-stretch="normal" font-size="73" text-anchor="start" direction="ltr" writing-mode="lr-tb" unicode-bidi="normal" text-decoration="none" transform="matrix(1 0 0 1 1117.53 302)">SMN2</text></g></svg>