<svg width="1348" height="303" xmlns="http://www.w3.org/2000/svg" xmlns:xlink="http://www.w3.org/1999/xlink" overflow="hidden"><defs><clipPath id="clip0"><rect x="100" y="398" width="1348" height="303"/></clipPath></defs><g clip-path="url(#clip0)" transform="translate(-100 -398)"><path d="M1443.69 615.5 105.5 615.501" stroke="#000000" stroke-width="9.16667" stroke-linecap="butt" stroke-linejoin="miter" stroke-miterlimit="8" stroke-opacity="1" fill="none" fill-rule="evenodd"/><path d="M167.5 570.5C167.5 558.902 176.902 549.5 188.5 549.5L518.5 549.5C530.098 549.5 539.5 558.902 539.5 570.5L539.5 654.5C539.5 666.098 530.098 675.5 518.5 675.5L188.5 675.5C176.902 675.5 167.5 666.098 167.5 654.5Z" stroke="#000000" stroke-width="6.875" stroke-linecap="butt" stroke-linejoin="miter" stroke-miterlimit="8" stroke-dasharray="20.625 6.875" stroke-opacity="1" fill="#FFFFFF" fill-rule="evenodd" fill-opacity="1"/><text fill="#BFBFBF" fill-opacity="1" font-family="Calibri,Calibri_MSFontService,sans-serif" font-style="normal" font-variant="normal" font-weight="700" font-stretch="normal" font-size="73" text-anchor="start" direction="ltr" writing-mode="lr-tb" unicode-bidi="normal" text-decoration="none" transform="matrix(1 0 0 1 260.469 637)">SMN1</text><path d="M1443.69 469.5 105.5 469.5" stroke="#000000" stroke-width="9.16667" stroke-linecap="butt" stroke-linejoin="miter" stroke-miterlimit="8" stroke-opacity="1" fill="none" fill-rule="evenodd"/><path d="M595.5 425.5C595.5 413.902 604.902 404.5 616.5 404.5L946.5 404.5C958.098 404.5 967.5 413.902 967.5 425.5L967.5 509.5C967.5 521.098 958.098 530.5 946.5 530.5L616.5 530.5C604.902 530.5 595.5 521.098 595.5 509.5Z" stroke="#000000" stroke-width="6.875" stroke-linecap="butt" stroke-linejoin="miter" stroke-miterlimit="8" stroke-opacity="1" fill="#76D6FF" fill-rule="evenodd" fill-opacity="1"/><text fill="#000000" fill-opacity="1" font-family="Calibri,Calibri_MSFontService,sans-serif" font-style="normal" font-variant="normal" font-weight="700" font-stretch="normal" font-size="73" text-anchor="start" direction="ltr" writing-mode="lr-tb" unicode-bidi="normal" text-decoration="none" transform="matrix(1 0 0 1 688.786 492)">SMN2</text><path d="M167.5 425.334C167.5 413.828 176.828 404.5 188.334 404.5L518.666 404.5C530.172 404.5 539.5 413.828 539.5 425.334L539.5 508.666C539.5 520.172 530.172 529.5 518.666 529.5L188.334 529.5C176.828 529.5 167.5 520.172 167.5 508.666Z" stroke="#000000" stroke-width="6.875" stroke-linecap="butt" stroke-linejoin="miter" stroke-miterlimit="8" stroke-opacity="1" fill="#0432FF" fill-rule="evenodd" fill-opacity="1"/><text fill="#FFFFFF" fill-opacity="1" font-family="Calibri,Calibri_MSFontService,sans-serif" font-style="normal" font-variant="normal" font-weight="700" font-stretch="normal" font-size="73" text-anchor="start" direction="ltr" writing-mode="lr-tb" unicode-bidi="normal" text-decoration="none" transform="matrix(1 0 0 1 260.469 492)">SMN1</text><path d="M1024.5 425.5C1024.5 413.902 1033.9 404.5 1045.5 404.5L1375.5 404.5C1387.1 404.5 1396.5 413.902 1396.5 425.5L1396.5 509.5C1396.5 521.098 1387.1 530.5 1375.5 530.5L1045.5 530.5C1033.9 530.5 1024.5 521.098 1024.5 509.5Z" stroke="#000000" stroke-width="6.875" stroke-linecap="butt" stroke-linejoin="miter" stroke-miterlimit="8" stroke-opacity="1" fill="#76D6FF" fill-rule="evenodd" fill-opacity="1"/><text fill="#000000" fill-opacity="1" font-family="Calibri,Calibri_MSFontService,sans-serif" font-style="normal" font-variant="normal" font-weight="700" font-stretch="normal" font-size="73" text-anchor="start" direction="ltr" writing-mode="lr-tb" unicode-bidi="normal" text-decoration="none" transform="matrix(1 0 0 1 1117.53 492)">SMN2</text><path d="M595.5 571.334C595.5 559.827 604.828 550.5 616.334 550.5L946.666 550.5C958.173 550.5 967.5 559.827 967.5 571.334L967.5 654.666C967.5 666.172 958.173 675.5 946.666 675.5L616.334 675.5C604.828 675.5 595.5 666.172 595.5 654.666Z" stroke="#000000" stroke-width="6.875" stroke-linecap="butt" stroke-linejoin="miter" stroke-miterlimit="8" stroke-opacity="1" fill="#76D6FF" fill-rule="evenodd" fill-opacity="1"/><text fill="#000000" fill-opacity="1" font-family="Calibri,Calibri_MSFontService,sans-serif" font-style="normal" font-variant="normal" font-weight="700" font-stretch="normal" font-size="73" text-anchor="start" direction="ltr" writing-mode="lr-tb" unicode-bidi="normal" text-decoration="none" transform="matrix(1 0 0 1 688.786 638)">SMN2</text></g></svg>