<svg width="1778" height="307" xmlns="http://www.w3.org/2000/svg" xmlns:xlink="http://www.w3.org/1999/xlink" overflow="hidden"><defs><clipPath id="clip0"><rect x="96" y="1072" width="1778" height="307"/></clipPath></defs><g clip-path="url(#clip0)" transform="translate(-96 -1072)"><path d="M1871.43 1146.5 104.5 1146.5" stroke="#000000" stroke-width="9.16667" stroke-linecap="butt" stroke-linejoin="miter" stroke-miterlimit="8" stroke-opacity="1" fill="none" fill-rule="evenodd"/><path d="M1871.43 1283.5 104.5 1283.5" stroke="#000000" stroke-width="9.16667" stroke-linecap="butt" stroke-linejoin="miter" stroke-miterlimit="8" stroke-opacity="1" fill="none" fill-rule="evenodd"/><path d="M595.5 1247.5C595.5 1235.9 604.902 1226.5 616.5 1226.5L946.5 1226.5C958.098 1226.5 967.5 1235.9 967.5 1247.5L967.5 1331.5C967.5 1343.1 958.098 1352.5 946.5 1352.5L616.5 1352.5C604.902 1352.5 595.5 1343.1 595.5 1331.5Z" stroke="#000000" stroke-width="6.875" stroke-linecap="butt" stroke-linejoin="miter" stroke-miterlimit="8" stroke-opacity="1" fill="#76D6FF" fill-rule="evenodd" fill-opacity="1"/><text fill="#000000" fill-opacity="1" font-family="Calibri,Calibri_MSFontService,sans-serif" font-style="normal" font-variant="normal" font-weight="700" font-stretch="normal" font-size="73" text-anchor="start" direction="ltr" writing-mode="lr-tb" unicode-bidi="normal" text-decoration="none" transform="matrix(1 0 0 1 688.786 1314)">SMN2</text><path d="M167.5 1099.5C167.5 1087.9 176.902 1078.5 188.5 1078.5L518.5 1078.5C530.098 1078.5 539.5 1087.9 539.5 1099.5L539.5 1183.5C539.5 1195.1 530.098 1204.5 518.5 1204.5L188.5 1204.5C176.902 1204.5 167.5 1195.1 167.5 1183.5Z" stroke="#000000" stroke-width="6.875" stroke-linecap="butt" stroke-linejoin="miter" stroke-miterlimit="8" stroke-opacity="1" fill="#0432FF" fill-rule="evenodd" fill-opacity="1"/><text fill="#FFFFFF" fill-opacity="1" font-family="Calibri,Calibri_MSFontService,sans-serif" font-style="normal" font-variant="normal" font-weight="700" font-stretch="normal" font-size="73" text-anchor="start" direction="ltr" writing-mode="lr-tb" unicode-bidi="normal" text-decoration="none" transform="matrix(1 0 0 1 260.469 1166)">SMN1</text><path d="M167.5 1247.5C167.5 1235.9 176.902 1226.5 188.5 1226.5L518.5 1226.5C530.098 1226.5 539.5 1235.9 539.5 1247.5L539.5 1331.5C539.5 1343.1 530.098 1352.5 518.5 1352.5L188.5 1352.5C176.902 1352.5 167.5 1343.1 167.5 1331.5Z" stroke="#000000" stroke-width="6.875" stroke-linecap="butt" stroke-linejoin="miter" stroke-miterlimit="8" stroke-dasharray="20.625 6.875" stroke-opacity="1" fill="#FFFFFF" fill-rule="evenodd" fill-opacity="1"/><text fill="#BFBFBF" fill-opacity="1" font-family="Calibri,Calibri_MSFontService,sans-serif" font-style="normal" font-variant="normal" font-weight="700" font-stretch="normal" font-size="73" text-anchor="start" direction="ltr" writing-mode="lr-tb" unicode-bidi="normal" text-decoration="none" transform="matrix(1 0 0 1 260.469 1314)">SMN1</text><path d="M1453.5 1247.5C1453.5 1235.9 1462.9 1226.5 1474.5 1226.5L1803.5 1226.5C1815.1 1226.5 1824.5 1235.9 1824.5 1247.5L1824.5 1331.5C1824.5 1343.1 1815.1 1352.5 1803.5 1352.5L1474.5 1352.5C1462.9 1352.5 1453.5 1343.1 1453.5 1331.5Z" stroke="#000000" stroke-width="6.875" stroke-linecap="butt" stroke-linejoin="miter" stroke-miterlimit="8" stroke-opacity="1" fill="#76D6FF" fill-rule="evenodd" fill-opacity="1"/><text fill="#000000" fill-opacity="1" font-family="Calibri,Calibri_MSFontService,sans-serif" font-style="normal" font-variant="normal" font-weight="700" font-stretch="normal" font-size="73" text-anchor="start" direction="ltr" writing-mode="lr-tb" unicode-bidi="normal" text-decoration="none" transform="matrix(1 0 0 1 1546.27 1314)">SMN2</text><path d="M595.5 1100.5C595.5 1088.9 604.902 1079.5 616.5 1079.5L946.5 1079.5C958.098 1079.5 967.5 1088.9 967.5 1100.5L967.5 1184.5C967.5 1196.1 958.098 1205.5 946.5 1205.5L616.5 1205.5C604.902 1205.5 595.5 1196.1 595.5 1184.5Z" stroke="#000000" stroke-width="6.875" stroke-linecap="butt" stroke-linejoin="miter" stroke-miterlimit="8" stroke-dasharray="20.625 6.875" stroke-opacity="1" fill="#FFFFFF" fill-rule="evenodd" fill-opacity="1"/><text fill="#BFBFBF" fill-opacity="1" font-family="Calibri,Calibri_MSFontService,sans-serif" font-style="normal" font-variant="normal" font-weight="700" font-stretch="normal" font-size="73" text-anchor="start" direction="ltr" writing-mode="lr-tb" unicode-bidi="normal" text-decoration="none" transform="matrix(1 0 0 1 688.786 1167)">SMN2</text><path d="M1024.5 1247.5C1024.5 1235.9 1033.9 1226.5 1045.5 1226.5L1375.5 1226.5C1387.1 1226.5 1396.5 1235.9 1396.5 1247.5L1396.5 1331.5C1396.5 1343.1 1387.1 1352.5 1375.5 1352.5L1045.5 1352.5C1033.9 1352.5 1024.5 1343.1 1024.5 1331.5Z" stroke="#000000" stroke-width="6.875" stroke-linecap="butt" stroke-linejoin="miter" stroke-miterlimit="8" stroke-opacity="1" fill="#76D6FF" fill-rule="evenodd" fill-opacity="1"/><text fill="#000000" fill-opacity="1" font-family="Calibri,Calibri_MSFontService,sans-serif" font-style="normal" font-variant="normal" font-weight="700" font-stretch="normal" font-size="73" text-anchor="start" direction="ltr" writing-mode="lr-tb" unicode-bidi="normal" text-decoration="none" transform="matrix(1 0 0 1 1117.53 1314)">SMN2</text></g></svg>