<svg width="1778" height="308" xmlns="http://www.w3.org/2000/svg" xmlns:xlink="http://www.w3.org/1999/xlink" overflow="hidden"><defs><clipPath id="clip0"><rect x="96" y="737" width="1778" height="308"/></clipPath></defs><g clip-path="url(#clip0)" transform="translate(-96 -737)"><path d="M1871.43 961.5 104.5 961.5" stroke="#000000" stroke-width="9.16667" stroke-linecap="butt" stroke-linejoin="miter" stroke-miterlimit="8" stroke-opacity="1" fill="none" fill-rule="evenodd"/><path d="M167.5 910.5C167.5 898.902 176.902 889.5 188.5 889.5L518.5 889.5C530.098 889.5 539.5 898.902 539.5 910.5L539.5 994.5C539.5 1006.1 530.098 1015.5 518.5 1015.5L188.5 1015.5C176.902 1015.5 167.5 1006.1 167.5 994.5Z" stroke="#000000" stroke-width="6.875" stroke-linecap="butt" stroke-linejoin="miter" stroke-miterlimit="8" stroke-dasharray="20.625 6.875" stroke-opacity="1" fill="#FFFFFF" fill-rule="evenodd" fill-opacity="1"/><text fill="#BFBFBF" fill-opacity="1" font-family="Calibri,Calibri_MSFontService,sans-serif" font-style="normal" font-variant="normal" font-weight="700" font-stretch="normal" font-size="73" text-anchor="start" direction="ltr" writing-mode="lr-tb" unicode-bidi="normal" text-decoration="none" transform="matrix(1 0 0 1 260.469 977)">SMN1</text><path d="M1871.43 814.5 104.5 814.5" stroke="#000000" stroke-width="9.16667" stroke-linecap="butt" stroke-linejoin="miter" stroke-miterlimit="8" stroke-opacity="1" fill="none" fill-rule="evenodd"/><path d="M1453.5 764.5C1453.5 752.902 1462.9 743.5 1474.5 743.5L1803.5 743.5C1815.1 743.5 1824.5 752.902 1824.5 764.5L1824.5 848.5C1824.5 860.098 1815.1 869.5 1803.5 869.5L1474.5 869.5C1462.9 869.5 1453.5 860.098 1453.5 848.5Z" stroke="#000000" stroke-width="6.875" stroke-linecap="butt" stroke-linejoin="miter" stroke-miterlimit="8" stroke-opacity="1" fill="#76D6FF" fill-rule="evenodd" fill-opacity="1"/><text fill="#000000" fill-opacity="1" font-family="Calibri,Calibri_MSFontService,sans-serif" font-style="normal" font-variant="normal" font-weight="700" font-stretch="normal" font-size="73" text-anchor="start" direction="ltr" writing-mode="lr-tb" unicode-bidi="normal" text-decoration="none" transform="matrix(1 0 0 1 1546.27 831)">SMN2</text><path d="M167.5 764.5C167.5 752.902 176.902 743.5 188.5 743.5L518.5 743.5C530.098 743.5 539.5 752.902 539.5 764.5L539.5 848.5C539.5 860.098 530.098 869.5 518.5 869.5L188.5 869.5C176.902 869.5 167.5 860.098 167.5 848.5Z" stroke="#000000" stroke-width="6.875" stroke-linecap="butt" stroke-linejoin="miter" stroke-miterlimit="8" stroke-opacity="1" fill="#0432FF" fill-rule="evenodd" fill-opacity="1"/><text fill="#FFFFFF" fill-opacity="1" font-family="Calibri,Calibri_MSFontService,sans-serif" font-style="normal" font-variant="normal" font-weight="700" font-stretch="normal" font-size="73" text-anchor="start" direction="ltr" writing-mode="lr-tb" unicode-bidi="normal" text-decoration="none" transform="matrix(1 0 0 1 260.469 831)">SMN1</text><path d="M595.5 764.5C595.5 752.902 604.902 743.5 616.5 743.5L946.5 743.5C958.098 743.5 967.5 752.902 967.5 764.5L967.5 848.5C967.5 860.098 958.098 869.5 946.5 869.5L616.5 869.5C604.902 869.5 595.5 860.098 595.5 848.5Z" stroke="#000000" stroke-width="6.875" stroke-linecap="butt" stroke-linejoin="miter" stroke-miterlimit="8" stroke-opacity="1" fill="#76D6FF" fill-rule="evenodd" fill-opacity="1"/><text fill="#000000" fill-opacity="1" font-family="Calibri,Calibri_MSFontService,sans-serif" font-style="normal" font-variant="normal" font-weight="700" font-stretch="normal" font-size="73" text-anchor="start" direction="ltr" writing-mode="lr-tb" unicode-bidi="normal" text-decoration="none" transform="matrix(1 0 0 1 688.786 831)">SMN2</text><path d="M1024.5 764.5C1024.5 752.902 1033.9 743.5 1045.5 743.5L1375.5 743.5C1387.1 743.5 1396.5 752.902 1396.5 764.5L1396.5 848.5C1396.5 860.098 1387.1 869.5 1375.5 869.5L1045.5 869.5C1033.9 869.5 1024.5 860.098 1024.5 848.5Z" stroke="#000000" stroke-width="6.875" stroke-linecap="butt" stroke-linejoin="miter" stroke-miterlimit="8" stroke-opacity="1" fill="#76D6FF" fill-rule="evenodd" fill-opacity="1"/><text fill="#000000" fill-opacity="1" font-family="Calibri,Calibri_MSFontService,sans-serif" font-style="normal" font-variant="normal" font-weight="700" font-stretch="normal" font-size="73" text-anchor="start" direction="ltr" writing-mode="lr-tb" unicode-bidi="normal" text-decoration="none" transform="matrix(1 0 0 1 1117.53 831)">SMN2</text><path d="M595.5 911.5C595.5 899.902 604.902 890.5 616.5 890.5L946.5 890.5C958.098 890.5 967.5 899.902 967.5 911.5L967.5 995.5C967.5 1007.1 958.098 1016.5 946.5 1016.5L616.5 1016.5C604.902 1016.5 595.5 1007.1 595.5 995.5Z" stroke="#000000" stroke-width="6.875" stroke-linecap="butt" stroke-linejoin="miter" stroke-miterlimit="8" stroke-dasharray="20.625 6.875" stroke-opacity="1" fill="#FFFFFF" fill-rule="evenodd" fill-opacity="1"/><text fill="#BFBFBF" fill-opacity="1" font-family="Calibri,Calibri_MSFontService,sans-serif" font-style="normal" font-variant="normal" font-weight="700" font-stretch="normal" font-size="73" text-anchor="start" direction="ltr" writing-mode="lr-tb" unicode-bidi="normal" text-decoration="none" transform="matrix(1 0 0 1 688.786 978)">SMN2</text></g></svg>