<svg width="1779" height="302" xmlns="http://www.w3.org/2000/svg" xmlns:xlink="http://www.w3.org/1999/xlink" overflow="hidden"><defs><clipPath id="clip0"><rect x="1883" y="417" width="1779" height="302"/></clipPath></defs><g clip-path="url(#clip0)" transform="translate(-1883 -417)"><path d="M3657.43 633.5 1890.5 633.5" stroke="#000000" stroke-width="9.16667" stroke-linecap="butt" stroke-linejoin="miter" stroke-miterlimit="8" stroke-opacity="1" fill="none" fill-rule="evenodd"/><path d="M3657.43 487.5 1890.5 487.5" stroke="#000000" stroke-width="9.16667" stroke-linecap="butt" stroke-linejoin="miter" stroke-miterlimit="8" stroke-opacity="1" fill="none" fill-rule="evenodd"/><path d="M2376.5 443.5C2376.5 431.902 2385.9 422.5 2397.5 422.5L2727.5 422.5C2739.1 422.5 2748.5 431.902 2748.5 443.5L2748.5 527.499C2748.5 539.098 2739.1 548.5 2727.5 548.5L2397.5 548.5C2385.9 548.5 2376.5 539.098 2376.5 527.499Z" stroke="#000000" stroke-width="6.875" stroke-linecap="butt" stroke-linejoin="miter" stroke-miterlimit="8" stroke-opacity="1" fill="#0432FF" fill-rule="evenodd" fill-opacity="1"/><text fill="#FFFFFF" fill-opacity="1" font-family="Calibri,Calibri_MSFontService,sans-serif" font-style="normal" font-variant="normal" font-weight="700" font-stretch="normal" font-size="73" text-anchor="start" direction="ltr" writing-mode="lr-tb" unicode-bidi="normal" text-decoration="none" transform="matrix(1 0 0 1 2469.6 510)">SMN1</text><path d="M1947.5 443.5C1947.5 431.902 1956.9 422.5 1968.5 422.5L2298.5 422.5C2310.1 422.5 2319.5 431.902 2319.5 443.5L2319.5 527.499C2319.5 539.098 2310.1 548.5 2298.5 548.5L1968.5 548.5C1956.9 548.5 1947.5 539.098 1947.5 527.499Z" stroke="#000000" stroke-width="6.875" stroke-linecap="butt" stroke-linejoin="miter" stroke-miterlimit="8" stroke-opacity="1" fill="#0432FF" fill-rule="evenodd" fill-opacity="1"/><text fill="#FFFFFF" fill-opacity="1" font-family="Calibri,Calibri_MSFontService,sans-serif" font-style="normal" font-variant="normal" font-weight="700" font-stretch="normal" font-size="73" text-anchor="start" direction="ltr" writing-mode="lr-tb" unicode-bidi="normal" text-decoration="none" transform="matrix(1 0 0 1 2040.39 510)">SMN1</text><path d="M2376.5 587.5C2376.5 575.902 2385.9 566.5 2397.5 566.5L2727.5 566.5C2739.1 566.5 2748.5 575.902 2748.5 587.5L2748.5 671.499C2748.5 683.098 2739.1 692.5 2727.5 692.5L2397.5 692.5C2385.9 692.5 2376.5 683.098 2376.5 671.499Z" stroke="#000000" stroke-width="6.875" stroke-linecap="butt" stroke-linejoin="miter" stroke-miterlimit="8" stroke-opacity="1" fill="#0432FF" fill-rule="evenodd" fill-opacity="1"/><text fill="#FFFFFF" fill-opacity="1" font-family="Calibri,Calibri_MSFontService,sans-serif" font-style="normal" font-variant="normal" font-weight="700" font-stretch="normal" font-size="73" text-anchor="start" direction="ltr" writing-mode="lr-tb" unicode-bidi="normal" text-decoration="none" transform="matrix(1 0 0 1 2469.6 654)">SMN1</text><path d="M2805.5 443.5C2805.5 431.902 2814.9 422.5 2826.5 422.5L3156.5 422.5C3168.1 422.5 3177.5 431.902 3177.5 443.5L3177.5 527.499C3177.5 539.098 3168.1 548.5 3156.5 548.5L2826.5 548.5C2814.9 548.5 2805.5 539.098 2805.5 527.499Z" stroke="#000000" stroke-width="6.875" stroke-linecap="butt" stroke-linejoin="miter" stroke-miterlimit="8" stroke-opacity="1" fill="#76D6FF" fill-rule="evenodd" fill-opacity="1"/><text fill="#000000" fill-opacity="1" font-family="Calibri,Calibri_MSFontService,sans-serif" font-style="normal" font-variant="normal" font-weight="700" font-stretch="normal" font-size="73" text-anchor="start" direction="ltr" writing-mode="lr-tb" unicode-bidi="normal" text-decoration="none" transform="matrix(1 0 0 1 2898.34 510)">SMN2</text><path d="M2805.5 587.5C2805.5 575.902 2814.9 566.5 2826.5 566.5L3156.5 566.5C3168.1 566.5 3177.5 575.902 3177.5 587.5L3177.5 671.499C3177.5 683.098 3168.1 692.5 3156.5 692.5L2826.5 692.5C2814.9 692.5 2805.5 683.098 2805.5 671.499Z" stroke="#000000" stroke-width="6.875" stroke-linecap="butt" stroke-linejoin="miter" stroke-miterlimit="8" stroke-dasharray="20.625 6.875" stroke-opacity="1" fill="#FFFFFF" fill-rule="evenodd" fill-opacity="1"/><text fill="#BFBFBF" fill-opacity="1" font-family="Calibri,Calibri_MSFontService,sans-serif" font-style="normal" font-variant="normal" font-weight="700" font-stretch="normal" font-size="73" text-anchor="start" direction="ltr" writing-mode="lr-tb" unicode-bidi="normal" text-decoration="none" transform="matrix(1 0 0 1 2898.34 654)">SMN2</text><path d="M3231.5 443.5C3231.5 431.902 3240.9 422.5 3252.5 422.5L3582.5 422.5C3594.1 422.5 3603.5 431.902 3603.5 443.5L3603.5 527.499C3603.5 539.098 3594.1 548.5 3582.5 548.5L3252.5 548.5C3240.9 548.5 3231.5 539.098 3231.5 527.499Z" stroke="#000000" stroke-width="6.875" stroke-linecap="butt" stroke-linejoin="miter" stroke-miterlimit="8" stroke-opacity="1" fill="#76D6FF" fill-rule="evenodd" fill-opacity="1"/><text fill="#000000" fill-opacity="1" font-family="Calibri,Calibri_MSFontService,sans-serif" font-style="normal" font-variant="normal" font-weight="700" font-stretch="normal" font-size="73" text-anchor="start" direction="ltr" writing-mode="lr-tb" unicode-bidi="normal" text-decoration="none" transform="matrix(1 0 0 1 3324.69 510)">SMN2</text></g></svg>