<svg width="1779" height="307" xmlns="http://www.w3.org/2000/svg" xmlns:xlink="http://www.w3.org/1999/xlink" overflow="hidden"><defs><clipPath id="clip0"><rect x="1452" y="1086" width="1779" height="307"/></clipPath></defs><g clip-path="url(#clip0)" transform="translate(-1452 -1086)"><path d="M3227.43 1303.5 1460.5 1303.5" stroke="#000000" stroke-width="9.16667" stroke-linecap="butt" stroke-linejoin="miter" stroke-miterlimit="8" stroke-opacity="1" fill="none" fill-rule="evenodd"/><path d="M3227.43 1156.5 1460.5 1156.5" stroke="#000000" stroke-width="9.16667" stroke-linecap="butt" stroke-linejoin="miter" stroke-miterlimit="8" stroke-opacity="1" fill="none" fill-rule="evenodd"/><path d="M2374.5 1114.5C2374.5 1102.9 2383.9 1093.5 2395.5 1093.5L2725.5 1093.5C2737.1 1093.5 2746.5 1102.9 2746.5 1114.5L2746.5 1198.5C2746.5 1210.1 2737.1 1219.5 2725.5 1219.5L2395.5 1219.5C2383.9 1219.5 2374.5 1210.1 2374.5 1198.5Z" stroke="#000000" stroke-width="6.875" stroke-linecap="butt" stroke-linejoin="miter" stroke-miterlimit="8" stroke-opacity="1" fill="#0432FF" fill-rule="evenodd" fill-opacity="1"/><text fill="#FFFFFF" fill-opacity="1" font-family="Calibri,Calibri_MSFontService,sans-serif" font-style="normal" font-variant="normal" font-weight="700" font-stretch="normal" font-size="73" text-anchor="start" direction="ltr" writing-mode="lr-tb" unicode-bidi="normal" text-decoration="none" transform="matrix(1 0 0 1 2468.12 1181)">SMN1</text><path d="M1945.5 1114.5C1945.5 1102.9 1954.9 1093.5 1966.5 1093.5L2296.5 1093.5C2308.1 1093.5 2317.5 1102.9 2317.5 1114.5L2317.5 1198.5C2317.5 1210.1 2308.1 1219.5 2296.5 1219.5L1966.5 1219.5C1954.9 1219.5 1945.5 1210.1 1945.5 1198.5Z" stroke="#000000" stroke-width="6.875" stroke-linecap="butt" stroke-linejoin="miter" stroke-miterlimit="8" stroke-opacity="1" fill="#0432FF" fill-rule="evenodd" fill-opacity="1"/><text fill="#FFFFFF" fill-opacity="1" font-family="Calibri,Calibri_MSFontService,sans-serif" font-style="normal" font-variant="normal" font-weight="700" font-stretch="normal" font-size="73" text-anchor="start" direction="ltr" writing-mode="lr-tb" unicode-bidi="normal" text-decoration="none" transform="matrix(1 0 0 1 2038.92 1181)">SMN1</text><path d="M2374.5 1259.5C2374.5 1247.9 2383.9 1238.5 2395.5 1238.5L2725.5 1238.5C2737.1 1238.5 2746.5 1247.9 2746.5 1259.5L2746.5 1343.5C2746.5 1355.1 2737.1 1364.5 2725.5 1364.5L2395.5 1364.5C2383.9 1364.5 2374.5 1355.1 2374.5 1343.5Z" stroke="#000000" stroke-width="6.875" stroke-linecap="butt" stroke-linejoin="miter" stroke-miterlimit="8" stroke-dasharray="20.625 6.875" stroke-opacity="1" fill="#FFFFFF" fill-rule="evenodd" fill-opacity="1"/><text fill="#BFBFBF" fill-opacity="1" font-family="Calibri,Calibri_MSFontService,sans-serif" font-style="normal" font-variant="normal" font-weight="700" font-stretch="normal" font-size="73" text-anchor="start" direction="ltr" writing-mode="lr-tb" unicode-bidi="normal" text-decoration="none" transform="matrix(1 0 0 1 2468.12 1326)">SMN1</text><path d="M2803.5 1114.5C2803.5 1102.9 2812.9 1093.5 2824.5 1093.5L3154.5 1093.5C3166.1 1093.5 3175.5 1102.9 3175.5 1114.5L3175.5 1198.5C3175.5 1210.1 3166.1 1219.5 3154.5 1219.5L2824.5 1219.5C2812.9 1219.5 2803.5 1210.1 2803.5 1198.5Z" stroke="#000000" stroke-width="6.875" stroke-linecap="butt" stroke-linejoin="miter" stroke-miterlimit="8" stroke-opacity="1" fill="#76D6FF" fill-rule="evenodd" fill-opacity="1"/><text fill="#000000" fill-opacity="1" font-family="Calibri,Calibri_MSFontService,sans-serif" font-style="normal" font-variant="normal" font-weight="700" font-stretch="normal" font-size="73" text-anchor="start" direction="ltr" writing-mode="lr-tb" unicode-bidi="normal" text-decoration="none" transform="matrix(1 0 0 1 2896.86 1181)">SMN2</text><path d="M2803.5 1259.5C2803.5 1247.9 2812.9 1238.5 2824.5 1238.5L3154.5 1238.5C3166.1 1238.5 3175.5 1247.9 3175.5 1259.5L3175.5 1343.5C3175.5 1355.1 3166.1 1364.5 3154.5 1364.5L2824.5 1364.5C2812.9 1364.5 2803.5 1355.1 2803.5 1343.5Z" stroke="#000000" stroke-width="6.875" stroke-linecap="butt" stroke-linejoin="miter" stroke-miterlimit="8" stroke-opacity="1" fill="#76D6FF" fill-rule="evenodd" fill-opacity="1"/><text fill="#000000" fill-opacity="1" font-family="Calibri,Calibri_MSFontService,sans-serif" font-style="normal" font-variant="normal" font-weight="700" font-stretch="normal" font-size="73" text-anchor="start" direction="ltr" writing-mode="lr-tb" unicode-bidi="normal" text-decoration="none" transform="matrix(1 0 0 1 2896.86 1326)">SMN2</text><path d="M1516.5 1114.5C1516.5 1102.9 1525.9 1093.5 1537.5 1093.5L1867.5 1093.5C1879.1 1093.5 1888.5 1102.9 1888.5 1114.5L1888.5 1198.5C1888.5 1210.1 1879.1 1219.5 1867.5 1219.5L1537.5 1219.5C1525.9 1219.5 1516.5 1210.1 1516.5 1198.5Z" stroke="#000000" stroke-width="6.875" stroke-linecap="butt" stroke-linejoin="miter" stroke-miterlimit="8" stroke-opacity="1" fill="#0432FF" fill-rule="evenodd" fill-opacity="1"/><text fill="#FFFFFF" fill-opacity="1" font-family="Calibri,Calibri_MSFontService,sans-serif" font-style="normal" font-variant="normal" font-weight="700" font-stretch="normal" font-size="73" text-anchor="start" direction="ltr" writing-mode="lr-tb" unicode-bidi="normal" text-decoration="none" transform="matrix(1 0 0 1 1609.71 1181)">SMN1</text></g></svg>