<svg width="2219" height="307" xmlns="http://www.w3.org/2000/svg" xmlns:xlink="http://www.w3.org/1999/xlink" overflow="hidden"><defs><clipPath id="clip0"><rect x="1443" y="1425" width="2219" height="307"/></clipPath></defs><g clip-path="url(#clip0)" transform="translate(-1443 -1425)"><path d="M3659.16 1647.5 1450.5 1647.5" stroke="#000000" stroke-width="9.16667" stroke-linecap="butt" stroke-linejoin="miter" stroke-miterlimit="8" stroke-opacity="1" fill="none" fill-rule="evenodd"/><path d="M3659.16 1500.5 1450.5 1500.5" stroke="#000000" stroke-width="9.16667" stroke-linecap="butt" stroke-linejoin="miter" stroke-miterlimit="8" stroke-opacity="1" fill="none" fill-rule="evenodd"/><path d="M2374.5 1453.5C2374.5 1441.9 2383.9 1432.5 2395.5 1432.5L2725.5 1432.5C2737.1 1432.5 2746.5 1441.9 2746.5 1453.5L2746.5 1537.5C2746.5 1549.1 2737.1 1558.5 2725.5 1558.5L2395.5 1558.5C2383.9 1558.5 2374.5 1549.1 2374.5 1537.5Z" stroke="#000000" stroke-width="6.875" stroke-linecap="butt" stroke-linejoin="miter" stroke-miterlimit="8" stroke-opacity="1" fill="#0432FF" fill-rule="evenodd" fill-opacity="1"/><text fill="#FFFFFF" fill-opacity="1" font-family="Calibri,Calibri_MSFontService,sans-serif" font-style="normal" font-variant="normal" font-weight="700" font-stretch="normal" font-size="73" text-anchor="start" direction="ltr" writing-mode="lr-tb" unicode-bidi="normal" text-decoration="none" transform="matrix(1 0 0 1 2468.12 1520)">SMN1</text><path d="M1945.5 1453.5C1945.5 1441.9 1954.9 1432.5 1966.5 1432.5L2296.5 1432.5C2308.1 1432.5 2317.5 1441.9 2317.5 1453.5L2317.5 1537.5C2317.5 1549.1 2308.1 1558.5 2296.5 1558.5L1966.5 1558.5C1954.9 1558.5 1945.5 1549.1 1945.5 1537.5Z" stroke="#000000" stroke-width="6.875" stroke-linecap="butt" stroke-linejoin="miter" stroke-miterlimit="8" stroke-opacity="1" fill="#0432FF" fill-rule="evenodd" fill-opacity="1"/><text fill="#FFFFFF" fill-opacity="1" font-family="Calibri,Calibri_MSFontService,sans-serif" font-style="normal" font-variant="normal" font-weight="700" font-stretch="normal" font-size="73" text-anchor="start" direction="ltr" writing-mode="lr-tb" unicode-bidi="normal" text-decoration="none" transform="matrix(1 0 0 1 2038.92 1520)">SMN1</text><path d="M2374.5 1598.5C2374.5 1586.9 2383.9 1577.5 2395.5 1577.5L2725.5 1577.5C2737.1 1577.5 2746.5 1586.9 2746.5 1598.5L2746.5 1682.5C2746.5 1694.1 2737.1 1703.5 2725.5 1703.5L2395.5 1703.5C2383.9 1703.5 2374.5 1694.1 2374.5 1682.5Z" stroke="#000000" stroke-width="6.875" stroke-linecap="butt" stroke-linejoin="miter" stroke-miterlimit="8" stroke-dasharray="20.625 6.875" stroke-opacity="1" fill="#FFFFFF" fill-rule="evenodd" fill-opacity="1"/><text fill="#BFBFBF" fill-opacity="1" font-family="Calibri,Calibri_MSFontService,sans-serif" font-style="normal" font-variant="normal" font-weight="700" font-stretch="normal" font-size="73" text-anchor="start" direction="ltr" writing-mode="lr-tb" unicode-bidi="normal" text-decoration="none" transform="matrix(1 0 0 1 2468.12 1665)">SMN1</text><path d="M2803.5 1453.5C2803.5 1441.9 2812.9 1432.5 2824.5 1432.5L3154.5 1432.5C3166.1 1432.5 3175.5 1441.9 3175.5 1453.5L3175.5 1537.5C3175.5 1549.1 3166.1 1558.5 3154.5 1558.5L2824.5 1558.5C2812.9 1558.5 2803.5 1549.1 2803.5 1537.5Z" stroke="#000000" stroke-width="6.875" stroke-linecap="butt" stroke-linejoin="miter" stroke-miterlimit="8" stroke-opacity="1" fill="#76D6FF" fill-rule="evenodd" fill-opacity="1"/><text fill="#000000" fill-opacity="1" font-family="Calibri,Calibri_MSFontService,sans-serif" font-style="normal" font-variant="normal" font-weight="700" font-stretch="normal" font-size="73" text-anchor="start" direction="ltr" writing-mode="lr-tb" unicode-bidi="normal" text-decoration="none" transform="matrix(1 0 0 1 2896.86 1520)">SMN2</text><path d="M2803.5 1598.5C2803.5 1586.9 2812.9 1577.5 2824.5 1577.5L3154.5 1577.5C3166.1 1577.5 3175.5 1586.9 3175.5 1598.5L3175.5 1682.5C3175.5 1694.1 3166.1 1703.5 3154.5 1703.5L2824.5 1703.5C2812.9 1703.5 2803.5 1694.1 2803.5 1682.5Z" stroke="#000000" stroke-width="6.875" stroke-linecap="butt" stroke-linejoin="miter" stroke-miterlimit="8" stroke-dasharray="20.625 6.875" stroke-opacity="1" fill="#FFFFFF" fill-rule="evenodd" fill-opacity="1"/><text fill="#BFBFBF" fill-opacity="1" font-family="Calibri,Calibri_MSFontService,sans-serif" font-style="normal" font-variant="normal" font-weight="700" font-stretch="normal" font-size="73" text-anchor="start" direction="ltr" writing-mode="lr-tb" unicode-bidi="normal" text-decoration="none" transform="matrix(1 0 0 1 2896.86 1665)">SMN2</text><path d="M1516.5 1453.5C1516.5 1441.9 1525.9 1432.5 1537.5 1432.5L1867.5 1432.5C1879.1 1432.5 1888.5 1441.9 1888.5 1453.5L1888.5 1537.5C1888.5 1549.1 1879.1 1558.5 1867.5 1558.5L1537.5 1558.5C1525.9 1558.5 1516.5 1549.1 1516.5 1537.5Z" stroke="#000000" stroke-width="6.875" stroke-linecap="butt" stroke-linejoin="miter" stroke-miterlimit="8" stroke-opacity="1" fill="#0432FF" fill-rule="evenodd" fill-opacity="1"/><text fill="#FFFFFF" fill-opacity="1" font-family="Calibri,Calibri_MSFontService,sans-serif" font-style="normal" font-variant="normal" font-weight="700" font-stretch="normal" font-size="73" text-anchor="start" direction="ltr" writing-mode="lr-tb" unicode-bidi="normal" text-decoration="none" transform="matrix(1 0 0 1 1609.71 1520)">SMN1</text><path d="M3233.5 1453.5C3233.5 1441.9 3242.9 1432.5 3254.5 1432.5L3584.5 1432.5C3596.1 1432.5 3605.5 1441.9 3605.5 1453.5L3605.5 1537.5C3605.5 1549.1 3596.1 1558.5 3584.5 1558.5L3254.5 1558.5C3242.9 1558.5 3233.5 1549.1 3233.5 1537.5Z" stroke="#000000" stroke-width="6.875" stroke-linecap="butt" stroke-linejoin="miter" stroke-miterlimit="8" stroke-opacity="1" fill="#76D6FF" fill-rule="evenodd" fill-opacity="1"/><text fill="#000000" fill-opacity="1" font-family="Calibri,Calibri_MSFontService,sans-serif" font-style="normal" font-variant="normal" font-weight="700" font-stretch="normal" font-size="73" text-anchor="start" direction="ltr" writing-mode="lr-tb" unicode-bidi="normal" text-decoration="none" transform="matrix(1 0 0 1 3326.77 1520)">SMN2</text></g></svg>