<svg width="1348" height="303" xmlns="http://www.w3.org/2000/svg" xmlns:xlink="http://www.w3.org/1999/xlink" overflow="hidden"><defs><clipPath id="clip0"><rect x="1883" y="77" width="1348" height="303"/></clipPath></defs><g clip-path="url(#clip0)" transform="translate(-1883 -77)"><path d="M3230.69 298.5 1892.5 298.5" stroke="#000000" stroke-width="9.16667" stroke-linecap="butt" stroke-linejoin="miter" stroke-miterlimit="8" stroke-opacity="1" fill="none" fill-rule="evenodd"/><path d="M3230.69 151.5 1892.5 151.5" stroke="#000000" stroke-width="9.16667" stroke-linecap="butt" stroke-linejoin="miter" stroke-miterlimit="8" stroke-opacity="1" fill="none" fill-rule="evenodd"/><path d="M2376.5 105.334C2376.5 93.8277 2385.83 84.5001 2397.33 84.5001L2727.67 84.5001C2739.17 84.5001 2748.5 93.8277 2748.5 105.334L2748.5 188.666C2748.5 200.172 2739.17 209.5 2727.67 209.5L2397.33 209.5C2385.83 209.5 2376.5 200.172 2376.5 188.666Z" stroke="#000000" stroke-width="6.875" stroke-linecap="butt" stroke-linejoin="miter" stroke-miterlimit="8" stroke-opacity="1" fill="#0432FF" fill-rule="evenodd" fill-opacity="1"/><text fill="#FFFFFF" fill-opacity="1" font-family="Calibri,Calibri_MSFontService,sans-serif" font-style="normal" font-variant="normal" font-weight="700" font-stretch="normal" font-size="73" text-anchor="start" direction="ltr" writing-mode="lr-tb" unicode-bidi="normal" text-decoration="none" transform="matrix(1 0 0 1 2469.6 171)">SMN1</text><path d="M1947.5 105.334C1947.5 93.8277 1956.83 84.5001 1968.33 84.5001L2298.67 84.5001C2310.17 84.5001 2319.5 93.8277 2319.5 105.334L2319.5 188.666C2319.5 200.172 2310.17 209.5 2298.67 209.5L1968.33 209.5C1956.83 209.5 1947.5 200.172 1947.5 188.666Z" stroke="#000000" stroke-width="6.875" stroke-linecap="butt" stroke-linejoin="miter" stroke-miterlimit="8" stroke-opacity="1" fill="#0432FF" fill-rule="evenodd" fill-opacity="1"/><text fill="#FFFFFF" fill-opacity="1" font-family="Calibri,Calibri_MSFontService,sans-serif" font-style="normal" font-variant="normal" font-weight="700" font-stretch="normal" font-size="73" text-anchor="start" direction="ltr" writing-mode="lr-tb" unicode-bidi="normal" text-decoration="none" transform="matrix(1 0 0 1 2040.39 171)">SMN1</text><path d="M2376.5 250.5C2376.5 238.902 2385.9 229.5 2397.5 229.5L2727.5 229.5C2739.1 229.5 2748.5 238.902 2748.5 250.5L2748.5 334.5C2748.5 346.098 2739.1 355.5 2727.5 355.5L2397.5 355.5C2385.9 355.5 2376.5 346.098 2376.5 334.5Z" stroke="#000000" stroke-width="6.875" stroke-linecap="butt" stroke-linejoin="miter" stroke-miterlimit="8" stroke-opacity="1" fill="#0432FF" fill-rule="evenodd" fill-opacity="1"/><text fill="#FFFFFF" fill-opacity="1" font-family="Calibri,Calibri_MSFontService,sans-serif" font-style="normal" font-variant="normal" font-weight="700" font-stretch="normal" font-size="73" text-anchor="start" direction="ltr" writing-mode="lr-tb" unicode-bidi="normal" text-decoration="none" transform="matrix(1 0 0 1 2469.6 317)">SMN1</text><path d="M2805.5 105.334C2805.5 93.8277 2814.83 84.5001 2826.33 84.5001L3156.67 84.5001C3168.17 84.5001 3177.5 93.8277 3177.5 105.334L3177.5 188.666C3177.5 200.172 3168.17 209.5 3156.67 209.5L2826.33 209.5C2814.83 209.5 2805.5 200.172 2805.5 188.666Z" stroke="#000000" stroke-width="6.875" stroke-linecap="butt" stroke-linejoin="miter" stroke-miterlimit="8" stroke-opacity="1" fill="#76D6FF" fill-rule="evenodd" fill-opacity="1"/><text fill="#000000" fill-opacity="1" font-family="Calibri,Calibri_MSFontService,sans-serif" font-style="normal" font-variant="normal" font-weight="700" font-stretch="normal" font-size="73" text-anchor="start" direction="ltr" writing-mode="lr-tb" unicode-bidi="normal" text-decoration="none" transform="matrix(1 0 0 1 2898.34 171)">SMN2</text><path d="M2805.5 250.5C2805.5 238.902 2814.9 229.5 2826.5 229.5L3156.5 229.5C3168.1 229.5 3177.5 238.902 3177.5 250.5L3177.5 334.5C3177.5 346.098 3168.1 355.5 3156.5 355.5L2826.5 355.5C2814.9 355.5 2805.5 346.098 2805.5 334.5Z" stroke="#000000" stroke-width="6.875" stroke-linecap="butt" stroke-linejoin="miter" stroke-miterlimit="8" stroke-opacity="1" fill="#76D6FF" fill-rule="evenodd" fill-opacity="1"/><text fill="#000000" fill-opacity="1" font-family="Calibri,Calibri_MSFontService,sans-serif" font-style="normal" font-variant="normal" font-weight="700" font-stretch="normal" font-size="73" text-anchor="start" direction="ltr" writing-mode="lr-tb" unicode-bidi="normal" text-decoration="none" transform="matrix(1 0 0 1 2898.34 317)">SMN2</text></g></svg>