<svg width="1779" height="303" xmlns="http://www.w3.org/2000/svg" xmlns:xlink="http://www.w3.org/1999/xlink" overflow="hidden"><defs><clipPath id="clip0"><rect x="1883" y="751" width="1779" height="303"/></clipPath></defs><g clip-path="url(#clip0)" transform="translate(-1883 -751)"><path d="M3657.43 971.5 1890.5 971.5" stroke="#000000" stroke-width="9.16667" stroke-linecap="butt" stroke-linejoin="miter" stroke-miterlimit="8" stroke-opacity="1" fill="none" fill-rule="evenodd"/><path d="M3657.43 824.5 1890.5 824.501" stroke="#000000" stroke-width="9.16667" stroke-linecap="butt" stroke-linejoin="miter" stroke-miterlimit="8" stroke-opacity="1" fill="none" fill-rule="evenodd"/><path d="M2376.5 777.5C2376.5 765.902 2385.9 756.5 2397.5 756.5L2727.5 756.5C2739.1 756.5 2748.5 765.902 2748.5 777.5L2748.5 861.5C2748.5 873.098 2739.1 882.5 2727.5 882.5L2397.5 882.5C2385.9 882.5 2376.5 873.098 2376.5 861.5Z" stroke="#000000" stroke-width="6.875" stroke-linecap="butt" stroke-linejoin="miter" stroke-miterlimit="8" stroke-opacity="1" fill="#0432FF" fill-rule="evenodd" fill-opacity="1"/><text fill="#FFFFFF" fill-opacity="1" font-family="Calibri,Calibri_MSFontService,sans-serif" font-style="normal" font-variant="normal" font-weight="700" font-stretch="normal" font-size="73" text-anchor="start" direction="ltr" writing-mode="lr-tb" unicode-bidi="normal" text-decoration="none" transform="matrix(1 0 0 1 2469.6 844)">SMN1</text><path d="M1947.5 777.5C1947.5 765.902 1956.9 756.5 1968.5 756.5L2298.5 756.5C2310.1 756.5 2319.5 765.902 2319.5 777.5L2319.5 861.5C2319.5 873.098 2310.1 882.5 2298.5 882.5L1968.5 882.5C1956.9 882.5 1947.5 873.098 1947.5 861.5Z" stroke="#000000" stroke-width="6.875" stroke-linecap="butt" stroke-linejoin="miter" stroke-miterlimit="8" stroke-opacity="1" fill="#0432FF" fill-rule="evenodd" fill-opacity="1"/><text fill="#FFFFFF" fill-opacity="1" font-family="Calibri,Calibri_MSFontService,sans-serif" font-style="normal" font-variant="normal" font-weight="700" font-stretch="normal" font-size="73" text-anchor="start" direction="ltr" writing-mode="lr-tb" unicode-bidi="normal" text-decoration="none" transform="matrix(1 0 0 1 2040.39 844)">SMN1</text><path d="M2376.5 923.5C2376.5 911.902 2385.9 902.5 2397.5 902.5L2727.5 902.5C2739.1 902.5 2748.5 911.902 2748.5 923.5L2748.5 1007.5C2748.5 1019.1 2739.1 1028.5 2727.5 1028.5L2397.5 1028.5C2385.9 1028.5 2376.5 1019.1 2376.5 1007.5Z" stroke="#000000" stroke-width="6.875" stroke-linecap="butt" stroke-linejoin="miter" stroke-miterlimit="8" stroke-opacity="1" fill="#0432FF" fill-rule="evenodd" fill-opacity="1"/><text fill="#FFFFFF" fill-opacity="1" font-family="Calibri,Calibri_MSFontService,sans-serif" font-style="normal" font-variant="normal" font-weight="700" font-stretch="normal" font-size="73" text-anchor="start" direction="ltr" writing-mode="lr-tb" unicode-bidi="normal" text-decoration="none" transform="matrix(1 0 0 1 2469.6 990)">SMN1</text><path d="M2805.5 777.5C2805.5 765.902 2814.9 756.5 2826.5 756.5L3156.5 756.5C3168.1 756.5 3177.5 765.902 3177.5 777.5L3177.5 861.5C3177.5 873.098 3168.1 882.5 3156.5 882.5L2826.5 882.5C2814.9 882.5 2805.5 873.098 2805.5 861.5Z" stroke="#000000" stroke-width="6.875" stroke-linecap="butt" stroke-linejoin="miter" stroke-miterlimit="8" stroke-dasharray="20.625 6.875" stroke-opacity="1" fill="#FFFFFF" fill-rule="evenodd" fill-opacity="1"/><text fill="#BFBFBF" fill-opacity="1" font-family="Calibri,Calibri_MSFontService,sans-serif" font-style="normal" font-variant="normal" font-weight="700" font-stretch="normal" font-size="73" text-anchor="start" direction="ltr" writing-mode="lr-tb" unicode-bidi="normal" text-decoration="none" transform="matrix(1 0 0 1 2898.34 844)">SMN2</text><path d="M2805.5 923.5C2805.5 911.902 2814.9 902.5 2826.5 902.5L3156.5 902.5C3168.1 902.5 3177.5 911.902 3177.5 923.5L3177.5 1007.5C3177.5 1019.1 3168.1 1028.5 3156.5 1028.5L2826.5 1028.5C2814.9 1028.5 2805.5 1019.1 2805.5 1007.5Z" stroke="#000000" stroke-width="6.875" stroke-linecap="butt" stroke-linejoin="miter" stroke-miterlimit="8" stroke-opacity="1" fill="#76D6FF" fill-rule="evenodd" fill-opacity="1"/><text fill="#000000" fill-opacity="1" font-family="Calibri,Calibri_MSFontService,sans-serif" font-style="normal" font-variant="normal" font-weight="700" font-stretch="normal" font-size="73" text-anchor="start" direction="ltr" writing-mode="lr-tb" unicode-bidi="normal" text-decoration="none" transform="matrix(1 0 0 1 2898.34 990)">SMN2</text><path d="M3231.5 923.5C3231.5 911.902 3240.9 902.5 3252.5 902.5L3582.5 902.5C3594.1 902.5 3603.5 911.902 3603.5 923.5L3603.5 1007.5C3603.5 1019.1 3594.1 1028.5 3582.5 1028.5L3252.5 1028.5C3240.9 1028.5 3231.5 1019.1 3231.5 1007.5Z" stroke="#000000" stroke-width="6.875" stroke-linecap="butt" stroke-linejoin="miter" stroke-miterlimit="8" stroke-opacity="1" fill="#76D6FF" fill-rule="evenodd" fill-opacity="1"/><text fill="#000000" fill-opacity="1" font-family="Calibri,Calibri_MSFontService,sans-serif" font-style="normal" font-variant="normal" font-weight="700" font-stretch="normal" font-size="73" text-anchor="start" direction="ltr" writing-mode="lr-tb" unicode-bidi="normal" text-decoration="none" transform="matrix(1 0 0 1 3324.69 990)">SMN2</text></g></svg>