<svg width="930" height="307" xmlns="http://www.w3.org/2000/svg" xmlns:xlink="http://www.w3.org/1999/xlink" overflow="hidden"><defs><clipPath id="clip0"><rect x="458" y="495" width="930" height="307"/></clipPath></defs><g clip-path="url(#clip0)" transform="translate(-458 -495)"><path d="M1385.94 564.5 463.5 564.5" stroke="#000000" stroke-width="9.16667" stroke-linecap="butt" stroke-linejoin="miter" stroke-miterlimit="8" stroke-opacity="1" fill="none" fill-rule="evenodd"/><path d="M530.5 522.5C530.5 510.902 539.902 501.5 551.5 501.5L881.5 501.5C893.098 501.5 902.5 510.902 902.5 522.5L902.5 606.5C902.5 618.098 893.098 627.5 881.5 627.5L551.5 627.5C539.902 627.5 530.5 618.098 530.5 606.5Z" stroke="#000000" stroke-width="6.875" stroke-linecap="butt" stroke-linejoin="miter" stroke-miterlimit="8" stroke-dasharray="20.625 6.875" stroke-opacity="1" fill="#FFFFFF" fill-rule="evenodd" fill-opacity="1"/><text fill="#BFBFBF" fill-opacity="1" font-family="Calibri,Calibri_MSFontService,sans-serif" font-style="normal" font-variant="normal" font-weight="700" font-stretch="normal" font-size="73" text-anchor="start" direction="ltr" writing-mode="lr-tb" unicode-bidi="normal" text-decoration="none" transform="matrix(1 0 0 1 624.013 589)">SMN2</text><path d="M958.5 522.5C958.5 510.902 967.902 501.5 979.5 501.5L1309.5 501.5C1321.1 501.5 1330.5 510.902 1330.5 522.5L1330.5 606.5C1330.5 618.098 1321.1 627.5 1309.5 627.5L979.5 627.5C967.902 627.5 958.5 618.098 958.5 606.5Z" stroke="#000000" stroke-width="6.875" stroke-linecap="butt" stroke-linejoin="miter" stroke-miterlimit="8" stroke-dasharray="20.625 6.875" stroke-opacity="1" fill="#FFFFFF" fill-rule="evenodd" fill-opacity="1"/><text fill="#BFBFBF" fill-opacity="1" font-family="Calibri,Calibri_MSFontService,sans-serif" font-style="normal" font-variant="normal" font-weight="700" font-stretch="normal" font-size="73" text-anchor="start" direction="ltr" writing-mode="lr-tb" unicode-bidi="normal" text-decoration="none" transform="matrix(1 0 0 1 1051.77 589)">SMN1</text><path d="M1385.94 711.5 463.5 711.5" stroke="#000000" stroke-width="9.16667" stroke-linecap="butt" stroke-linejoin="miter" stroke-miterlimit="8" stroke-opacity="1" fill="none" fill-rule="evenodd"/><path d="M530 669C530 657.402 539.402 648 551 648L881 648C892.598 648 902 657.402 902 669L902 752.999C902 764.598 892.598 774 881 774L551 774C539.402 774 530 764.598 530 752.999Z" fill="#76D6FF" fill-rule="evenodd" fill-opacity="1"/><text fill="#000000" fill-opacity="1" font-family="Calibri,Calibri_MSFontService,sans-serif" font-style="normal" font-variant="normal" font-weight="700" font-stretch="normal" font-size="73" text-anchor="start" direction="ltr" writing-mode="lr-tb" unicode-bidi="normal" text-decoration="none" transform="matrix(1 0 0 1 624.013 736)">SMN2</text><path d="M958.5 669.5C958.5 657.902 967.902 648.5 979.5 648.5L1309.5 648.5C1321.1 648.5 1330.5 657.902 1330.5 669.5L1330.5 753.5C1330.5 765.098 1321.1 774.5 1309.5 774.5L979.5 774.5C967.902 774.5 958.5 765.098 958.5 753.5Z" stroke="#000000" stroke-width="6.875" stroke-linecap="butt" stroke-linejoin="miter" stroke-miterlimit="8" stroke-dasharray="20.625 6.875" stroke-opacity="1" fill="#FFFFFF" fill-rule="evenodd" fill-opacity="1"/><text fill="#BFBFBF" fill-opacity="1" font-family="Calibri,Calibri_MSFontService,sans-serif" font-style="normal" font-variant="normal" font-weight="700" font-stretch="normal" font-size="73" text-anchor="start" direction="ltr" writing-mode="lr-tb" unicode-bidi="normal" text-decoration="none" transform="matrix(1 0 0 1 1051.77 736)">SMN1</text></g></svg>