<svg width="1348" height="308" xmlns="http://www.w3.org/2000/svg" xmlns:xlink="http://www.w3.org/1999/xlink" overflow="hidden"><defs><clipPath id="clip0"><rect x="4" y="1287" width="1348" height="308"/></clipPath></defs><g clip-path="url(#clip0)" transform="translate(-4 -1287)"><path d="M1350.69 1361.5 12.4999 1361.5" stroke="#000000" stroke-width="9.16667" stroke-linecap="butt" stroke-linejoin="miter" stroke-miterlimit="8" stroke-opacity="1" fill="none" fill-rule="evenodd"/><path d="M1350.69 1499.5 12.4999 1499.5" stroke="#000000" stroke-width="9.16667" stroke-linecap="butt" stroke-linejoin="miter" stroke-miterlimit="8" stroke-opacity="1" fill="none" fill-rule="evenodd"/><path d="M504.5 1315.5C504.5 1303.9 513.902 1294.5 525.5 1294.5L855.5 1294.5C867.098 1294.5 876.5 1303.9 876.5 1315.5L876.5 1399.5C876.5 1411.1 867.098 1420.5 855.5 1420.5L525.5 1420.5C513.902 1420.5 504.5 1411.1 504.5 1399.5Z" stroke="#000000" stroke-width="6.875" stroke-linecap="butt" stroke-linejoin="miter" stroke-miterlimit="8" stroke-opacity="1" fill="#76D6FF" fill-rule="evenodd" fill-opacity="1"/><text fill="#000000" fill-opacity="1" font-family="Calibri,Calibri_MSFontService,sans-serif" font-style="normal" font-variant="normal" font-weight="700" font-stretch="normal" font-size="73" text-anchor="start" direction="ltr" writing-mode="lr-tb" unicode-bidi="normal" text-decoration="none" transform="matrix(1 0 0 1 597.841 1382)">SMN2</text><path d="M934.5 1315.5C934.5 1303.9 943.902 1294.5 955.5 1294.5L1285.5 1294.5C1297.1 1294.5 1306.5 1303.9 1306.5 1315.5L1306.5 1399.5C1306.5 1411.1 1297.1 1420.5 1285.5 1420.5L955.5 1420.5C943.902 1420.5 934.5 1411.1 934.5 1399.5Z" stroke="#000000" stroke-width="6.875" stroke-linecap="butt" stroke-linejoin="miter" stroke-miterlimit="8" stroke-opacity="1" fill="#76D6FF" fill-rule="evenodd" fill-opacity="1"/><text fill="#000000" fill-opacity="1" font-family="Calibri,Calibri_MSFontService,sans-serif" font-style="normal" font-variant="normal" font-weight="700" font-stretch="normal" font-size="73" text-anchor="start" direction="ltr" writing-mode="lr-tb" unicode-bidi="normal" text-decoration="none" transform="matrix(1 0 0 1 1027.88 1382)">SMN2</text><path d="M77.4998 1316.5C77.4998 1304.9 86.902 1295.5 98.5001 1295.5L428.5 1295.5C440.098 1295.5 449.5 1304.9 449.5 1316.5L449.5 1400.5C449.5 1412.1 440.098 1421.5 428.5 1421.5L98.5001 1421.5C86.902 1421.5 77.4998 1412.1 77.4998 1400.5Z" stroke="#000000" stroke-width="6.875" stroke-linecap="butt" stroke-linejoin="miter" stroke-miterlimit="8" stroke-dasharray="20.625 6.875" stroke-opacity="1" fill="#FFFFFF" fill-rule="evenodd" fill-opacity="1"/><text fill="#BFBFBF" fill-opacity="1" font-family="Calibri,Calibri_MSFontService,sans-serif" font-style="normal" font-variant="normal" font-weight="700" font-stretch="normal" font-size="73" text-anchor="start" direction="ltr" writing-mode="lr-tb" unicode-bidi="normal" text-decoration="none" transform="matrix(1 0 0 1 170.401 1383)">SMN1</text><path d="M77.4998 1462.5C77.4998 1450.9 86.902 1441.5 98.5001 1441.5L428.5 1441.5C440.098 1441.5 449.5 1450.9 449.5 1462.5L449.5 1546.5C449.5 1558.1 440.098 1567.5 428.5 1567.5L98.5001 1567.5C86.902 1567.5 77.4998 1558.1 77.4998 1546.5Z" stroke="#000000" stroke-width="6.875" stroke-linecap="butt" stroke-linejoin="miter" stroke-miterlimit="8" stroke-dasharray="20.625 6.875" stroke-opacity="1" fill="#FFFFFF" fill-rule="evenodd" fill-opacity="1"/><text fill="#BFBFBF" fill-opacity="1" font-family="Calibri,Calibri_MSFontService,sans-serif" font-style="normal" font-variant="normal" font-weight="700" font-stretch="normal" font-size="73" text-anchor="start" direction="ltr" writing-mode="lr-tb" unicode-bidi="normal" text-decoration="none" transform="matrix(1 0 0 1 170.401 1529)">SMN1</text><path d="M504.5 1464.33C504.5 1452.83 513.828 1443.5 525.334 1443.5L855.666 1443.5C867.172 1443.5 876.5 1452.83 876.5 1464.33L876.5 1547.67C876.5 1559.17 867.172 1568.5 855.666 1568.5L525.334 1568.5C513.828 1568.5 504.5 1559.17 504.5 1547.67Z" stroke="#000000" stroke-width="6.875" stroke-linecap="butt" stroke-linejoin="miter" stroke-miterlimit="8" stroke-opacity="1" fill="#76D6FF" fill-rule="evenodd" fill-opacity="1"/><text fill="#000000" fill-opacity="1" font-family="Calibri,Calibri_MSFontService,sans-serif" font-style="normal" font-variant="normal" font-weight="700" font-stretch="normal" font-size="73" text-anchor="start" direction="ltr" writing-mode="lr-tb" unicode-bidi="normal" text-decoration="none" transform="matrix(1 0 0 1 597.841 1530)">SMN2</text></g></svg>