<svg width="1348" height="311" xmlns="http://www.w3.org/2000/svg" xmlns:xlink="http://www.w3.org/1999/xlink" overflow="hidden"><defs><clipPath id="clip0"><rect x="4" y="1957" width="1348" height="311"/></clipPath></defs><g clip-path="url(#clip0)" transform="translate(-4 -1957)"><path d="M1350.69 2033.5 12.4999 2033.5" stroke="#000000" stroke-width="9.16667" stroke-linecap="butt" stroke-linejoin="miter" stroke-miterlimit="8" stroke-opacity="1" fill="none" fill-rule="evenodd"/><path d="M504.5 1985.5C504.5 1973.9 513.902 1964.5 525.5 1964.5L855.5 1964.5C867.098 1964.5 876.5 1973.9 876.5 1985.5L876.5 2069.5C876.5 2081.1 867.098 2090.5 855.5 2090.5L525.5 2090.5C513.902 2090.5 504.5 2081.1 504.5 2069.5Z" stroke="#000000" stroke-width="6.875" stroke-linecap="butt" stroke-linejoin="miter" stroke-miterlimit="8" stroke-opacity="1" fill="#76D6FF" fill-rule="evenodd" fill-opacity="1"/><text fill="#000000" fill-opacity="1" font-family="Calibri,Calibri_MSFontService,sans-serif" font-style="normal" font-variant="normal" font-weight="700" font-stretch="normal" font-size="73" text-anchor="start" direction="ltr" writing-mode="lr-tb" unicode-bidi="normal" text-decoration="none" transform="matrix(1 0 0 1 597.841 2052)">SMN2</text><path d="M934.5 1985.5C934.5 1973.9 943.902 1964.5 955.5 1964.5L1285.5 1964.5C1297.1 1964.5 1306.5 1973.9 1306.5 1985.5L1306.5 2069.5C1306.5 2081.1 1297.1 2090.5 1285.5 2090.5L955.5 2090.5C943.902 2090.5 934.5 2081.1 934.5 2069.5Z" stroke="#000000" stroke-width="6.875" stroke-linecap="butt" stroke-linejoin="miter" stroke-miterlimit="8" stroke-opacity="1" fill="#76D6FF" fill-rule="evenodd" fill-opacity="1"/><text fill="#000000" fill-opacity="1" font-family="Calibri,Calibri_MSFontService,sans-serif" font-style="normal" font-variant="normal" font-weight="700" font-stretch="normal" font-size="73" text-anchor="start" direction="ltr" writing-mode="lr-tb" unicode-bidi="normal" text-decoration="none" transform="matrix(1 0 0 1 1027.88 2052)">SMN2</text><path d="M1350.69 2180.5 12.4999 2180.5" stroke="#000000" stroke-width="9.16667" stroke-linecap="butt" stroke-linejoin="miter" stroke-miterlimit="8" stroke-opacity="1" fill="none" fill-rule="evenodd"/><path d="M504.5 2131.5C504.5 2119.9 513.902 2110.5 525.5 2110.5L855.5 2110.5C867.098 2110.5 876.5 2119.9 876.5 2131.5L876.5 2215.5C876.5 2227.1 867.098 2236.5 855.5 2236.5L525.5 2236.5C513.902 2236.5 504.5 2227.1 504.5 2215.5Z" stroke="#000000" stroke-width="6.875" stroke-linecap="butt" stroke-linejoin="miter" stroke-miterlimit="8" stroke-opacity="1" fill="#76D6FF" fill-rule="evenodd" fill-opacity="1"/><text fill="#000000" fill-opacity="1" font-family="Calibri,Calibri_MSFontService,sans-serif" font-style="normal" font-variant="normal" font-weight="700" font-stretch="normal" font-size="73" text-anchor="start" direction="ltr" writing-mode="lr-tb" unicode-bidi="normal" text-decoration="none" transform="matrix(1 0 0 1 597.841 2198)">SMN2</text><path d="M934.5 2131.5C934.5 2119.9 943.902 2110.5 955.5 2110.5L1285.5 2110.5C1297.1 2110.5 1306.5 2119.9 1306.5 2131.5L1306.5 2215.5C1306.5 2227.1 1297.1 2236.5 1285.5 2236.5L955.5 2236.5C943.902 2236.5 934.5 2227.1 934.5 2215.5Z" stroke="#000000" stroke-width="6.875" stroke-linecap="butt" stroke-linejoin="miter" stroke-miterlimit="8" stroke-opacity="1" fill="#76D6FF" fill-rule="evenodd" fill-opacity="1"/><text fill="#000000" fill-opacity="1" font-family="Calibri,Calibri_MSFontService,sans-serif" font-style="normal" font-variant="normal" font-weight="700" font-stretch="normal" font-size="73" text-anchor="start" direction="ltr" writing-mode="lr-tb" unicode-bidi="normal" text-decoration="none" transform="matrix(1 0 0 1 1027.88 2198)">SMN2</text><path d="M77.4998 1991.5C77.4998 1979.9 86.902 1970.5 98.5001 1970.5L428.5 1970.5C440.098 1970.5 449.5 1979.9 449.5 1991.5L449.5 2075.5C449.5 2087.1 440.098 2096.5 428.5 2096.5L98.5001 2096.5C86.902 2096.5 77.4998 2087.1 77.4998 2075.5Z" stroke="#000000" stroke-width="6.875" stroke-linecap="butt" stroke-linejoin="miter" stroke-miterlimit="8" stroke-dasharray="20.625 6.875" stroke-opacity="1" fill="#FFFFFF" fill-rule="evenodd" fill-opacity="1"/><text fill="#BFBFBF" fill-opacity="1" font-family="Calibri,Calibri_MSFontService,sans-serif" font-style="normal" font-variant="normal" font-weight="700" font-stretch="normal" font-size="73" text-anchor="start" direction="ltr" writing-mode="lr-tb" unicode-bidi="normal" text-decoration="none" transform="matrix(1 0 0 1 170.401 2058)">SMN1</text><path d="M77.4998 2138.5C77.4998 2126.9 86.902 2117.5 98.5001 2117.5L428.5 2117.5C440.098 2117.5 449.5 2126.9 449.5 2138.5L449.5 2222.5C449.5 2234.1 440.098 2243.5 428.5 2243.5L98.5001 2243.5C86.902 2243.5 77.4998 2234.1 77.4998 2222.5Z" stroke="#000000" stroke-width="6.875" stroke-linecap="butt" stroke-linejoin="miter" stroke-miterlimit="8" stroke-dasharray="20.625 6.875" stroke-opacity="1" fill="#FFFFFF" fill-rule="evenodd" fill-opacity="1"/><text fill="#BFBFBF" fill-opacity="1" font-family="Calibri,Calibri_MSFontService,sans-serif" font-style="normal" font-variant="normal" font-weight="700" font-stretch="normal" font-size="73" text-anchor="start" direction="ltr" writing-mode="lr-tb" unicode-bidi="normal" text-decoration="none" transform="matrix(1 0 0 1 170.401 2205)">SMN1</text></g></svg>