<svg width="931" height="307" xmlns="http://www.w3.org/2000/svg" xmlns:xlink="http://www.w3.org/1999/xlink" overflow="hidden"><defs><clipPath id="clip0"><rect x="1915" y="-55" width="931" height="307"/></clipPath></defs><g clip-path="url(#clip0)" transform="translate(-1915 55)"><path d="M2845.94 16.5 1923.5 16.5004" stroke="#000000" stroke-width="9.16667" stroke-linecap="butt" stroke-linejoin="miter" stroke-miterlimit="8" stroke-opacity="1" fill="none" fill-rule="evenodd"/><path d="M2410.5-25.4996C2410.5-37.0977 2419.9-46.4999 2431.5-46.4999L2761.5-46.4999C2773.1-46.4999 2782.5-37.0977 2782.5-25.4996L2782.5 58.4996C2782.5 70.0977 2773.1 79.4999 2761.5 79.4999L2431.5 79.4999C2419.9 79.4999 2410.5 70.0977 2410.5 58.4996Z" stroke="#000000" stroke-width="6.875" stroke-linecap="butt" stroke-linejoin="miter" stroke-miterlimit="8" stroke-dasharray="20.625 6.875" stroke-opacity="1" fill="#FFFFFF" fill-rule="evenodd" fill-opacity="1"/><text fill="#BFBFBF" fill-opacity="1" font-family="Calibri,Calibri_MSFontService,sans-serif" font-style="normal" font-variant="normal" font-weight="700" font-stretch="normal" font-size="73" text-anchor="start" direction="ltr" writing-mode="lr-tb" unicode-bidi="normal" text-decoration="none" transform="matrix(1 0 0 1 2503.79 41)">SMN2</text><path d="M2845.94 159.5 1923.5 159.5" stroke="#000000" stroke-width="9.16667" stroke-linecap="butt" stroke-linejoin="miter" stroke-miterlimit="8" stroke-opacity="1" fill="none" fill-rule="evenodd"/><path d="M2410.5 120.5C2410.5 108.902 2419.9 99.4998 2431.5 99.4998L2761.5 99.4998C2773.1 99.4998 2782.5 108.902 2782.5 120.5L2782.5 204.499C2782.5 216.097 2773.1 225.5 2761.5 225.5L2431.5 225.5C2419.9 225.5 2410.5 216.097 2410.5 204.499Z" stroke="#000000" stroke-width="6.875" stroke-linecap="butt" stroke-linejoin="miter" stroke-miterlimit="8" stroke-dasharray="20.625 6.875" stroke-opacity="1" fill="#FFFFFF" fill-rule="evenodd" fill-opacity="1"/><text fill="#BFBFBF" fill-opacity="1" font-family="Calibri,Calibri_MSFontService,sans-serif" font-style="normal" font-variant="normal" font-weight="700" font-stretch="normal" font-size="73" text-anchor="start" direction="ltr" writing-mode="lr-tb" unicode-bidi="normal" text-decoration="none" transform="matrix(1 0 0 1 2503.79 187)">SMN2</text><path d="M1981.5-25.4996C1981.5-37.0977 1990.9-46.4999 2002.5-46.4999L2332.5-46.4999C2344.1-46.4999 2353.5-37.0977 2353.5-25.4996L2353.5 58.4996C2353.5 70.0977 2344.1 79.4999 2332.5 79.4999L2002.5 79.4999C1990.9 79.4999 1981.5 70.0977 1981.5 58.4996Z" stroke="#000000" stroke-width="6.875" stroke-linecap="butt" stroke-linejoin="miter" stroke-miterlimit="8" stroke-opacity="1" fill="#0432FF" fill-rule="evenodd" fill-opacity="1"/><text fill="#FFFFFF" fill-opacity="1" font-family="Calibri,Calibri_MSFontService,sans-serif" font-style="normal" font-variant="normal" font-weight="700" font-stretch="normal" font-size="73" text-anchor="start" direction="ltr" writing-mode="lr-tb" unicode-bidi="normal" text-decoration="none" transform="matrix(1 0 0 1 2075.05 41)">SMN1</text><path d="M1981.5 120.5C1981.5 108.902 1990.9 99.4998 2002.5 99.4998L2332.5 99.4998C2344.1 99.4998 2353.5 108.902 2353.5 120.5L2353.5 204.499C2353.5 216.097 2344.1 225.5 2332.5 225.5L2002.5 225.5C1990.9 225.5 1981.5 216.097 1981.5 204.499Z" stroke="#000000" stroke-width="6.875" stroke-linecap="butt" stroke-linejoin="miter" stroke-miterlimit="8" stroke-dasharray="20.625 6.875" stroke-opacity="1" fill="#FFFFFF" fill-rule="evenodd" fill-opacity="1"/><text fill="#BFBFBF" fill-opacity="1" font-family="Calibri,Calibri_MSFontService,sans-serif" font-style="normal" font-variant="normal" font-weight="700" font-stretch="normal" font-size="73" text-anchor="start" direction="ltr" writing-mode="lr-tb" unicode-bidi="normal" text-decoration="none" transform="matrix(1 0 0 1 2075.05 187)">SMN1</text></g></svg>