<svg width="931" height="302" xmlns="http://www.w3.org/2000/svg" xmlns:xlink="http://www.w3.org/1999/xlink" overflow="hidden"><defs><clipPath id="clip0"><rect x="1915" y="284" width="931" height="302"/></clipPath></defs><g clip-path="url(#clip0)" transform="translate(-1915 -284)"><path d="M2845.94 500.5 1923.5 500.5" stroke="#000000" stroke-width="9.16667" stroke-linecap="butt" stroke-linejoin="miter" stroke-miterlimit="8" stroke-opacity="1" fill="none" fill-rule="evenodd"/><path d="M2410.5 455.5C2410.5 443.902 2419.9 434.5 2431.5 434.5L2761.5 434.5C2773.1 434.5 2782.5 443.902 2782.5 455.5L2782.5 539.499C2782.5 551.098 2773.1 560.5 2761.5 560.5L2431.5 560.5C2419.9 560.5 2410.5 551.098 2410.5 539.499Z" stroke="#000000" stroke-width="6.875" stroke-linecap="butt" stroke-linejoin="miter" stroke-miterlimit="8" stroke-dasharray="20.625 6.875" stroke-opacity="1" fill="#FFFFFF" fill-rule="evenodd" fill-opacity="1"/><text fill="#BFBFBF" fill-opacity="1" font-family="Calibri,Calibri_MSFontService,sans-serif" font-style="normal" font-variant="normal" font-weight="700" font-stretch="normal" font-size="73" text-anchor="start" direction="ltr" writing-mode="lr-tb" unicode-bidi="normal" text-decoration="none" transform="matrix(1 0 0 1 2503.79 522)">SMN2</text><path d="M1981.5 455.5C1981.5 443.902 1990.9 434.5 2002.5 434.5L2332.5 434.5C2344.1 434.5 2353.5 443.902 2353.5 455.5L2353.5 539.499C2353.5 551.098 2344.1 560.5 2332.5 560.5L2002.5 560.5C1990.9 560.5 1981.5 551.098 1981.5 539.499Z" stroke="#000000" stroke-width="6.875" stroke-linecap="butt" stroke-linejoin="miter" stroke-miterlimit="8" stroke-dasharray="20.625 6.875" stroke-opacity="1" fill="#FFFFFF" fill-rule="evenodd" fill-opacity="1"/><text fill="#BFBFBF" fill-opacity="1" font-family="Calibri,Calibri_MSFontService,sans-serif" font-style="normal" font-variant="normal" font-weight="700" font-stretch="normal" font-size="73" text-anchor="start" direction="ltr" writing-mode="lr-tb" unicode-bidi="normal" text-decoration="none" transform="matrix(1 0 0 1 2075.05 522)">SMN1</text><path d="M2845.94 353.5 1923.5 353.5" stroke="#000000" stroke-width="9.16667" stroke-linecap="butt" stroke-linejoin="miter" stroke-miterlimit="8" stroke-opacity="1" fill="none" fill-rule="evenodd"/><path d="M2410.5 309.5C2410.5 297.902 2419.9 288.5 2431.5 288.5L2761.5 288.5C2773.1 288.5 2782.5 297.902 2782.5 309.5L2782.5 393.499C2782.5 405.098 2773.1 414.5 2761.5 414.5L2431.5 414.5C2419.9 414.5 2410.5 405.098 2410.5 393.499Z" stroke="#000000" stroke-width="6.875" stroke-linecap="butt" stroke-linejoin="miter" stroke-miterlimit="8" stroke-opacity="1" fill="#76D6FF" fill-rule="evenodd" fill-opacity="1"/><text fill="#000000" fill-opacity="1" font-family="Calibri,Calibri_MSFontService,sans-serif" font-style="normal" font-variant="normal" font-weight="700" font-stretch="normal" font-size="73" text-anchor="start" direction="ltr" writing-mode="lr-tb" unicode-bidi="normal" text-decoration="none" transform="matrix(1 0 0 1 2503.79 376)">SMN2</text><path d="M1981.5 309.5C1981.5 297.902 1990.9 288.5 2002.5 288.5L2332.5 288.5C2344.1 288.5 2353.5 297.902 2353.5 309.5L2353.5 393.499C2353.5 405.098 2344.1 414.5 2332.5 414.5L2002.5 414.5C1990.9 414.5 1981.5 405.098 1981.5 393.499Z" stroke="#000000" stroke-width="6.875" stroke-linecap="butt" stroke-linejoin="miter" stroke-miterlimit="8" stroke-opacity="1" fill="#0432FF" fill-rule="evenodd" fill-opacity="1"/><text fill="#FFFFFF" fill-opacity="1" font-family="Calibri,Calibri_MSFontService,sans-serif" font-style="normal" font-variant="normal" font-weight="700" font-stretch="normal" font-size="73" text-anchor="start" direction="ltr" writing-mode="lr-tb" unicode-bidi="normal" text-decoration="none" transform="matrix(1 0 0 1 2075.05 376)">SMN1</text></g></svg>