<svg width="1348" height="307" xmlns="http://www.w3.org/2000/svg" xmlns:xlink="http://www.w3.org/1999/xlink" overflow="hidden"><defs><clipPath id="clip0"><rect x="2007" y="398" width="1348" height="307"/></clipPath></defs><g clip-path="url(#clip0)" transform="translate(-2007 -398)"><path d="M3351.69 469.5 2013.5 469.5" stroke="#000000" stroke-width="9.16667" stroke-linecap="butt" stroke-linejoin="miter" stroke-miterlimit="8" stroke-opacity="1" fill="none" fill-rule="evenodd"/><path d="M3350.69 616.5 2012.5 616.5" stroke="#000000" stroke-width="9.16667" stroke-linecap="butt" stroke-linejoin="miter" stroke-miterlimit="8" stroke-opacity="1" fill="none" fill-rule="evenodd"/><path d="M2072.5 427.334C2072.5 415.828 2081.83 406.5 2093.33 406.5L2423.67 406.5C2435.17 406.5 2444.5 415.828 2444.5 427.334L2444.5 510.666C2444.5 522.172 2435.17 531.5 2423.67 531.5L2093.33 531.5C2081.83 531.5 2072.5 522.172 2072.5 510.666Z" stroke="#000000" stroke-width="6.875" stroke-linecap="butt" stroke-linejoin="miter" stroke-miterlimit="8" stroke-opacity="1" fill="#0432FF" fill-rule="evenodd" fill-opacity="1"/><text fill="#FFFFFF" fill-opacity="1" font-family="Calibri,Calibri_MSFontService,sans-serif" font-style="normal" font-variant="normal" font-weight="700" font-stretch="normal" font-size="73" text-anchor="start" direction="ltr" writing-mode="lr-tb" unicode-bidi="normal" text-decoration="none" transform="matrix(1 0 0 1 2166.08 494)">SMN1</text><path d="M2072.5 572.5C2072.5 560.902 2081.9 551.5 2093.5 551.5L2423.5 551.5C2435.1 551.5 2444.5 560.902 2444.5 572.5L2444.5 656.499C2444.5 668.097 2435.1 677.5 2423.5 677.5L2093.5 677.5C2081.9 677.5 2072.5 668.097 2072.5 656.499Z" stroke="#000000" stroke-width="6.875" stroke-linecap="butt" stroke-linejoin="miter" stroke-miterlimit="8" stroke-dasharray="20.625 6.875" stroke-opacity="1" fill="#FFFFFF" fill-rule="evenodd" fill-opacity="1"/><text fill="#BFBFBF" fill-opacity="1" font-family="Calibri,Calibri_MSFontService,sans-serif" font-style="normal" font-variant="normal" font-weight="700" font-stretch="normal" font-size="73" text-anchor="start" direction="ltr" writing-mode="lr-tb" unicode-bidi="normal" text-decoration="none" transform="matrix(1 0 0 1 2165.52 639)">SMN1</text><path d="M2501.5 427.5C2501.5 415.902 2510.9 406.5 2522.5 406.5L2851.5 406.5C2863.1 406.5 2872.5 415.902 2872.5 427.5L2872.5 511.5C2872.5 523.098 2863.1 532.5 2851.5 532.5L2522.5 532.5C2510.9 532.5 2501.5 523.098 2501.5 511.5Z" stroke="#000000" stroke-width="6.875" stroke-linecap="butt" stroke-linejoin="miter" stroke-miterlimit="8" stroke-opacity="1" fill="#76D6FF" fill-rule="evenodd" fill-opacity="1"/><text fill="#000000" fill-opacity="1" font-family="Calibri,Calibri_MSFontService,sans-serif" font-style="normal" font-variant="normal" font-weight="700" font-stretch="normal" font-size="73" text-anchor="start" direction="ltr" writing-mode="lr-tb" unicode-bidi="normal" text-decoration="none" transform="matrix(1 0 0 1 2594.26 494)">SMN2</text><path d="M2501.5 573.5C2501.5 561.902 2510.9 552.5 2522.5 552.5L2851.5 552.5C2863.1 552.5 2872.5 561.902 2872.5 573.5L2872.5 657.499C2872.5 669.098 2863.1 678.5 2851.5 678.5L2522.5 678.5C2510.9 678.5 2501.5 669.098 2501.5 657.499Z" stroke="#000000" stroke-width="6.875" stroke-linecap="butt" stroke-linejoin="miter" stroke-miterlimit="8" stroke-opacity="1" fill="#76D6FF" fill-rule="evenodd" fill-opacity="1"/><text fill="#000000" fill-opacity="1" font-family="Calibri,Calibri_MSFontService,sans-serif" font-style="normal" font-variant="normal" font-weight="700" font-stretch="normal" font-size="73" text-anchor="start" direction="ltr" writing-mode="lr-tb" unicode-bidi="normal" text-decoration="none" transform="matrix(1 0 0 1 2594.26 640)">SMN2</text><path d="M2929.5 573.5C2929.5 561.902 2938.9 552.5 2950.5 552.5L3280.5 552.5C3292.1 552.5 3301.5 561.902 3301.5 573.5L3301.5 657.499C3301.5 669.097 3292.1 678.5 3280.5 678.5L2950.5 678.5C2938.9 678.5 2929.5 669.097 2929.5 657.499Z" stroke="#000000" stroke-width="6.875" stroke-linecap="butt" stroke-linejoin="miter" stroke-miterlimit="8" stroke-opacity="1" fill="#76D6FF" fill-rule="evenodd" fill-opacity="1"/><text fill="#000000" fill-opacity="1" font-family="Calibri,Calibri_MSFontService,sans-serif" font-style="normal" font-variant="normal" font-weight="700" font-stretch="normal" font-size="73" text-anchor="start" direction="ltr" writing-mode="lr-tb" unicode-bidi="normal" text-decoration="none" transform="matrix(1 0 0 1 3023 640)">SMN2</text><path d="M2929.5 427.5C2929.5 415.902 2938.9 406.5 2950.5 406.5L3280.5 406.5C3292.1 406.5 3301.5 415.902 3301.5 427.5L3301.5 511.5C3301.5 523.098 3292.1 532.5 3280.5 532.5L2950.5 532.5C2938.9 532.5 2929.5 523.098 2929.5 511.5Z" stroke="#000000" stroke-width="6.875" stroke-linecap="butt" stroke-linejoin="miter" stroke-miterlimit="8" stroke-opacity="1" fill="#76D6FF" fill-rule="evenodd" fill-opacity="1"/><text fill="#000000" fill-opacity="1" font-family="Calibri,Calibri_MSFontService,sans-serif" font-style="normal" font-variant="normal" font-weight="700" font-stretch="normal" font-size="73" text-anchor="start" direction="ltr" writing-mode="lr-tb" unicode-bidi="normal" text-decoration="none" transform="matrix(1 0 0 1 3023 494)">SMN2</text></g></svg>