<svg width="1348" height="307" xmlns="http://www.w3.org/2000/svg" xmlns:xlink="http://www.w3.org/1999/xlink" overflow="hidden"><defs><clipPath id="clip0"><rect x="453" y="96" width="1348" height="307"/></clipPath></defs><g clip-path="url(#clip0)" transform="translate(-453 -96)"><path d="M1800.69 166.5 462.5 166.5" stroke="#000000" stroke-width="9.16667" stroke-linecap="butt" stroke-linejoin="miter" stroke-miterlimit="8" stroke-opacity="1" fill="none" fill-rule="evenodd"/><path d="M1800.69 313.5 462.5 313.5" stroke="#000000" stroke-width="9.16667" stroke-linecap="butt" stroke-linejoin="miter" stroke-miterlimit="8" stroke-opacity="1" fill="none" fill-rule="evenodd"/><path d="M522.5 124.5C522.5 112.902 531.902 103.5 543.5 103.5L873.5 103.5C885.098 103.5 894.5 112.902 894.5 124.5L894.5 208.499C894.5 220.098 885.098 229.5 873.5 229.5L543.5 229.5C531.902 229.5 522.5 220.098 522.5 208.499Z" stroke="#000000" stroke-width="6.875" stroke-linecap="butt" stroke-linejoin="miter" stroke-miterlimit="8" stroke-opacity="1" fill="#0432FF" fill-rule="evenodd" fill-opacity="1"/><text fill="#FFFFFF" fill-opacity="1" font-family="Calibri,Calibri_MSFontService,sans-serif" font-style="normal" font-variant="normal" font-weight="700" font-stretch="normal" font-size="73" text-anchor="start" direction="ltr" writing-mode="lr-tb" unicode-bidi="normal" text-decoration="none" transform="matrix(1 0 0 1 616.03 191)">SMN1</text><path d="M522.5 271.334C522.5 259.828 531.828 250.5 543.334 250.5L873.666 250.5C885.172 250.5 894.5 259.828 894.5 271.334L894.5 354.666C894.5 366.172 885.172 375.5 873.666 375.5L543.334 375.5C531.828 375.5 522.5 366.172 522.5 354.666Z" stroke="#000000" stroke-width="6.875" stroke-linecap="butt" stroke-linejoin="miter" stroke-miterlimit="8" stroke-opacity="1" fill="#0432FF" fill-rule="evenodd" fill-opacity="1"/><text fill="#FFFFFF" fill-opacity="1" font-family="Calibri,Calibri_MSFontService,sans-serif" font-style="normal" font-variant="normal" font-weight="700" font-stretch="normal" font-size="73" text-anchor="start" direction="ltr" writing-mode="lr-tb" unicode-bidi="normal" text-decoration="none" transform="matrix(1 0 0 1 616.03 338)">SMN1</text><path d="M951.5 124.5C951.5 112.902 960.902 103.5 972.5 103.5L1302.5 103.5C1314.1 103.5 1323.5 112.902 1323.5 124.5L1323.5 208.499C1323.5 220.098 1314.1 229.5 1302.5 229.5L972.5 229.5C960.902 229.5 951.5 220.098 951.5 208.499Z" stroke="#000000" stroke-width="6.875" stroke-linecap="butt" stroke-linejoin="miter" stroke-miterlimit="8" stroke-opacity="1" fill="#76D6FF" fill-rule="evenodd" fill-opacity="1"/><text fill="#000000" fill-opacity="1" font-family="Calibri,Calibri_MSFontService,sans-serif" font-style="normal" font-variant="normal" font-weight="700" font-stretch="normal" font-size="73" text-anchor="start" direction="ltr" writing-mode="lr-tb" unicode-bidi="normal" text-decoration="none" transform="matrix(1 0 0 1 1044.77 191)">SMN2</text><path d="M951.5 271.334C951.5 259.828 960.828 250.5 972.334 250.5L1302.67 250.5C1314.17 250.5 1323.5 259.828 1323.5 271.334L1323.5 354.666C1323.5 366.172 1314.17 375.5 1302.67 375.5L972.334 375.5C960.828 375.5 951.5 366.172 951.5 354.666Z" stroke="#000000" stroke-width="6.875" stroke-linecap="butt" stroke-linejoin="miter" stroke-miterlimit="8" stroke-opacity="1" fill="#76D6FF" fill-rule="evenodd" fill-opacity="1"/><text fill="#000000" fill-opacity="1" font-family="Calibri,Calibri_MSFontService,sans-serif" font-style="normal" font-variant="normal" font-weight="700" font-stretch="normal" font-size="73" text-anchor="start" direction="ltr" writing-mode="lr-tb" unicode-bidi="normal" text-decoration="none" transform="matrix(1 0 0 1 1044.77 338)">SMN2</text><path d="M1380.5 124.5C1380.5 112.902 1389.9 103.5 1401.5 103.5L1731.5 103.5C1743.1 103.5 1752.5 112.902 1752.5 124.5L1752.5 208.499C1752.5 220.098 1743.1 229.5 1731.5 229.5L1401.5 229.5C1389.9 229.5 1380.5 220.098 1380.5 208.499Z" stroke="#000000" stroke-width="6.875" stroke-linecap="butt" stroke-linejoin="miter" stroke-miterlimit="8" stroke-opacity="1" fill="#76D6FF" fill-rule="evenodd" fill-opacity="1"/><text fill="#000000" fill-opacity="1" font-family="Calibri,Calibri_MSFontService,sans-serif" font-style="normal" font-variant="normal" font-weight="700" font-stretch="normal" font-size="73" text-anchor="start" direction="ltr" writing-mode="lr-tb" unicode-bidi="normal" text-decoration="none" transform="matrix(1 0 0 1 1473.51 191)">SMN2</text></g></svg>