<svg width="1348" height="303" xmlns="http://www.w3.org/2000/svg" xmlns:xlink="http://www.w3.org/1999/xlink" overflow="hidden"><defs><clipPath id="clip0"><rect x="45" y="77" width="1348" height="303"/></clipPath></defs><g clip-path="url(#clip0)" transform="translate(-45 -77)"><path d="M1391.69 298.5 53.5002 298.5" stroke="#000000" stroke-width="9.16667" stroke-linecap="butt" stroke-linejoin="miter" stroke-miterlimit="8" stroke-opacity="1" fill="none" fill-rule="evenodd"/><path d="M1391.69 151.5 53.5002 151.5" stroke="#000000" stroke-width="9.16667" stroke-linecap="butt" stroke-linejoin="miter" stroke-miterlimit="8" stroke-opacity="1" fill="none" fill-rule="evenodd"/><path d="M537.5 105.334C537.5 93.8277 546.828 84.5001 558.334 84.5001L888.666 84.5001C900.172 84.5001 909.5 93.8277 909.5 105.334L909.5 188.666C909.5 200.172 900.172 209.5 888.666 209.5L558.334 209.5C546.828 209.5 537.5 200.172 537.5 188.666Z" stroke="#000000" stroke-width="6.875" stroke-linecap="butt" stroke-linejoin="miter" stroke-miterlimit="8" stroke-opacity="1" fill="#0432FF" fill-rule="evenodd" fill-opacity="1"/><text fill="#FFFFFF" fill-opacity="1" font-family="Calibri,Calibri_MSFontService,sans-serif" font-style="normal" font-variant="normal" font-weight="700" font-stretch="normal" font-size="73" text-anchor="start" direction="ltr" writing-mode="lr-tb" unicode-bidi="normal" text-decoration="none" transform="matrix(1 0 0 1 630.769 171)">SMN1</text><path d="M108.5 105.334C108.5 93.8277 117.828 84.5001 129.334 84.5001L459.666 84.5001C471.172 84.5001 480.5 93.8277 480.5 105.334L480.5 188.666C480.5 200.172 471.172 209.5 459.666 209.5L129.334 209.5C117.828 209.5 108.5 200.172 108.5 188.666Z" stroke="#000000" stroke-width="6.875" stroke-linecap="butt" stroke-linejoin="miter" stroke-miterlimit="8" stroke-opacity="1" fill="#0432FF" fill-rule="evenodd" fill-opacity="1"/><text fill="#FFFFFF" fill-opacity="1" font-family="Calibri,Calibri_MSFontService,sans-serif" font-style="normal" font-variant="normal" font-weight="700" font-stretch="normal" font-size="73" text-anchor="start" direction="ltr" writing-mode="lr-tb" unicode-bidi="normal" text-decoration="none" transform="matrix(1 0 0 1 201.561 171)">SMN1</text><path d="M537.5 250.5C537.5 238.902 546.902 229.5 558.5 229.5L888.5 229.5C900.098 229.5 909.5 238.902 909.5 250.5L909.5 334.5C909.5 346.098 900.098 355.5 888.5 355.5L558.5 355.5C546.902 355.5 537.5 346.098 537.5 334.5Z" stroke="#000000" stroke-width="6.875" stroke-linecap="butt" stroke-linejoin="miter" stroke-miterlimit="8" stroke-opacity="1" fill="#0432FF" fill-rule="evenodd" fill-opacity="1"/><text fill="#FFFFFF" fill-opacity="1" font-family="Calibri,Calibri_MSFontService,sans-serif" font-style="normal" font-variant="normal" font-weight="700" font-stretch="normal" font-size="73" text-anchor="start" direction="ltr" writing-mode="lr-tb" unicode-bidi="normal" text-decoration="none" transform="matrix(1 0 0 1 630.769 317)">SMN1</text><path d="M966.5 105.334C966.5 93.8277 975.828 84.5001 987.334 84.5001L1317.67 84.5001C1329.17 84.5001 1338.5 93.8277 1338.5 105.334L1338.5 188.666C1338.5 200.172 1329.17 209.5 1317.67 209.5L987.334 209.5C975.828 209.5 966.5 200.172 966.5 188.666Z" stroke="#000000" stroke-width="6.875" stroke-linecap="butt" stroke-linejoin="miter" stroke-miterlimit="8" stroke-dasharray="20.625 6.875" stroke-opacity="1" fill="#FFFFFF" fill-rule="evenodd" fill-opacity="1"/><text fill="#BFBFBF" fill-opacity="1" font-family="Calibri,Calibri_MSFontService,sans-serif" font-style="normal" font-variant="normal" font-weight="700" font-stretch="normal" font-size="73" text-anchor="start" direction="ltr" writing-mode="lr-tb" unicode-bidi="normal" text-decoration="none" transform="matrix(1 0 0 1 1059.51 171)">SMN2</text><path d="M966.5 250.5C966.5 238.902 975.902 229.5 987.5 229.5L1317.5 229.5C1329.1 229.5 1338.5 238.902 1338.5 250.5L1338.5 334.5C1338.5 346.098 1329.1 355.5 1317.5 355.5L987.5 355.5C975.902 355.5 966.5 346.098 966.5 334.5Z" stroke="#000000" stroke-width="6.875" stroke-linecap="butt" stroke-linejoin="miter" stroke-miterlimit="8" stroke-dasharray="20.625 6.875" stroke-opacity="1" fill="#FFFFFF" fill-rule="evenodd" fill-opacity="1"/><text fill="#BFBFBF" fill-opacity="1" font-family="Calibri,Calibri_MSFontService,sans-serif" font-style="normal" font-variant="normal" font-weight="700" font-stretch="normal" font-size="73" text-anchor="start" direction="ltr" writing-mode="lr-tb" unicode-bidi="normal" text-decoration="none" transform="matrix(1 0 0 1 1059.51 317)">SMN2</text></g></svg>