<svg width="1348" height="303" xmlns="http://www.w3.org/2000/svg" xmlns:xlink="http://www.w3.org/1999/xlink" overflow="hidden"><defs><clipPath id="clip0"><rect x="45" y="751" width="1348" height="303"/></clipPath></defs><g clip-path="url(#clip0)" transform="translate(-45 -751)"><path d="M1391.69 970.5 53.5002 970.5" stroke="#000000" stroke-width="9.16667" stroke-linecap="butt" stroke-linejoin="miter" stroke-miterlimit="8" stroke-opacity="1" fill="none" fill-rule="evenodd"/><path d="M1391.69 823.5 53.5002 823.5" stroke="#000000" stroke-width="9.16667" stroke-linecap="butt" stroke-linejoin="miter" stroke-miterlimit="8" stroke-opacity="1" fill="none" fill-rule="evenodd"/><path d="M537.5 777.5C537.5 765.902 546.902 756.5 558.5 756.5L888.5 756.5C900.098 756.5 909.5 765.902 909.5 777.5L909.5 861.5C909.5 873.098 900.098 882.5 888.5 882.5L558.5 882.5C546.902 882.5 537.5 873.098 537.5 861.5Z" stroke="#000000" stroke-width="6.875" stroke-linecap="butt" stroke-linejoin="miter" stroke-miterlimit="8" stroke-opacity="1" fill="#0432FF" fill-rule="evenodd" fill-opacity="1"/><text fill="#FFFFFF" fill-opacity="1" font-family="Calibri,Calibri_MSFontService,sans-serif" font-style="normal" font-variant="normal" font-weight="700" font-stretch="normal" font-size="73" text-anchor="start" direction="ltr" writing-mode="lr-tb" unicode-bidi="normal" text-decoration="none" transform="matrix(1 0 0 1 630.769 844)">SMN1</text><path d="M108.5 777.5C108.5 765.902 117.902 756.5 129.5 756.5L459.5 756.5C471.098 756.5 480.5 765.902 480.5 777.5L480.5 861.5C480.5 873.098 471.098 882.5 459.5 882.5L129.5 882.5C117.902 882.5 108.5 873.098 108.5 861.5Z" stroke="#000000" stroke-width="6.875" stroke-linecap="butt" stroke-linejoin="miter" stroke-miterlimit="8" stroke-opacity="1" fill="#0432FF" fill-rule="evenodd" fill-opacity="1"/><text fill="#FFFFFF" fill-opacity="1" font-family="Calibri,Calibri_MSFontService,sans-serif" font-style="normal" font-variant="normal" font-weight="700" font-stretch="normal" font-size="73" text-anchor="start" direction="ltr" writing-mode="lr-tb" unicode-bidi="normal" text-decoration="none" transform="matrix(1 0 0 1 201.561 844)">SMN1</text><path d="M537.5 922.5C537.5 910.902 546.902 901.5 558.5 901.5L888.5 901.5C900.098 901.5 909.5 910.902 909.5 922.5L909.5 1006.5C909.5 1018.1 900.098 1027.5 888.5 1027.5L558.5 1027.5C546.902 1027.5 537.5 1018.1 537.5 1006.5Z" stroke="#000000" stroke-width="6.875" stroke-linecap="butt" stroke-linejoin="miter" stroke-miterlimit="8" stroke-opacity="1" fill="#0432FF" fill-rule="evenodd" fill-opacity="1"/><text fill="#FFFFFF" fill-opacity="1" font-family="Calibri,Calibri_MSFontService,sans-serif" font-style="normal" font-variant="normal" font-weight="700" font-stretch="normal" font-size="73" text-anchor="start" direction="ltr" writing-mode="lr-tb" unicode-bidi="normal" text-decoration="none" transform="matrix(1 0 0 1 630.769 989)">SMN1</text><path d="M966.5 777.5C966.5 765.902 975.902 756.5 987.5 756.5L1317.5 756.5C1329.1 756.5 1338.5 765.902 1338.5 777.5L1338.5 861.5C1338.5 873.098 1329.1 882.5 1317.5 882.5L987.5 882.5C975.902 882.5 966.5 873.098 966.5 861.5Z" stroke="#000000" stroke-width="6.875" stroke-linecap="butt" stroke-linejoin="miter" stroke-miterlimit="8" stroke-opacity="1" fill="#76D6FF" fill-rule="evenodd" fill-opacity="1"/><text fill="#000000" fill-opacity="1" font-family="Calibri,Calibri_MSFontService,sans-serif" font-style="normal" font-variant="normal" font-weight="700" font-stretch="normal" font-size="73" text-anchor="start" direction="ltr" writing-mode="lr-tb" unicode-bidi="normal" text-decoration="none" transform="matrix(1 0 0 1 1059.51 844)">SMN2</text><path d="M966.5 922.5C966.5 910.902 975.902 901.5 987.5 901.5L1317.5 901.5C1329.1 901.5 1338.5 910.902 1338.5 922.5L1338.5 1006.5C1338.5 1018.1 1329.1 1027.5 1317.5 1027.5L987.5 1027.5C975.902 1027.5 966.5 1018.1 966.5 1006.5Z" stroke="#000000" stroke-width="6.875" stroke-linecap="butt" stroke-linejoin="miter" stroke-miterlimit="8" stroke-dasharray="20.625 6.875" stroke-opacity="1" fill="#FFFFFF" fill-rule="evenodd" fill-opacity="1"/><text fill="#BFBFBF" fill-opacity="1" font-family="Calibri,Calibri_MSFontService,sans-serif" font-style="normal" font-variant="normal" font-weight="700" font-stretch="normal" font-size="73" text-anchor="start" direction="ltr" writing-mode="lr-tb" unicode-bidi="normal" text-decoration="none" transform="matrix(1 0 0 1 1059.51 989)">SMN2</text></g></svg>