<svg width="1274" height="505" xmlns="http://www.w3.org/2000/svg" xmlns:xlink="http://www.w3.org/1999/xlink" overflow="hidden"><defs><clipPath id="clip0"><rect x="1008" y="462" width="1274" height="505"/></clipPath></defs><g clip-path="url(#clip0)" transform="translate(-1008 -462)"><path d="M2280.24 580 1020 580" stroke="#404040" stroke-width="18.3333" stroke-linecap="butt" stroke-linejoin="miter" stroke-miterlimit="8" stroke-opacity="1" fill="none" fill-rule="evenodd"/><path d="M1177.5 521.167C1177.5 504.782 1190.78 491.5 1207.17 491.5L2093.83 491.5C2110.22 491.5 2123.5 504.782 2123.5 521.167L2123.5 639.833C2123.5 656.218 2110.22 669.5 2093.83 669.5L1207.17 669.5C1190.78 669.5 1177.5 656.218 1177.5 639.833Z" stroke="#7F7F7F" stroke-width="3.4375" stroke-linecap="butt" stroke-linejoin="miter" stroke-miterlimit="8" stroke-opacity="1" fill="#E2F0D9" fill-rule="evenodd" fill-opacity="1"/><text fill="#000000" fill-opacity="1" font-family="Calibri,Calibri_MSFontService,sans-serif" font-style="normal" font-variant="normal" font-weight="700" font-stretch="normal" font-size="128" text-anchor="start" direction="ltr" writing-mode="lr-tb" unicode-bidi="normal" text-decoration="none" transform="matrix(1 0 0 1 1456.07 623)">MTHFR</text><path d="M2280.24 813 1020 813" stroke="#404040" stroke-width="18.3333" stroke-linecap="butt" stroke-linejoin="miter" stroke-miterlimit="8" stroke-opacity="1" fill="none" fill-rule="evenodd"/><path d="M1177.5 754.167C1177.5 737.783 1190.78 724.5 1207.17 724.5L2093.83 724.5C2110.22 724.5 2123.5 737.783 2123.5 754.167L2123.5 872.834C2123.5 889.218 2110.22 902.501 2093.83 902.501L1207.17 902.501C1190.78 902.501 1177.5 889.218 1177.5 872.834Z" stroke="#7F7F7F" stroke-width="3.4375" stroke-linecap="butt" stroke-linejoin="miter" stroke-miterlimit="8" stroke-opacity="1" fill="#E2F0D9" fill-rule="evenodd" fill-opacity="1"/><text fill="#000000" fill-opacity="1" font-family="Calibri,Calibri_MSFontService,sans-serif" font-style="normal" font-variant="normal" font-weight="700" font-stretch="normal" font-size="128" text-anchor="start" direction="ltr" writing-mode="lr-tb" unicode-bidi="normal" text-decoration="none" transform="matrix(1 0 0 1 1456.07 856)">MTHFR</text><path d="M1967 580C1967 558.461 1984.46 541 2006 541 2027.54 541 2045 558.461 2045 580 2045 601.539 2027.54 619 2006 619 1984.46 619 1967 601.539 1967 580Z" fill="#00B050" fill-rule="evenodd" fill-opacity="1"/><path d="M1967 813C1967 791.461 1984.46 774 2006 774 2027.54 774 2045 791.461 2045 813 2045 834.539 2027.54 852 2006 852 1984.46 852 1967 834.539 1967 813Z" fill="#00B050" fill-rule="evenodd" fill-opacity="1"/></g></svg>