<svg width="1274" height="509" xmlns="http://www.w3.org/2000/svg" xmlns:xlink="http://www.w3.org/1999/xlink" overflow="hidden"><defs><clipPath id="clip0"><rect x="1008" y="1003" width="1274" height="509"/></clipPath></defs><g clip-path="url(#clip0)" transform="translate(-1008 -1003)"><path d="M2280.24 1121 1020 1121" stroke="#404040" stroke-width="18.3333" stroke-linecap="butt" stroke-linejoin="miter" stroke-miterlimit="8" stroke-opacity="1" fill="none" fill-rule="evenodd"/><path d="M1177.5 1062.17C1177.5 1045.78 1190.78 1032.5 1207.17 1032.5L2093.83 1032.5C2110.22 1032.5 2123.5 1045.78 2123.5 1062.17L2123.5 1180.83C2123.5 1197.22 2110.22 1210.5 2093.83 1210.5L1207.17 1210.5C1190.78 1210.5 1177.5 1197.22 1177.5 1180.83Z" stroke="#7F7F7F" stroke-width="3.4375" stroke-linecap="butt" stroke-linejoin="miter" stroke-miterlimit="8" stroke-opacity="1" fill="#E2F0D9" fill-rule="evenodd" fill-opacity="1"/><text fill="#000000" fill-opacity="1" font-family="Calibri,Calibri_MSFontService,sans-serif" font-style="normal" font-variant="normal" font-weight="700" font-stretch="normal" font-size="128" text-anchor="start" direction="ltr" writing-mode="lr-tb" unicode-bidi="normal" text-decoration="none" transform="matrix(1 0 0 1 1456.07 1164)">MTHFR</text><path d="M2280.24 1354 1020 1354" stroke="#404040" stroke-width="18.3333" stroke-linecap="butt" stroke-linejoin="miter" stroke-miterlimit="8" stroke-opacity="1" fill="none" fill-rule="evenodd"/><path d="M1177.5 1295.17C1177.5 1278.78 1190.78 1265.5 1207.17 1265.5L2093.83 1265.5C2110.22 1265.5 2123.5 1278.78 2123.5 1295.17L2123.5 1413.83C2123.5 1430.22 2110.22 1443.5 2093.83 1443.5L1207.17 1443.5C1190.78 1443.5 1177.5 1430.22 1177.5 1413.83Z" stroke="#7F7F7F" stroke-width="4.58333" stroke-linecap="butt" stroke-linejoin="miter" stroke-miterlimit="8" stroke-opacity="1" fill="#FF85FF" fill-rule="evenodd" fill-opacity="1"/><text fill="#000000" fill-opacity="1" font-family="Calibri,Calibri_MSFontService,sans-serif" font-style="normal" font-variant="normal" font-weight="700" font-stretch="normal" font-size="128" text-anchor="start" direction="ltr" writing-mode="lr-tb" unicode-bidi="normal" text-decoration="none" transform="matrix(1 0 0 1 1456.07 1397)">MTHFR</text><path d="M1967 1121C1967 1099.46 1984.46 1082 2006 1082 2027.54 1082 2045 1099.46 2045 1121 2045 1142.54 2027.54 1160 2006 1160 1984.46 1160 1967 1142.54 1967 1121Z" fill="#00B050" fill-rule="evenodd" fill-opacity="1"/><path d="M1967 1354C1967 1332.46 1984.46 1315 2006 1315 2027.54 1315 2045 1332.46 2045 1354 2045 1375.54 2027.54 1393 2006 1393 1984.46 1393 1967 1375.54 1967 1354Z" fill="#FF0000" fill-rule="evenodd" fill-opacity="1"/></g></svg>