<svg width="1274" height="509" xmlns="http://www.w3.org/2000/svg" xmlns:xlink="http://www.w3.org/1999/xlink" overflow="hidden"><defs><clipPath id="clip0"><rect x="1008" y="1544" width="1274" height="509"/></clipPath></defs><g clip-path="url(#clip0)" transform="translate(-1008 -1544)"><path d="M2280.24 1662 1020 1662" stroke="#404040" stroke-width="18.3333" stroke-linecap="butt" stroke-linejoin="miter" stroke-miterlimit="8" stroke-opacity="1" fill="none" fill-rule="evenodd"/><path d="M1177.5 1603.17C1177.5 1586.78 1190.78 1573.5 1207.17 1573.5L2093.83 1573.5C2110.22 1573.5 2123.5 1586.78 2123.5 1603.17L2123.5 1721.83C2123.5 1738.22 2110.22 1751.5 2093.83 1751.5L1207.17 1751.5C1190.78 1751.5 1177.5 1738.22 1177.5 1721.83Z" stroke="#7F7F7F" stroke-width="4.58333" stroke-linecap="butt" stroke-linejoin="miter" stroke-miterlimit="8" stroke-opacity="1" fill="#FF85FF" fill-rule="evenodd" fill-opacity="1"/><text fill="#000000" fill-opacity="1" font-family="Calibri,Calibri_MSFontService,sans-serif" font-style="normal" font-variant="normal" font-weight="700" font-stretch="normal" font-size="128" text-anchor="start" direction="ltr" writing-mode="lr-tb" unicode-bidi="normal" text-decoration="none" transform="matrix(1 0 0 1 1456.07 1705)">MTHFR</text><path d="M2280.24 1895 1020 1895" stroke="#404040" stroke-width="18.3333" stroke-linecap="butt" stroke-linejoin="miter" stroke-miterlimit="8" stroke-opacity="1" fill="none" fill-rule="evenodd"/><path d="M1177.5 1836.17C1177.5 1819.78 1190.78 1806.5 1207.17 1806.5L2093.83 1806.5C2110.22 1806.5 2123.5 1819.78 2123.5 1836.17L2123.5 1954.83C2123.5 1971.22 2110.22 1984.5 2093.83 1984.5L1207.17 1984.5C1190.78 1984.5 1177.5 1971.22 1177.5 1954.83Z" stroke="#7F7F7F" stroke-width="4.58333" stroke-linecap="butt" stroke-linejoin="miter" stroke-miterlimit="8" stroke-opacity="1" fill="#FF85FF" fill-rule="evenodd" fill-opacity="1"/><text fill="#000000" fill-opacity="1" font-family="Calibri,Calibri_MSFontService,sans-serif" font-style="normal" font-variant="normal" font-weight="700" font-stretch="normal" font-size="128" text-anchor="start" direction="ltr" writing-mode="lr-tb" unicode-bidi="normal" text-decoration="none" transform="matrix(1 0 0 1 1456.07 1938)">MTHFR</text><path d="M1967 1662C1967 1640.46 1984.46 1623 2006 1623 2027.54 1623 2045 1640.46 2045 1662 2045 1683.54 2027.54 1701 2006 1701 1984.46 1701 1967 1683.54 1967 1662Z" fill="#FF0000" fill-rule="evenodd" fill-opacity="1"/><path d="M1967 1895C1967 1873.46 1984.46 1856 2006 1856 2027.54 1856 2045 1873.46 2045 1895 2045 1916.54 2027.54 1934 2006 1934 1984.46 1934 1967 1916.54 1967 1895Z" fill="#FF0000" fill-rule="evenodd" fill-opacity="1"/></g></svg>